<svg xmlns="http://www.w3.org/2000/svg" width="1200" height="675" viewBox="0 0 1200 675" role="img" aria-labelledby="title desc">
  <title id="title">AI Infrastructure for Web3 and Digital Asset Teams</title>
  <desc id="desc">Editorial infrastructure visual for AI Infrastructure.</desc>
  <defs>
    <radialGradient id="g1" cx="18%" cy="14%" r="60%"><stop stop-color="#f6c915" stop-opacity=".48"/><stop offset="1" stop-color="#fff7d1" stop-opacity="0"/></radialGradient>
    <radialGradient id="g2" cx="86%" cy="12%" r="58%"><stop stop-color="#63e8ff" stop-opacity=".42"/><stop offset="1" stop-color="#fff7d1" stop-opacity="0"/></radialGradient>
    <linearGradient id="split" x1="0" x2="1"><stop stop-color="#fff7d1"/><stop offset=".55" stop-color="#fff7d1"/><stop offset=".55" stop-color="#eef8ff"/><stop offset="1" stop-color="#fff7d1"/></linearGradient>
    <filter id="shadow" x="-20%" y="-20%" width="140%" height="140%"><feDropShadow dx="0" dy="22" stdDeviation="22" flood-color="#12213a" flood-opacity=".14"/></filter>
  </defs>
  <rect width="1200" height="675" fill="#fff7d1"/>
  <rect width="1200" height="675" fill="url(#g1)"/>
  <rect width="1200" height="675" fill="url(#g2)"/>
  <g opacity=".9"><path d="M-80 0V675" stroke="#0f5fa8" stroke-opacity=".055"/><path d="M6 0V675" stroke="#0f5fa8" stroke-opacity=".055"/><path d="M92 0V675" stroke="#0f5fa8" stroke-opacity=".055"/><path d="M178 0V675" stroke="#0f5fa8" stroke-opacity=".055"/><path d="M264 0V675" stroke="#0f5fa8" stroke-opacity=".055"/><path d="M350 0V675" stroke="#0f5fa8" stroke-opacity=".055"/><path d="M436 0V675" stroke="#0f5fa8" stroke-opacity=".055"/><path d="M522 0V675" stroke="#0f5fa8" stroke-opacity=".055"/><path d="M608 0V675" stroke="#0f5fa8" stroke-opacity=".055"/><path d="M694 0V675" stroke="#0f5fa8" stroke-opacity=".055"/><path d="M780 0V675" stroke="#0f5fa8" stroke-opacity=".055"/><path d="M866 0V675" stroke="#0f5fa8" stroke-opacity=".055"/><path d="M952 0V675" stroke="#0f5fa8" stroke-opacity=".055"/><path d="M1038 0V675" stroke="#0f5fa8" stroke-opacity=".055"/><path d="M1124 0V675" stroke="#0f5fa8" stroke-opacity=".055"/><path d="M1210 0V675" stroke="#0f5fa8" stroke-opacity=".055"/><path d="M1296 0V675" stroke="#0f5fa8" stroke-opacity=".055"/><path d="M1382 0V675" stroke="#0f5fa8" stroke-opacity=".055"/><path d="M0 0H1200" stroke="#0f5fa8" stroke-opacity=".045"/><path d="M0 74H1200" stroke="#0f5fa8" stroke-opacity=".045"/><path d="M0 148H1200" stroke="#0f5fa8" stroke-opacity=".045"/><path d="M0 222H1200" stroke="#0f5fa8" stroke-opacity=".045"/><path d="M0 296H1200" stroke="#0f5fa8" stroke-opacity=".045"/><path d="M0 370H1200" stroke="#0f5fa8" stroke-opacity=".045"/><path d="M0 444H1200" stroke="#0f5fa8" stroke-opacity=".045"/><path d="M0 518H1200" stroke="#0f5fa8" stroke-opacity=".045"/><path d="M0 592H1200" stroke="#0f5fa8" stroke-opacity=".045"/><path d="M0 666H1200" stroke="#0f5fa8" stroke-opacity=".045"/></g>
  <g><line x1="823" y1="397" x2="744" y2="558" stroke="#0f5fa8" stroke-opacity=".13" stroke-width="1.5"/><line x1="744" y1="558" x2="665" y2="279" stroke="#0f5fa8" stroke-opacity=".13" stroke-width="2.5"/><line x1="665" y1="279" x2="586" y2="440" stroke="#0f5fa8" stroke-opacity=".13" stroke-width="3.5"/><line x1="586" y1="440" x2="507" y2="161" stroke="#0f5fa8" stroke-opacity=".13" stroke-width="1.5"/><line x1="507" y1="161" x2="428" y2="322" stroke="#0f5fa8" stroke-opacity=".13" stroke-width="2.5"/><line x1="428" y1="322" x2="349" y2="483" stroke="#0f5fa8" stroke-opacity=".13" stroke-width="3.5"/><circle cx="823" cy="397" r="7" fill="#63e8ff" opacity="0.64"/><circle cx="744" cy="558" r="10" fill="#f6c915" opacity="0.615"/><circle cx="665" cy="279" r="13" fill="#63e8ff" opacity="0.59"/><circle cx="586" cy="440" r="16" fill="#f6c915" opacity="0.565"/><circle cx="507" cy="161" r="7" fill="#63e8ff" opacity="0.54"/><circle cx="428" cy="322" r="10" fill="#f6c915" opacity="0.515"/><circle cx="349" cy="483" r="13" fill="#63e8ff" opacity="0.49"/></g>
  <g transform="translate(-300 0)"><rect x="660" y="72" width="486" height="510" rx="44" fill="#fff" opacity=".52" stroke="#0f5fa8" stroke-opacity=".08"/></g>
  <g transform="translate(-300 0)" filter="url(#shadow)"><g transform="translate(700 90)"><circle cx="204" cy="202" r="150" fill="#12213a" opacity=".9"/><path d="M132 174c0-52 38-92 86-92s86 40 86 92c0 68-50 82-50 128H182c0-46-50-60-50-128Z" fill="#f6c915" opacity=".82"/><g><line x1="204" y1="202" x2="414.0" y2="202.0" stroke="#63e8ff" stroke-width="4" opacity=".48"/><circle cx="414.0" cy="202.0" r="15" fill="#63e8ff" opacity=".82"/><line x1="204" y1="202" x2="373.9" y2="305.5" stroke="#63e8ff" stroke-width="4" opacity=".48"/><circle cx="373.9" cy="305.5" r="15" fill="#f6c915" opacity=".82"/><line x1="204" y1="202" x2="268.9" y2="369.4" stroke="#63e8ff" stroke-width="4" opacity=".48"/><circle cx="268.9" cy="369.4" r="15" fill="#63e8ff" opacity=".82"/><line x1="204" y1="202" x2="139.1" y2="369.4" stroke="#63e8ff" stroke-width="4" opacity=".48"/><circle cx="139.1" cy="369.4" r="15" fill="#f6c915" opacity=".82"/><line x1="204" y1="202" x2="34.1" y2="305.5" stroke="#63e8ff" stroke-width="4" opacity=".48"/><circle cx="34.1" cy="305.5" r="15" fill="#63e8ff" opacity=".82"/><line x1="204" y1="202" x2="-6.0" y2="202.0" stroke="#63e8ff" stroke-width="4" opacity=".48"/><circle cx="-6.0" cy="202.0" r="15" fill="#f6c915" opacity=".82"/><line x1="204" y1="202" x2="34.1" y2="98.5" stroke="#63e8ff" stroke-width="4" opacity=".48"/><circle cx="34.1" cy="98.5" r="15" fill="#63e8ff" opacity=".82"/><line x1="204" y1="202" x2="139.1" y2="34.6" stroke="#63e8ff" stroke-width="4" opacity=".48"/><circle cx="139.1" cy="34.6" r="15" fill="#f6c915" opacity=".82"/><line x1="204" y1="202" x2="268.9" y2="34.6" stroke="#63e8ff" stroke-width="4" opacity=".48"/><circle cx="268.9" cy="34.6" r="15" fill="#63e8ff" opacity=".82"/><line x1="204" y1="202" x2="373.9" y2="98.5" stroke="#63e8ff" stroke-width="4" opacity=".48"/><circle cx="373.9" cy="98.5" r="15" fill="#f6c915" opacity=".82"/></g></g></g>
  <g filter="url(#shadow)" opacity=".82"><circle cx="142" cy="474" r="42" fill="#f6c915" opacity=".44"/><circle cx="224" cy="506" r="26" fill="#63e8ff" opacity=".5"/><circle cx="304" cy="458" r="18" fill="#12213a" opacity=".16"/></g>
</svg>