<svg xmlns="http://www.w3.org/2000/svg" width="1200" height="675" viewBox="0 0 1200 675" role="img" aria-labelledby="title desc">
  <title id="title">Are Tokenized Assets More Liquid Than Traditional Assets?</title>
  <desc id="desc">Editorial infrastructure visual for Tokenization.</desc>
  <defs>
    <radialGradient id="g1" cx="18%" cy="14%" r="60%"><stop stop-color="#9b7cff" stop-opacity=".48"/><stop offset="1" stop-color="#eef8ff" stop-opacity="0"/></radialGradient>
    <radialGradient id="g2" cx="86%" cy="12%" r="58%"><stop stop-color="#ffe36e" stop-opacity=".42"/><stop offset="1" stop-color="#eef8ff" stop-opacity="0"/></radialGradient>
    <linearGradient id="split" x1="0" x2="1"><stop stop-color="#eef8ff"/><stop offset=".55" stop-color="#eef8ff"/><stop offset=".55" stop-color="#fffdf2"/><stop offset="1" stop-color="#eef8ff"/></linearGradient>
    <filter id="shadow" x="-20%" y="-20%" width="140%" height="140%"><feDropShadow dx="0" dy="22" stdDeviation="22" flood-color="#12213a" flood-opacity=".14"/></filter>
  </defs>
  <rect width="1200" height="675" fill="#eef8ff"/>
  <rect width="1200" height="675" fill="url(#g1)"/>
  <rect width="1200" height="675" fill="url(#g2)"/>
  <g opacity=".9"><circle cx="100" cy="110" r="42" fill="#ffe36e" opacity=".12"/><circle cx="196" cy="228" r="64" fill="#9b7cff" opacity=".12"/><circle cx="292" cy="346" r="86" fill="#ffe36e" opacity=".12"/><circle cx="388" cy="464" r="42" fill="#9b7cff" opacity=".12"/><circle cx="484" cy="110" r="64" fill="#ffe36e" opacity=".12"/><circle cx="580" cy="228" r="86" fill="#9b7cff" opacity=".12"/><circle cx="676" cy="346" r="42" fill="#ffe36e" opacity=".12"/><circle cx="772" cy="464" r="64" fill="#9b7cff" opacity=".12"/><circle cx="868" cy="110" r="86" fill="#ffe36e" opacity=".12"/><circle cx="964" cy="228" r="42" fill="#9b7cff" opacity=".12"/><circle cx="1060" cy="346" r="64" fill="#ffe36e" opacity=".12"/><circle cx="1156" cy="464" r="86" fill="#9b7cff" opacity=".12"/></g>
  <g><line x1="961" y1="239" x2="928" y2="566" stroke="#164b7a" stroke-opacity=".13" stroke-width="1.5"/><line x1="928" y1="566" x2="895" y2="453" stroke="#164b7a" stroke-opacity=".13" stroke-width="2.5"/><line x1="895" y1="453" x2="862" y2="340" stroke="#164b7a" stroke-opacity=".13" stroke-width="3.5"/><line x1="862" y1="340" x2="829" y2="227" stroke="#164b7a" stroke-opacity=".13" stroke-width="1.5"/><line x1="829" y1="227" x2="796" y2="554" stroke="#164b7a" stroke-opacity=".13" stroke-width="2.5"/><line x1="796" y1="554" x2="763" y2="441" stroke="#164b7a" stroke-opacity=".13" stroke-width="3.5"/><line x1="763" y1="441" x2="730" y2="328" stroke="#164b7a" stroke-opacity=".13" stroke-width="1.5"/><circle cx="961" cy="239" r="7" fill="#ffe36e" opacity="0.64"/><circle cx="928" cy="566" r="10" fill="#9b7cff" opacity="0.615"/><circle cx="895" cy="453" r="13" fill="#ffe36e" opacity="0.59"/><circle cx="862" cy="340" r="16" fill="#9b7cff" opacity="0.565"/><circle cx="829" cy="227" r="7" fill="#ffe36e" opacity="0.54"/><circle cx="796" cy="554" r="10" fill="#9b7cff" opacity="0.515"/><circle cx="763" cy="441" r="13" fill="#ffe36e" opacity="0.49"/><circle cx="730" cy="328" r="16" fill="#9b7cff" opacity="0.46499999999999997"/></g>
  <g transform="translate(-300 0)"><circle cx="900" cy="316" r="254" fill="#fff" opacity=".38"/><circle cx="900" cy="316" r="176" fill="#ffe36e" opacity=".16"/></g>
  <g transform="translate(-300 0)" filter="url(#shadow)"><g transform="translate(686 132)"><rect x="0" y="0" width="444" height="318" rx="34" fill="rgba(255,255,255,.62)" stroke="#12213a" stroke-opacity=".12"/><path d="M58 240C132 180 160 208 220 126s106-30 166-104" fill="none" stroke="#164b7a" stroke-width="24" stroke-linecap="round"/><path d="M58 250h340" stroke="#12213a" stroke-opacity=".18" stroke-width="5"/><rect x="70" y="168" width="42" height="90" rx="12" fill="#9b7cff" opacity=".86"/><rect x="146" y="118" width="42" height="140" rx="12" fill="#ffe36e" opacity=".86"/><rect x="222" y="72" width="42" height="186" rx="12" fill="#164b7a" opacity=".9"/></g></g>
  <g filter="url(#shadow)" opacity=".82"><circle cx="142" cy="474" r="42" fill="#9b7cff" opacity=".44"/><circle cx="224" cy="506" r="26" fill="#ffe36e" opacity=".5"/><circle cx="304" cy="458" r="18" fill="#164b7a" opacity=".16"/></g>
</svg>