<svg xmlns="http://www.w3.org/2000/svg" width="1200" height="675" viewBox="0 0 1200 675" role="img" aria-labelledby="title desc">
  <title id="title">Can Small Businesses Benefit From Tokenization?</title>
  <desc id="desc">Editorial infrastructure visual for Tokenization.</desc>
  <defs>
    <radialGradient id="g1" cx="18%" cy="14%" r="60%"><stop stop-color="#9b7cff" stop-opacity=".48"/><stop offset="1" stop-color="#f6f2ff" stop-opacity="0"/></radialGradient>
    <radialGradient id="g2" cx="86%" cy="12%" r="58%"><stop stop-color="#ffdf45" stop-opacity=".42"/><stop offset="1" stop-color="#f6f2ff" stop-opacity="0"/></radialGradient>
    <linearGradient id="split" x1="0" x2="1"><stop stop-color="#f6f2ff"/><stop offset=".55" stop-color="#f6f2ff"/><stop offset=".55" stop-color="#eef8ff"/><stop offset="1" stop-color="#fff7d1"/></linearGradient>
    <filter id="shadow" x="-20%" y="-20%" width="140%" height="140%"><feDropShadow dx="0" dy="22" stdDeviation="22" flood-color="#12213a" flood-opacity=".14"/></filter>
  </defs>
  <rect width="1200" height="675" fill="#f6f2ff"/>
  <rect width="1200" height="675" fill="url(#g1)"/>
  <rect width="1200" height="675" fill="url(#g2)"/>
  <g opacity=".9"><path d="M-80 0V675" stroke="#27144a" stroke-opacity=".055"/><path d="M6 0V675" stroke="#27144a" stroke-opacity=".055"/><path d="M92 0V675" stroke="#27144a" stroke-opacity=".055"/><path d="M178 0V675" stroke="#27144a" stroke-opacity=".055"/><path d="M264 0V675" stroke="#27144a" stroke-opacity=".055"/><path d="M350 0V675" stroke="#27144a" stroke-opacity=".055"/><path d="M436 0V675" stroke="#27144a" stroke-opacity=".055"/><path d="M522 0V675" stroke="#27144a" stroke-opacity=".055"/><path d="M608 0V675" stroke="#27144a" stroke-opacity=".055"/><path d="M694 0V675" stroke="#27144a" stroke-opacity=".055"/><path d="M780 0V675" stroke="#27144a" stroke-opacity=".055"/><path d="M866 0V675" stroke="#27144a" stroke-opacity=".055"/><path d="M952 0V675" stroke="#27144a" stroke-opacity=".055"/><path d="M1038 0V675" stroke="#27144a" stroke-opacity=".055"/><path d="M1124 0V675" stroke="#27144a" stroke-opacity=".055"/><path d="M1210 0V675" stroke="#27144a" stroke-opacity=".055"/><path d="M1296 0V675" stroke="#27144a" stroke-opacity=".055"/><path d="M1382 0V675" stroke="#27144a" stroke-opacity=".055"/><path d="M0 0H1200" stroke="#27144a" stroke-opacity=".045"/><path d="M0 74H1200" stroke="#27144a" stroke-opacity=".045"/><path d="M0 148H1200" stroke="#27144a" stroke-opacity=".045"/><path d="M0 222H1200" stroke="#27144a" stroke-opacity=".045"/><path d="M0 296H1200" stroke="#27144a" stroke-opacity=".045"/><path d="M0 370H1200" stroke="#27144a" stroke-opacity=".045"/><path d="M0 444H1200" stroke="#27144a" stroke-opacity=".045"/><path d="M0 518H1200" stroke="#27144a" stroke-opacity=".045"/><path d="M0 592H1200" stroke="#27144a" stroke-opacity=".045"/><path d="M0 666H1200" stroke="#27144a" stroke-opacity=".045"/></g>
  <g><line x1="880" y1="510" x2="820" y2="310" stroke="#27144a" stroke-opacity=".13" stroke-width="1.5"/><line x1="820" y1="310" x2="760" y2="550" stroke="#27144a" stroke-opacity=".13" stroke-width="2.5"/><line x1="760" y1="550" x2="700" y2="350" stroke="#27144a" stroke-opacity=".13" stroke-width="3.5"/><line x1="700" y1="350" x2="640" y2="150" stroke="#27144a" stroke-opacity=".13" stroke-width="1.5"/><line x1="640" y1="150" x2="580" y2="390" stroke="#27144a" stroke-opacity=".13" stroke-width="2.5"/><line x1="580" y1="390" x2="520" y2="190" stroke="#27144a" stroke-opacity=".13" stroke-width="3.5"/><line x1="520" y1="190" x2="460" y2="430" stroke="#27144a" stroke-opacity=".13" stroke-width="1.5"/><circle cx="880" cy="510" r="7" fill="#ffdf45" opacity="0.64"/><circle cx="820" cy="310" r="10" fill="#9b7cff" opacity="0.615"/><circle cx="760" cy="550" r="13" fill="#ffdf45" opacity="0.59"/><circle cx="700" cy="350" r="16" fill="#9b7cff" opacity="0.565"/><circle cx="640" cy="150" r="7" fill="#ffdf45" opacity="0.54"/><circle cx="580" cy="390" r="10" fill="#9b7cff" opacity="0.515"/><circle cx="520" cy="190" r="13" fill="#ffdf45" opacity="0.49"/><circle cx="460" cy="430" r="16" fill="#9b7cff" opacity="0.46499999999999997"/></g>
  <g transform="translate(-300 0)"><rect x="660" y="72" width="486" height="510" rx="44" fill="#fff" opacity=".52" stroke="#27144a" stroke-opacity=".08"/></g>
  <g transform="translate(-300 0)" filter="url(#shadow)"><g transform="translate(708 112)"><rect x="0" y="0" width="424" height="332" rx="34" fill="#0f5fa8" opacity=".92"/><rect x="36" y="42" width="352" height="54" rx="18" fill="#fff" opacity=".78"/><circle cx="70" cy="69" r="14" fill="#9b7cff"/><path d="M116 69h218" stroke="#27144a" stroke-width="12" stroke-linecap="round" opacity=".45"/><rect x="36" y="124" width="352" height="46" rx="18" fill="#ffdf45" opacity=".76"/><rect x="36" y="192" width="352" height="46" rx="18" fill="#9b7cff" opacity=".76"/><rect x="36" y="260" width="352" height="46" rx="18" fill="#ffdf45" opacity=".76"/></g></g>
  <g filter="url(#shadow)" opacity=".82"><circle cx="142" cy="474" r="42" fill="#9b7cff" opacity=".44"/><circle cx="224" cy="506" r="26" fill="#ffdf45" opacity=".5"/><circle cx="304" cy="458" r="18" fill="#0f5fa8" opacity=".16"/></g>
</svg>