<svg xmlns="http://www.w3.org/2000/svg" width="1200" height="675" viewBox="0 0 1200 675" role="img" aria-labelledby="title desc">
  <title id="title">Can Foreign Investors Buy Tokenized Assets?</title>
  <desc id="desc">Editorial infrastructure visual for Tokenization.</desc>
  <defs>
    <radialGradient id="g1" cx="18%" cy="14%" r="60%"><stop stop-color="#38d9f2" stop-opacity=".48"/><stop offset="1" stop-color="#fffdf2" stop-opacity="0"/></radialGradient>
    <radialGradient id="g2" cx="86%" cy="12%" r="58%"><stop stop-color="#f6c915" stop-opacity=".42"/><stop offset="1" stop-color="#fffdf2" stop-opacity="0"/></radialGradient>
    <linearGradient id="split" x1="0" x2="1"><stop stop-color="#fffdf2"/><stop offset=".55" stop-color="#fffdf2"/><stop offset=".55" stop-color="#eef8ff"/><stop offset="1" stop-color="#fff7d1"/></linearGradient>
    <filter id="shadow" x="-20%" y="-20%" width="140%" height="140%"><feDropShadow dx="0" dy="22" stdDeviation="22" flood-color="#12213a" flood-opacity=".14"/></filter>
  </defs>
  <rect width="1200" height="675" fill="#fffdf2"/>
  <rect width="1200" height="675" fill="url(#g1)"/>
  <rect width="1200" height="675" fill="url(#g2)"/>
  <g opacity=".9"><path d="M0 80C260 20 560 160 1200 60" fill="none" stroke="#164b7a" stroke-opacity=".09" stroke-width="2"/><path d="M0 146C260 66 560 184 1200 118" fill="none" stroke="#38d9f2" stroke-opacity=".09" stroke-width="3"/><path d="M0 212C260 112 560 208 1200 176" fill="none" stroke="#164b7a" stroke-opacity=".09" stroke-width="4"/><path d="M0 278C260 158 560 232 1200 234" fill="none" stroke="#38d9f2" stroke-opacity=".09" stroke-width="2"/><path d="M0 344C260 204 560 256 1200 292" fill="none" stroke="#164b7a" stroke-opacity=".09" stroke-width="3"/><path d="M0 410C260 250 560 280 1200 350" fill="none" stroke="#38d9f2" stroke-opacity=".09" stroke-width="4"/><path d="M0 476C260 296 560 304 1200 408" fill="none" stroke="#164b7a" stroke-opacity=".09" stroke-width="2"/><path d="M0 542C260 342 560 328 1200 466" fill="none" stroke="#38d9f2" stroke-opacity=".09" stroke-width="3"/><path d="M0 608C260 388 560 352 1200 524" fill="none" stroke="#164b7a" stroke-opacity=".09" stroke-width="4"/></g>
  <g><line x1="650" y1="420" x2="200" y2="270" stroke="#164b7a" stroke-opacity=".13" stroke-width="1.5"/><line x1="200" y1="270" x2="690" y2="560" stroke="#164b7a" stroke-opacity=".13" stroke-width="2.5"/><line x1="690" y1="560" x2="240" y2="410" stroke="#164b7a" stroke-opacity=".13" stroke-width="3.5"/><line x1="240" y1="410" x2="730" y2="260" stroke="#164b7a" stroke-opacity=".13" stroke-width="1.5"/><line x1="730" y1="260" x2="280" y2="550" stroke="#164b7a" stroke-opacity=".13" stroke-width="2.5"/><line x1="280" y1="550" x2="770" y2="400" stroke="#164b7a" stroke-opacity=".13" stroke-width="3.5"/><line x1="770" y1="400" x2="320" y2="250" stroke="#164b7a" stroke-opacity=".13" stroke-width="1.5"/><line x1="320" y1="250" x2="810" y2="540" stroke="#164b7a" stroke-opacity=".13" stroke-width="2.5"/><circle cx="650" cy="420" r="7" fill="#f6c915" opacity="0.64"/><circle cx="200" cy="270" r="10" fill="#38d9f2" opacity="0.615"/><circle cx="690" cy="560" r="13" fill="#f6c915" opacity="0.59"/><circle cx="240" cy="410" r="16" fill="#38d9f2" opacity="0.565"/><circle cx="730" cy="260" r="7" fill="#f6c915" opacity="0.54"/><circle cx="280" cy="550" r="10" fill="#38d9f2" opacity="0.515"/><circle cx="770" cy="400" r="13" fill="#f6c915" opacity="0.49"/><circle cx="320" cy="250" r="16" fill="#38d9f2" opacity="0.46499999999999997"/><circle cx="810" cy="540" r="7" fill="#f6c915" opacity="0.44"/></g>
  <g transform="translate(-300 0)"><rect x="628" y="96" width="520" height="420" rx="54" fill="#172033" opacity=".08"/><rect x="676" y="140" width="424" height="326" rx="38" fill="#fff" opacity=".46"/></g>
  <g transform="translate(-300 0)" filter="url(#shadow)"><g transform="translate(686 132)"><rect x="0" y="0" width="444" height="318" rx="34" fill="rgba(255,255,255,.62)" stroke="#164b7a" stroke-opacity=".12"/><path d="M58 240C132 180 160 208 220 126s106-30 166-104" fill="none" stroke="#172033" stroke-width="24" stroke-linecap="round"/><path d="M58 250h340" stroke="#164b7a" stroke-opacity=".18" stroke-width="5"/><rect x="70" y="168" width="42" height="90" rx="12" fill="#38d9f2" opacity=".86"/><rect x="146" y="118" width="42" height="140" rx="12" fill="#f6c915" opacity=".86"/><rect x="222" y="72" width="42" height="186" rx="12" fill="#172033" opacity=".9"/></g></g>
  <g filter="url(#shadow)" opacity=".82"><circle cx="142" cy="474" r="42" fill="#38d9f2" opacity=".44"/><circle cx="224" cy="506" r="26" fill="#f6c915" opacity=".5"/><circle cx="304" cy="458" r="18" fill="#172033" opacity=".16"/></g>
</svg>