<svg xmlns="http://www.w3.org/2000/svg" width="1200" height="675" viewBox="0 0 1200 675" role="img" aria-labelledby="title desc">
  <title id="title">Can I Tokenize Intellectual Property or Patents?</title>
  <desc id="desc">Editorial infrastructure visual for Tokenization.</desc>
  <defs>
    <radialGradient id="g1" cx="18%" cy="14%" r="60%"><stop stop-color="#d49b12" stop-opacity=".48"/><stop offset="1" stop-color="#fff4e8" stop-opacity="0"/></radialGradient>
    <radialGradient id="g2" cx="86%" cy="12%" r="58%"><stop stop-color="#3f8cff" stop-opacity=".42"/><stop offset="1" stop-color="#fff4e8" stop-opacity="0"/></radialGradient>
    <linearGradient id="split" x1="0" x2="1"><stop stop-color="#fff4e8"/><stop offset=".55" stop-color="#fff4e8"/><stop offset=".55" stop-color="#eef8ff"/><stop offset="1" stop-color="#fff7d1"/></linearGradient>
    <filter id="shadow" x="-20%" y="-20%" width="140%" height="140%"><feDropShadow dx="0" dy="22" stdDeviation="22" flood-color="#12213a" flood-opacity=".14"/></filter>
  </defs>
  <rect width="1200" height="675" fill="#fff4e8"/>
  <rect width="1200" height="675" fill="url(#g1)"/>
  <rect width="1200" height="675" fill="url(#g2)"/>
  <g opacity=".9"><path d="M80 80l38 22v44l-38 22-38-22v-44z" fill="none" stroke="#172033" stroke-opacity=".12" stroke-width="3"/><path d="M158 80l38 22v44l-38 22-38-22v-44z" fill="none" stroke="#d49b12" stroke-opacity=".12" stroke-width="3"/><path d="M236 80l38 22v44l-38 22-38-22v-44z" fill="none" stroke="#172033" stroke-opacity=".12" stroke-width="3"/><path d="M314 80l38 22v44l-38 22-38-22v-44z" fill="none" stroke="#d49b12" stroke-opacity=".12" stroke-width="3"/><path d="M392 80l38 22v44l-38 22-38-22v-44z" fill="none" stroke="#172033" stroke-opacity=".12" stroke-width="3"/><path d="M470 80l38 22v44l-38 22-38-22v-44z" fill="none" stroke="#d49b12" stroke-opacity=".12" stroke-width="3"/><path d="M548 80l38 22v44l-38 22-38-22v-44z" fill="none" stroke="#172033" stroke-opacity=".12" stroke-width="3"/><path d="M626 80l38 22v44l-38 22-38-22v-44z" fill="none" stroke="#d49b12" stroke-opacity=".12" stroke-width="3"/><path d="M704 80l38 22v44l-38 22-38-22v-44z" fill="none" stroke="#172033" stroke-opacity=".12" stroke-width="3"/><path d="M782 80l38 22v44l-38 22-38-22v-44z" fill="none" stroke="#d49b12" stroke-opacity=".12" stroke-width="3"/><path d="M860 80l38 22v44l-38 22-38-22v-44z" fill="none" stroke="#172033" stroke-opacity=".12" stroke-width="3"/><path d="M938 80l38 22v44l-38 22-38-22v-44z" fill="none" stroke="#d49b12" stroke-opacity=".12" stroke-width="3"/><path d="M1016 80l38 22v44l-38 22-38-22v-44z" fill="none" stroke="#172033" stroke-opacity=".12" stroke-width="3"/><path d="M1094 80l38 22v44l-38 22-38-22v-44z" fill="none" stroke="#d49b12" stroke-opacity=".12" stroke-width="3"/></g>
  <g><line x1="219" y1="281" x2="252" y2="174" stroke="#172033" stroke-opacity=".13" stroke-width="1.5"/><line x1="252" y1="174" x2="285" y2="507" stroke="#172033" stroke-opacity=".13" stroke-width="2.5"/><line x1="285" y1="507" x2="318" y2="400" stroke="#172033" stroke-opacity=".13" stroke-width="3.5"/><line x1="318" y1="400" x2="351" y2="293" stroke="#172033" stroke-opacity=".13" stroke-width="1.5"/><line x1="351" y1="293" x2="384" y2="186" stroke="#172033" stroke-opacity=".13" stroke-width="2.5"/><line x1="384" y1="186" x2="417" y2="519" stroke="#172033" stroke-opacity=".13" stroke-width="3.5"/><line x1="417" y1="519" x2="450" y2="412" stroke="#172033" stroke-opacity=".13" stroke-width="1.5"/><line x1="450" y1="412" x2="483" y2="305" stroke="#172033" stroke-opacity=".13" stroke-width="2.5"/><line x1="483" y1="305" x2="516" y2="198" stroke="#172033" stroke-opacity=".13" stroke-width="3.5"/><line x1="516" y1="198" x2="549" y2="531" stroke="#172033" stroke-opacity=".13" stroke-width="1.5"/><circle cx="219" cy="281" r="7" fill="#3f8cff" opacity="0.64"/><circle cx="252" cy="174" r="10" fill="#d49b12" opacity="0.615"/><circle cx="285" cy="507" r="13" fill="#3f8cff" opacity="0.59"/><circle cx="318" cy="400" r="16" fill="#d49b12" opacity="0.565"/><circle cx="351" cy="293" r="7" fill="#3f8cff" opacity="0.54"/><circle cx="384" cy="186" r="10" fill="#d49b12" opacity="0.515"/><circle cx="417" cy="519" r="13" fill="#3f8cff" opacity="0.49"/><circle cx="450" cy="412" r="16" fill="#d49b12" opacity="0.46499999999999997"/><circle cx="483" cy="305" r="7" fill="#3f8cff" opacity="0.44"/><circle cx="516" cy="198" r="10" fill="#d49b12" opacity="0.41500000000000004"/><circle cx="549" cy="531" r="13" fill="#3f8cff" opacity="0.39"/></g>
  <g transform="translate(-300 0)"><rect x="640" y="86" width="492" height="438" rx="40" fill="#fff" opacity=".44"/><path d="M690 524h392" stroke="#4b2e83" stroke-opacity=".18" stroke-width="14" stroke-linecap="round"/></g>
  <g transform="translate(-300 0)" filter="url(#shadow)"><g transform="translate(708 112)"><rect x="0" y="0" width="412" height="318" rx="34" fill="#fff" opacity=".7"/><circle cx="160" cy="146" r="92" fill="none" stroke="#4b2e83" stroke-width="34"/><path d="M224 210l112 112" stroke="#4b2e83" stroke-width="36" stroke-linecap="round"/><rect x="58" y="40" width="292" height="22" rx="11" fill="#d49b12" opacity=".72"/><rect x="58" y="270" width="200" height="20" rx="10" fill="#3f8cff" opacity=".78"/></g></g>
  <g filter="url(#shadow)" opacity=".82"><circle cx="142" cy="474" r="42" fill="#d49b12" opacity=".44"/><circle cx="224" cy="506" r="26" fill="#3f8cff" opacity=".5"/><circle cx="304" cy="458" r="18" fill="#4b2e83" opacity=".16"/></g>
</svg>