<svg xmlns="http://www.w3.org/2000/svg" width="1200" height="675" viewBox="0 0 1200 675" role="img" aria-labelledby="title desc">
  <title id="title">Can I Tokenize Real Estate? A Beginner's Guide</title>
  <desc id="desc">Editorial infrastructure visual for Tokenization.</desc>
  <defs>
    <radialGradient id="g1" cx="18%" cy="14%" r="60%"><stop stop-color="#25a074" stop-opacity=".48"/><stop offset="1" stop-color="#effaf6" stop-opacity="0"/></radialGradient>
    <radialGradient id="g2" cx="86%" cy="12%" r="58%"><stop stop-color="#4cb2e0" stop-opacity=".42"/><stop offset="1" stop-color="#effaf6" stop-opacity="0"/></radialGradient>
    <linearGradient id="split" x1="0" x2="1"><stop stop-color="#effaf6"/><stop offset=".55" stop-color="#effaf6"/><stop offset=".55" stop-color="#fffdf2"/><stop offset="1" stop-color="#eef8ff"/></linearGradient>
    <filter id="shadow" x="-20%" y="-20%" width="140%" height="140%"><feDropShadow dx="0" dy="22" stdDeviation="22" flood-color="#12213a" flood-opacity=".14"/></filter>
  </defs>
  <rect width="1200" height="675" fill="url(#split)"/>
  <rect width="1200" height="675" fill="url(#g1)"/>
  <rect width="1200" height="675" fill="url(#g2)"/>
  <g opacity=".9"><path d="M-120 675  220 0" stroke="#12392f" stroke-opacity=".12" stroke-width="4"/><path d="M18 675  312 0" stroke="#4cb2e0" stroke-opacity=".12" stroke-width="5"/><path d="M156 675  404 0" stroke="#12392f" stroke-opacity=".12" stroke-width="6"/><path d="M294 675  496 0" stroke="#4cb2e0" stroke-opacity=".12" stroke-width="7"/><path d="M432 675  588 0" stroke="#12392f" stroke-opacity=".12" stroke-width="4"/><path d="M570 675  680 0" stroke="#4cb2e0" stroke-opacity=".12" stroke-width="5"/><path d="M708 675  772 0" stroke="#12392f" stroke-opacity=".12" stroke-width="6"/><path d="M846 675  864 0" stroke="#4cb2e0" stroke-opacity=".12" stroke-width="7"/><path d="M984 675  956 0" stroke="#12392f" stroke-opacity=".12" stroke-width="4"/><path d="M1122 675  1048 0" stroke="#4cb2e0" stroke-opacity=".12" stroke-width="5"/><path d="M1260 675  1140 0" stroke="#12392f" stroke-opacity=".12" stroke-width="6"/></g>
  <g><line x1="770" y1="260" x2="360" y2="150" stroke="#172033" stroke-opacity=".13" stroke-width="1.5"/><line x1="360" y1="150" x2="890" y2="480" stroke="#172033" stroke-opacity=".13" stroke-width="2.5"/><line x1="890" y1="480" x2="480" y2="370" stroke="#172033" stroke-opacity=".13" stroke-width="3.5"/><line x1="480" y1="370" x2="1010" y2="260" stroke="#172033" stroke-opacity=".13" stroke-width="1.5"/><line x1="1010" y1="260" x2="600" y2="150" stroke="#172033" stroke-opacity=".13" stroke-width="2.5"/><line x1="600" y1="150" x2="190" y2="480" stroke="#172033" stroke-opacity=".13" stroke-width="3.5"/><circle cx="770" cy="260" r="7" fill="#4cb2e0" opacity="0.64"/><circle cx="360" cy="150" r="10" fill="#25a074" opacity="0.615"/><circle cx="890" cy="480" r="13" fill="#4cb2e0" opacity="0.59"/><circle cx="480" cy="370" r="16" fill="#25a074" opacity="0.565"/><circle cx="1010" cy="260" r="7" fill="#4cb2e0" opacity="0.54"/><circle cx="600" cy="150" r="10" fill="#25a074" opacity="0.515"/><circle cx="190" cy="480" r="13" fill="#4cb2e0" opacity="0.49"/></g>
  <g transform="translate(-300 0)"><circle cx="890" cy="316" r="282" fill="#fff" opacity=".28"/><path d="M618 316h544M890 58v516" stroke="#12392f" stroke-opacity=".08" stroke-width="4"/></g>
  <g transform="translate(-300 0)" filter="url(#shadow)"><g transform="translate(704 125)"><rect x="0" y="105" width="122" height="260" rx="12" fill="#172033" opacity=".9"/><rect x="142" y="32" width="150" height="333" rx="14" fill="#12392f" opacity=".94"/><rect x="318" y="132" width="116" height="233" rx="12" fill="#25a074" opacity=".7"/><rect x="24" y="132" width="15" height="16" rx="3" fill="#4cb2e0" opacity=".65"/><rect x="54" y="132" width="15" height="16" rx="3" fill="#4cb2e0" opacity=".65"/><rect x="84" y="132" width="15" height="16" rx="3" fill="#4cb2e0" opacity=".65"/><rect x="24" y="162" width="15" height="16" rx="3" fill="#4cb2e0" opacity=".65"/><rect x="54" y="162" width="15" height="16" rx="3" fill="#4cb2e0" opacity=".65"/><rect x="84" y="162" width="15" height="16" rx="3" fill="#4cb2e0" opacity=".65"/><rect x="24" y="192" width="15" height="16" rx="3" fill="#4cb2e0" opacity=".65"/><rect x="54" y="192" width="15" height="16" rx="3" fill="#4cb2e0" opacity=".65"/><rect x="84" y="192" width="15" height="16" rx="3" fill="#4cb2e0" opacity=".65"/><rect x="24" y="222" width="15" height="16" rx="3" fill="#4cb2e0" opacity=".65"/><rect x="54" y="222" width="15" height="16" rx="3" fill="#4cb2e0" opacity=".65"/><rect x="84" y="222" width="15" height="16" rx="3" fill="#4cb2e0" opacity=".65"/><rect x="24" y="252" width="15" height="16" rx="3" fill="#4cb2e0" opacity=".65"/><rect x="54" y="252" width="15" height="16" rx="3" fill="#4cb2e0" opacity=".65"/><rect x="84" y="252" width="15" height="16" rx="3" fill="#4cb2e0" opacity=".65"/><rect x="24" y="282" width="15" height="16" rx="3" fill="#4cb2e0" opacity=".65"/><rect x="54" y="282" width="15" height="16" rx="3" fill="#4cb2e0" opacity=".65"/><rect x="84" y="282" width="15" height="16" rx="3" fill="#4cb2e0" opacity=".65"/><rect x="24" y="312" width="15" height="16" rx="3" fill="#4cb2e0" opacity=".65"/><rect x="54" y="312" width="15" height="16" rx="3" fill="#4cb2e0" opacity=".65"/><rect x="84" y="312" width="15" height="16" rx="3" fill="#4cb2e0" opacity=".65"/><rect x="170" y="62" width="14" height="15" rx="3" fill="#fff" opacity=".58"/><rect x="199" y="62" width="14" height="15" rx="3" fill="#fff" opacity=".58"/><rect x="228" y="62" width="14" height="15" rx="3" fill="#fff" opacity=".58"/><rect x="257" y="62" width="14" height="15" rx="3" fill="#fff" opacity=".58"/><rect x="170" y="92" width="14" height="15" rx="3" fill="#fff" opacity=".58"/><rect x="199" y="92" width="14" height="15" rx="3" fill="#fff" opacity=".58"/><rect x="228" y="92" width="14" height="15" rx="3" fill="#fff" opacity=".58"/><rect x="257" y="92" width="14" height="15" rx="3" fill="#fff" opacity=".58"/><rect x="170" y="122" width="14" height="15" rx="3" fill="#fff" opacity=".58"/><rect x="199" y="122" width="14" height="15" rx="3" fill="#fff" opacity=".58"/><rect x="228" y="122" width="14" height="15" rx="3" fill="#fff" opacity=".58"/><rect x="257" y="122" width="14" height="15" rx="3" fill="#fff" opacity=".58"/><rect x="170" y="152" width="14" height="15" rx="3" fill="#fff" opacity=".58"/><rect x="199" y="152" width="14" height="15" rx="3" fill="#fff" opacity=".58"/><rect x="228" y="152" width="14" height="15" rx="3" fill="#fff" opacity=".58"/><rect x="257" y="152" width="14" height="15" rx="3" fill="#fff" opacity=".58"/><rect x="170" y="182" width="14" height="15" rx="3" fill="#fff" opacity=".58"/><rect x="199" y="182" width="14" height="15" rx="3" fill="#fff" opacity=".58"/><rect x="228" y="182" width="14" height="15" rx="3" fill="#fff" opacity=".58"/><rect x="257" y="182" width="14" height="15" rx="3" fill="#fff" opacity=".58"/><rect x="170" y="212" width="14" height="15" rx="3" fill="#fff" opacity=".58"/><rect x="199" y="212" width="14" height="15" rx="3" fill="#fff" opacity=".58"/><rect x="228" y="212" width="14" height="15" rx="3" fill="#fff" opacity=".58"/><rect x="257" y="212" width="14" height="15" rx="3" fill="#fff" opacity=".58"/><rect x="170" y="242" width="14" height="15" rx="3" fill="#fff" opacity=".58"/><rect x="199" y="242" width="14" height="15" rx="3" fill="#fff" opacity=".58"/><rect x="228" y="242" width="14" height="15" rx="3" fill="#fff" opacity=".58"/><rect x="257" y="242" width="14" height="15" rx="3" fill="#fff" opacity=".58"/><rect x="170" y="272" width="14" height="15" rx="3" fill="#fff" opacity=".58"/><rect x="199" y="272" width="14" height="15" rx="3" fill="#fff" opacity=".58"/><rect x="228" y="272" width="14" height="15" rx="3" fill="#fff" opacity=".58"/><rect x="257" y="272" width="14" height="15" rx="3" fill="#fff" opacity=".58"/><rect x="170" y="302" width="14" height="15" rx="3" fill="#fff" opacity=".58"/><rect x="199" y="302" width="14" height="15" rx="3" fill="#fff" opacity=".58"/><rect x="228" y="302" width="14" height="15" rx="3" fill="#fff" opacity=".58"/><rect x="257" y="302" width="14" height="15" rx="3" fill="#fff" opacity=".58"/></g></g>
  <g filter="url(#shadow)" opacity=".82"><circle cx="142" cy="474" r="42" fill="#25a074" opacity=".44"/><circle cx="224" cy="506" r="26" fill="#4cb2e0" opacity=".5"/><circle cx="304" cy="458" r="18" fill="#172033" opacity=".16"/></g>
</svg>