<svg xmlns="http://www.w3.org/2000/svg" width="1200" height="675" viewBox="0 0 1200 675" role="img" aria-labelledby="title desc">
  <title id="title">Can Tokenization Help Me Raise Capital Faster?</title>
  <desc id="desc">Editorial infrastructure visual for Tokenization.</desc>
  <defs>
    <radialGradient id="g1" cx="18%" cy="14%" r="60%"><stop stop-color="#4cb2e0" stop-opacity=".48"/><stop offset="1" stop-color="#f2f7ff" stop-opacity="0"/></radialGradient>
    <radialGradient id="g2" cx="86%" cy="12%" r="58%"><stop stop-color="#ffb84d" stop-opacity=".42"/><stop offset="1" stop-color="#f2f7ff" stop-opacity="0"/></radialGradient>
    <linearGradient id="split" x1="0" x2="1"><stop stop-color="#f2f7ff"/><stop offset=".55" stop-color="#f2f7ff"/><stop offset=".55" stop-color="#fffdf2"/><stop offset="1" stop-color="#eef8ff"/></linearGradient>
    <filter id="shadow" x="-20%" y="-20%" width="140%" height="140%"><feDropShadow dx="0" dy="22" stdDeviation="22" flood-color="#12213a" flood-opacity=".14"/></filter>
  </defs>
  <rect width="1200" height="675" fill="#f2f7ff"/>
  <rect width="1200" height="675" fill="url(#g1)"/>
  <rect width="1200" height="675" fill="url(#g2)"/>
  <g opacity=".9"><circle cx="100" cy="110" r="42" fill="#ffb84d" opacity=".12"/><circle cx="196" cy="228" r="64" fill="#4cb2e0" opacity=".12"/><circle cx="292" cy="346" r="86" fill="#ffb84d" opacity=".12"/><circle cx="388" cy="464" r="42" fill="#4cb2e0" opacity=".12"/><circle cx="484" cy="110" r="64" fill="#ffb84d" opacity=".12"/><circle cx="580" cy="228" r="86" fill="#4cb2e0" opacity=".12"/><circle cx="676" cy="346" r="42" fill="#ffb84d" opacity=".12"/><circle cx="772" cy="464" r="64" fill="#4cb2e0" opacity=".12"/><circle cx="868" cy="110" r="86" fill="#ffb84d" opacity=".12"/><circle cx="964" cy="228" r="42" fill="#4cb2e0" opacity=".12"/><circle cx="1060" cy="346" r="64" fill="#ffb84d" opacity=".12"/><circle cx="1156" cy="464" r="86" fill="#4cb2e0" opacity=".12"/></g>
  <g><line x1="259" y1="381" x2="932" y2="414" stroke="#12213a" stroke-opacity=".13" stroke-width="1.5"/><line x1="932" y1="414" x2="665" y2="447" stroke="#12213a" stroke-opacity=".13" stroke-width="2.5"/><line x1="665" y1="447" x2="398" y2="480" stroke="#12213a" stroke-opacity=".13" stroke-width="3.5"/><line x1="398" y1="480" x2="131" y2="513" stroke="#12213a" stroke-opacity=".13" stroke-width="1.5"/><line x1="131" y1="513" x2="804" y2="546" stroke="#12213a" stroke-opacity=".13" stroke-width="2.5"/><line x1="804" y1="546" x2="537" y2="579" stroke="#12213a" stroke-opacity=".13" stroke-width="3.5"/><line x1="537" y1="579" x2="270" y2="172" stroke="#12213a" stroke-opacity=".13" stroke-width="1.5"/><line x1="270" y1="172" x2="943" y2="205" stroke="#12213a" stroke-opacity=".13" stroke-width="2.5"/><circle cx="259" cy="381" r="7" fill="#ffb84d" opacity="0.64"/><circle cx="932" cy="414" r="10" fill="#4cb2e0" opacity="0.615"/><circle cx="665" cy="447" r="13" fill="#ffb84d" opacity="0.59"/><circle cx="398" cy="480" r="16" fill="#4cb2e0" opacity="0.565"/><circle cx="131" cy="513" r="7" fill="#ffb84d" opacity="0.54"/><circle cx="804" cy="546" r="10" fill="#4cb2e0" opacity="0.515"/><circle cx="537" cy="579" r="13" fill="#ffb84d" opacity="0.49"/><circle cx="270" cy="172" r="16" fill="#4cb2e0" opacity="0.46499999999999997"/><circle cx="943" cy="205" r="7" fill="#ffb84d" opacity="0.44"/></g>
  <g transform="translate(-300 0)"><circle cx="900" cy="316" r="254" fill="#fff" opacity=".38"/><circle cx="900" cy="316" r="176" fill="#ffb84d" opacity=".16"/></g>
  <g transform="translate(-300 0)" filter="url(#shadow)"><g transform="translate(700 90)"><circle cx="204" cy="202" r="150" fill="#12213a" opacity=".9"/><path d="M132 174c0-52 38-92 86-92s86 40 86 92c0 68-50 82-50 128H182c0-46-50-60-50-128Z" fill="#4cb2e0" opacity=".82"/><g><line x1="204" y1="202" x2="414.0" y2="202.0" stroke="#ffb84d" stroke-width="4" opacity=".48"/><circle cx="414.0" cy="202.0" r="15" fill="#ffb84d" opacity=".82"/><line x1="204" y1="202" x2="373.9" y2="305.5" stroke="#ffb84d" stroke-width="4" opacity=".48"/><circle cx="373.9" cy="305.5" r="15" fill="#4cb2e0" opacity=".82"/><line x1="204" y1="202" x2="268.9" y2="369.4" stroke="#ffb84d" stroke-width="4" opacity=".48"/><circle cx="268.9" cy="369.4" r="15" fill="#ffb84d" opacity=".82"/><line x1="204" y1="202" x2="139.1" y2="369.4" stroke="#ffb84d" stroke-width="4" opacity=".48"/><circle cx="139.1" cy="369.4" r="15" fill="#4cb2e0" opacity=".82"/><line x1="204" y1="202" x2="34.1" y2="305.5" stroke="#ffb84d" stroke-width="4" opacity=".48"/><circle cx="34.1" cy="305.5" r="15" fill="#ffb84d" opacity=".82"/><line x1="204" y1="202" x2="-6.0" y2="202.0" stroke="#ffb84d" stroke-width="4" opacity=".48"/><circle cx="-6.0" cy="202.0" r="15" fill="#4cb2e0" opacity=".82"/><line x1="204" y1="202" x2="34.1" y2="98.5" stroke="#ffb84d" stroke-width="4" opacity=".48"/><circle cx="34.1" cy="98.5" r="15" fill="#ffb84d" opacity=".82"/><line x1="204" y1="202" x2="139.1" y2="34.6" stroke="#ffb84d" stroke-width="4" opacity=".48"/><circle cx="139.1" cy="34.6" r="15" fill="#4cb2e0" opacity=".82"/><line x1="204" y1="202" x2="268.9" y2="34.6" stroke="#ffb84d" stroke-width="4" opacity=".48"/><circle cx="268.9" cy="34.6" r="15" fill="#ffb84d" opacity=".82"/><line x1="204" y1="202" x2="373.9" y2="98.5" stroke="#ffb84d" stroke-width="4" opacity=".48"/><circle cx="373.9" cy="98.5" r="15" fill="#4cb2e0" opacity=".82"/></g></g></g>
  <g filter="url(#shadow)" opacity=".82"><circle cx="142" cy="474" r="42" fill="#4cb2e0" opacity=".44"/><circle cx="224" cy="506" r="26" fill="#ffb84d" opacity=".5"/><circle cx="304" cy="458" r="18" fill="#12213a" opacity=".16"/></g>
</svg>