<svg xmlns="http://www.w3.org/2000/svg" width="1200" height="675" viewBox="0 0 1200 675" role="img" aria-labelledby="title desc">
  <title id="title">How to Choose a Custody Provider for Tokenized Assets</title>
  <desc id="desc">Editorial infrastructure visual for Custody.</desc>
  <defs>
    <radialGradient id="g1" cx="18%" cy="14%" r="60%"><stop stop-color="#e16ba8" stop-opacity=".48"/><stop offset="1" stop-color="#fff2f7" stop-opacity="0"/></radialGradient>
    <radialGradient id="g2" cx="86%" cy="12%" r="58%"><stop stop-color="#ffe36e" stop-opacity=".42"/><stop offset="1" stop-color="#fff2f7" stop-opacity="0"/></radialGradient>
    <linearGradient id="split" x1="0" x2="1"><stop stop-color="#fff2f7"/><stop offset=".55" stop-color="#fff2f7"/><stop offset=".55" stop-color="#eef8ff"/><stop offset="1" stop-color="#fff7d1"/></linearGradient>
    <filter id="shadow" x="-20%" y="-20%" width="140%" height="140%"><feDropShadow dx="0" dy="22" stdDeviation="22" flood-color="#12213a" flood-opacity=".14"/></filter>
  </defs>
  <rect width="1200" height="675" fill="#fff2f7"/>
  <rect width="1200" height="675" fill="url(#g1)"/>
  <rect width="1200" height="675" fill="url(#g2)"/>
  <g opacity=".9"><path d="M0 80C260 20 560 160 1200 60" fill="none" stroke="#351528" stroke-opacity=".09" stroke-width="2"/><path d="M0 146C260 66 560 184 1200 118" fill="none" stroke="#e16ba8" stroke-opacity=".09" stroke-width="3"/><path d="M0 212C260 112 560 208 1200 176" fill="none" stroke="#351528" stroke-opacity=".09" stroke-width="4"/><path d="M0 278C260 158 560 232 1200 234" fill="none" stroke="#e16ba8" stroke-opacity=".09" stroke-width="2"/><path d="M0 344C260 204 560 256 1200 292" fill="none" stroke="#351528" stroke-opacity=".09" stroke-width="3"/><path d="M0 410C260 250 560 280 1200 350" fill="none" stroke="#e16ba8" stroke-opacity=".09" stroke-width="4"/><path d="M0 476C260 296 560 304 1200 408" fill="none" stroke="#351528" stroke-opacity=".09" stroke-width="2"/><path d="M0 542C260 342 560 328 1200 466" fill="none" stroke="#e16ba8" stroke-opacity=".09" stroke-width="3"/><path d="M0 608C260 388 560 352 1200 524" fill="none" stroke="#351528" stroke-opacity=".09" stroke-width="4"/></g>
  <g><line x1="221" y1="299" x2="568" y2="446" stroke="#351528" stroke-opacity=".13" stroke-width="1.5"/><line x1="568" y1="446" x2="915" y2="153" stroke="#351528" stroke-opacity=".13" stroke-width="2.5"/><line x1="915" y1="153" x2="322" y2="300" stroke="#351528" stroke-opacity=".13" stroke-width="3.5"/><line x1="322" y1="300" x2="669" y2="447" stroke="#351528" stroke-opacity=".13" stroke-width="1.5"/><line x1="669" y1="447" x2="1016" y2="154" stroke="#351528" stroke-opacity=".13" stroke-width="2.5"/><line x1="1016" y1="154" x2="423" y2="301" stroke="#351528" stroke-opacity=".13" stroke-width="3.5"/><line x1="423" y1="301" x2="770" y2="448" stroke="#351528" stroke-opacity=".13" stroke-width="1.5"/><line x1="770" y1="448" x2="177" y2="155" stroke="#351528" stroke-opacity=".13" stroke-width="2.5"/><line x1="177" y1="155" x2="524" y2="302" stroke="#351528" stroke-opacity=".13" stroke-width="3.5"/><circle cx="221" cy="299" r="7" fill="#ffe36e" opacity="0.64"/><circle cx="568" cy="446" r="10" fill="#e16ba8" opacity="0.615"/><circle cx="915" cy="153" r="13" fill="#ffe36e" opacity="0.59"/><circle cx="322" cy="300" r="16" fill="#e16ba8" opacity="0.565"/><circle cx="669" cy="447" r="7" fill="#ffe36e" opacity="0.54"/><circle cx="1016" cy="154" r="10" fill="#e16ba8" opacity="0.515"/><circle cx="423" cy="301" r="13" fill="#ffe36e" opacity="0.49"/><circle cx="770" cy="448" r="16" fill="#e16ba8" opacity="0.46499999999999997"/><circle cx="177" cy="155" r="7" fill="#ffe36e" opacity="0.44"/><circle cx="524" cy="302" r="10" fill="#e16ba8" opacity="0.41500000000000004"/></g>
  <g transform="translate(-300 0)"><rect x="628" y="96" width="520" height="420" rx="54" fill="#164b7a" opacity=".08"/><rect x="676" y="140" width="424" height="326" rx="38" fill="#fff" opacity=".46"/></g>
  <g transform="translate(-300 0)" filter="url(#shadow)"><g transform="translate(742 122)"><rect x="0" y="74" width="354" height="264" rx="34" fill="#164b7a" opacity=".94"/><circle cx="177" cy="206" r="82" fill="#e16ba8" opacity=".88"/><circle cx="177" cy="206" r="48" fill="#ffe36e" opacity=".9"/><path d="M132 74v-28c0-66 90-66 90 0v28" fill="none" stroke="#351528" stroke-width="24" stroke-linecap="round"/><rect x="228" y="136" width="78" height="34" rx="17" fill="#fff" opacity=".76"/></g></g>
  <g filter="url(#shadow)" opacity=".82"><circle cx="142" cy="474" r="42" fill="#e16ba8" opacity=".44"/><circle cx="224" cy="506" r="26" fill="#ffe36e" opacity=".5"/><circle cx="304" cy="458" r="18" fill="#164b7a" opacity=".16"/></g>
</svg>