<svg xmlns="http://www.w3.org/2000/svg" width="1200" height="675" viewBox="0 0 1200 675" role="img" aria-labelledby="title desc">
  <title id="title">Fiat On-Ramp vs Off-Ramp Providers: What Web3 Teams Need to Know</title>
  <desc id="desc">Editorial infrastructure visual for Payments.</desc>
  <defs>
    <radialGradient id="g1" cx="18%" cy="14%" r="60%"><stop stop-color="#63e8ff" stop-opacity=".48"/><stop offset="1" stop-color="#f4fbff" stop-opacity="0"/></radialGradient>
    <radialGradient id="g2" cx="86%" cy="12%" r="58%"><stop stop-color="#f6c915" stop-opacity=".42"/><stop offset="1" stop-color="#f4fbff" stop-opacity="0"/></radialGradient>
    <linearGradient id="split" x1="0" x2="1"><stop stop-color="#f4fbff"/><stop offset=".55" stop-color="#f4fbff"/><stop offset=".55" stop-color="#fffdf2"/><stop offset="1" stop-color="#eef8ff"/></linearGradient>
    <filter id="shadow" x="-20%" y="-20%" width="140%" height="140%"><feDropShadow dx="0" dy="22" stdDeviation="22" flood-color="#12213a" flood-opacity=".14"/></filter>
  </defs>
  <rect width="1200" height="675" fill="#f4fbff"/>
  <rect width="1200" height="675" fill="url(#g1)"/>
  <rect width="1200" height="675" fill="url(#g2)"/>
  <g opacity=".9"><rect x="70" y="64" width="72" height="72" rx="20" fill="#63e8ff" opacity=".13" transform="rotate(-8 100 90)"/><rect x="202" y="214" width="100" height="114" rx="20" fill="#f6c915" opacity=".13" transform="rotate(8 232 240)"/><rect x="334" y="364" width="128" height="72" rx="20" fill="#63e8ff" opacity=".13" transform="rotate(-8 364 390)"/><rect x="466" y="64" width="156" height="114" rx="20" fill="#f6c915" opacity=".13" transform="rotate(8 496 90)"/><rect x="598" y="214" width="72" height="72" rx="20" fill="#63e8ff" opacity=".13" transform="rotate(-8 628 240)"/><rect x="730" y="364" width="100" height="114" rx="20" fill="#f6c915" opacity=".13" transform="rotate(8 760 390)"/><rect x="862" y="64" width="128" height="72" rx="20" fill="#63e8ff" opacity=".13" transform="rotate(-8 892 90)"/><rect x="994" y="214" width="156" height="114" rx="20" fill="#f6c915" opacity=".13" transform="rotate(8 1024 240)"/></g>
  <g><line x1="659" y1="461" x2="212" y2="254" stroke="#17324f" stroke-opacity=".13" stroke-width="1.5"/><line x1="212" y1="254" x2="705" y2="487" stroke="#17324f" stroke-opacity=".13" stroke-width="2.5"/><line x1="705" y1="487" x2="258" y2="280" stroke="#17324f" stroke-opacity=".13" stroke-width="3.5"/><line x1="258" y1="280" x2="751" y2="513" stroke="#17324f" stroke-opacity=".13" stroke-width="1.5"/><line x1="751" y1="513" x2="304" y2="306" stroke="#17324f" stroke-opacity=".13" stroke-width="2.5"/><line x1="304" y1="306" x2="797" y2="539" stroke="#17324f" stroke-opacity=".13" stroke-width="3.5"/><line x1="797" y1="539" x2="350" y2="332" stroke="#17324f" stroke-opacity=".13" stroke-width="1.5"/><line x1="350" y1="332" x2="843" y2="565" stroke="#17324f" stroke-opacity=".13" stroke-width="2.5"/><line x1="843" y1="565" x2="396" y2="358" stroke="#17324f" stroke-opacity=".13" stroke-width="3.5"/><line x1="396" y1="358" x2="889" y2="151" stroke="#17324f" stroke-opacity=".13" stroke-width="1.5"/><circle cx="659" cy="461" r="7" fill="#f6c915" opacity="0.64"/><circle cx="212" cy="254" r="10" fill="#63e8ff" opacity="0.615"/><circle cx="705" cy="487" r="13" fill="#f6c915" opacity="0.59"/><circle cx="258" cy="280" r="16" fill="#63e8ff" opacity="0.565"/><circle cx="751" cy="513" r="7" fill="#f6c915" opacity="0.54"/><circle cx="304" cy="306" r="10" fill="#63e8ff" opacity="0.515"/><circle cx="797" cy="539" r="13" fill="#f6c915" opacity="0.49"/><circle cx="350" cy="332" r="16" fill="#63e8ff" opacity="0.46499999999999997"/><circle cx="843" cy="565" r="7" fill="#f6c915" opacity="0.44"/><circle cx="396" cy="358" r="10" fill="#63e8ff" opacity="0.41500000000000004"/><circle cx="889" cy="151" r="13" fill="#f6c915" opacity="0.39"/></g>
  <g transform="translate(-300 0)"><path d="M630 132C770 48 1014 72 1130 210c108 128 8 302-150 356-184 62-396-12-432-178-22-104 6-210 82-256Z" fill="#fff" opacity=".42"/></g>
  <g transform="translate(-300 0)" filter="url(#shadow)"><g transform="translate(704 118)"><rect x="0" y="44" width="254" height="162" rx="28" fill="#17324f" opacity=".92"/><rect x="32" y="86" width="126" height="18" rx="9" fill="#f6c915" opacity=".8"/><rect x="32" y="128" width="190" height="20" rx="10" fill="#fff" opacity=".62"/><path d="M292 52c80 52 80 182 0 234M338 14c124 82 124 282 0 364" fill="none" stroke="#63e8ff" stroke-width="22" stroke-linecap="round" opacity=".8"/><circle cx="414" cy="200" r="62" fill="#f6c915" opacity=".74"/></g></g>
  <g filter="url(#shadow)" opacity=".82"><circle cx="142" cy="474" r="42" fill="#63e8ff" opacity=".44"/><circle cx="224" cy="506" r="26" fill="#f6c915" opacity=".5"/><circle cx="304" cy="458" r="18" fill="#17324f" opacity=".16"/></g>
</svg>