<svg xmlns="http://www.w3.org/2000/svg" width="1200" height="675" viewBox="0 0 1200 675" role="img" aria-labelledby="title desc">
  <title id="title">How Secure Is Your Customer Data in Tokenization?</title>
  <desc id="desc">Editorial infrastructure visual for Tokenization.</desc>
  <defs>
    <radialGradient id="g1" cx="18%" cy="14%" r="60%"><stop stop-color="#9b7cff" stop-opacity=".48"/><stop offset="1" stop-color="#eef8ff" stop-opacity="0"/></radialGradient>
    <radialGradient id="g2" cx="86%" cy="12%" r="58%"><stop stop-color="#ffe36e" stop-opacity=".42"/><stop offset="1" stop-color="#eef8ff" stop-opacity="0"/></radialGradient>
    <linearGradient id="split" x1="0" x2="1"><stop stop-color="#eef8ff"/><stop offset=".55" stop-color="#eef8ff"/><stop offset=".55" stop-color="#fffdf2"/><stop offset="1" stop-color="#eef8ff"/></linearGradient>
    <filter id="shadow" x="-20%" y="-20%" width="140%" height="140%"><feDropShadow dx="0" dy="22" stdDeviation="22" flood-color="#12213a" flood-opacity=".14"/></filter>
  </defs>
  <rect width="1200" height="675" fill="#eef8ff"/>
  <rect width="1200" height="675" fill="url(#g1)"/>
  <rect width="1200" height="675" fill="url(#g2)"/>
  <g opacity=".9"><rect x="70" y="64" width="72" height="72" rx="20" fill="#9b7cff" opacity=".13" transform="rotate(-8 100 90)"/><rect x="202" y="214" width="100" height="114" rx="20" fill="#ffe36e" opacity=".13" transform="rotate(8 232 240)"/><rect x="334" y="364" width="128" height="72" rx="20" fill="#9b7cff" opacity=".13" transform="rotate(-8 364 390)"/><rect x="466" y="64" width="156" height="114" rx="20" fill="#ffe36e" opacity=".13" transform="rotate(8 496 90)"/><rect x="598" y="214" width="72" height="72" rx="20" fill="#9b7cff" opacity=".13" transform="rotate(-8 628 240)"/><rect x="730" y="364" width="100" height="114" rx="20" fill="#ffe36e" opacity=".13" transform="rotate(8 760 390)"/><rect x="862" y="64" width="128" height="72" rx="20" fill="#9b7cff" opacity=".13" transform="rotate(-8 892 90)"/><rect x="994" y="214" width="156" height="114" rx="20" fill="#ffe36e" opacity=".13" transform="rotate(8 1024 240)"/></g>
  <g><line x1="411" y1="289" x2="508" y2="246" stroke="#164b7a" stroke-opacity=".13" stroke-width="1.5"/><line x1="508" y1="246" x2="605" y2="203" stroke="#164b7a" stroke-opacity=".13" stroke-width="2.5"/><line x1="605" y1="203" x2="702" y2="160" stroke="#164b7a" stroke-opacity=".13" stroke-width="3.5"/><line x1="702" y1="160" x2="799" y2="557" stroke="#164b7a" stroke-opacity=".13" stroke-width="1.5"/><line x1="799" y1="557" x2="896" y2="514" stroke="#164b7a" stroke-opacity=".13" stroke-width="2.5"/><line x1="896" y1="514" x2="993" y2="471" stroke="#164b7a" stroke-opacity=".13" stroke-width="3.5"/><line x1="993" y1="471" x2="150" y2="428" stroke="#164b7a" stroke-opacity=".13" stroke-width="1.5"/><circle cx="411" cy="289" r="7" fill="#ffe36e" opacity="0.64"/><circle cx="508" cy="246" r="10" fill="#9b7cff" opacity="0.615"/><circle cx="605" cy="203" r="13" fill="#ffe36e" opacity="0.59"/><circle cx="702" cy="160" r="16" fill="#9b7cff" opacity="0.565"/><circle cx="799" cy="557" r="7" fill="#ffe36e" opacity="0.54"/><circle cx="896" cy="514" r="10" fill="#9b7cff" opacity="0.515"/><circle cx="993" cy="471" r="13" fill="#ffe36e" opacity="0.49"/><circle cx="150" cy="428" r="16" fill="#9b7cff" opacity="0.46499999999999997"/></g>
  <g transform="translate(-300 0)"><path d="M630 132C770 48 1014 72 1130 210c108 128 8 302-150 356-184 62-396-12-432-178-22-104 6-210 82-256Z" fill="#fff" opacity=".42"/></g>
  <g transform="translate(-300 0)" filter="url(#shadow)"><g transform="translate(728 90)"><path d="M192 0 342 58v118c0 124-68 210-150 260C110 386 42 300 42 176V58L192 0Z" fill="#164b7a" opacity=".94"/><path d="M116 208l52 52 112-130" fill="none" stroke="#ffe36e" stroke-width="28" stroke-linecap="round" stroke-linejoin="round"/><g transform="translate(0 356)"><rect x="0" y="0" width="64" height="24" rx="12" fill="#ffe36e" opacity=".76"/><rect x="92" y="0" width="64" height="24" rx="12" fill="#9b7cff" opacity=".76"/><rect x="184" y="0" width="64" height="24" rx="12" fill="#ffe36e" opacity=".76"/><rect x="276" y="0" width="64" height="24" rx="12" fill="#9b7cff" opacity=".76"/></g></g></g>
  <g filter="url(#shadow)" opacity=".82"><circle cx="142" cy="474" r="42" fill="#9b7cff" opacity=".44"/><circle cx="224" cy="506" r="26" fill="#ffe36e" opacity=".5"/><circle cx="304" cy="458" r="18" fill="#164b7a" opacity=".16"/></g>
</svg>