<svg xmlns="http://www.w3.org/2000/svg" width="1200" height="675" viewBox="0 0 1200 675" role="img" aria-labelledby="title desc">
  <title id="title">How Do Tax Implications Change With Tokenized Assets?</title>
  <desc id="desc">Editorial infrastructure visual for Tokenization.</desc>
  <defs>
    <radialGradient id="g1" cx="18%" cy="14%" r="60%"><stop stop-color="#d49b12" stop-opacity=".48"/><stop offset="1" stop-color="#fff4e8" stop-opacity="0"/></radialGradient>
    <radialGradient id="g2" cx="86%" cy="12%" r="58%"><stop stop-color="#3f8cff" stop-opacity=".42"/><stop offset="1" stop-color="#fff4e8" stop-opacity="0"/></radialGradient>
    <linearGradient id="split" x1="0" x2="1"><stop stop-color="#fff4e8"/><stop offset=".55" stop-color="#fff4e8"/><stop offset=".55" stop-color="#eef8ff"/><stop offset="1" stop-color="#fff7d1"/></linearGradient>
    <filter id="shadow" x="-20%" y="-20%" width="140%" height="140%"><feDropShadow dx="0" dy="22" stdDeviation="22" flood-color="#12213a" flood-opacity=".14"/></filter>
  </defs>
  <rect width="1200" height="675" fill="#fff4e8"/>
  <rect width="1200" height="675" fill="url(#g1)"/>
  <rect width="1200" height="675" fill="url(#g2)"/>
  <g opacity=".9"><path d="M0 80C260 20 560 160 1200 60" fill="none" stroke="#172033" stroke-opacity=".09" stroke-width="2"/><path d="M0 146C260 66 560 184 1200 118" fill="none" stroke="#d49b12" stroke-opacity=".09" stroke-width="3"/><path d="M0 212C260 112 560 208 1200 176" fill="none" stroke="#172033" stroke-opacity=".09" stroke-width="4"/><path d="M0 278C260 158 560 232 1200 234" fill="none" stroke="#d49b12" stroke-opacity=".09" stroke-width="2"/><path d="M0 344C260 204 560 256 1200 292" fill="none" stroke="#172033" stroke-opacity=".09" stroke-width="3"/><path d="M0 410C260 250 560 280 1200 350" fill="none" stroke="#d49b12" stroke-opacity=".09" stroke-width="4"/><path d="M0 476C260 296 560 304 1200 408" fill="none" stroke="#172033" stroke-opacity=".09" stroke-width="2"/><path d="M0 542C260 342 560 328 1200 466" fill="none" stroke="#d49b12" stroke-opacity=".09" stroke-width="3"/><path d="M0 608C260 388 560 352 1200 524" fill="none" stroke="#172033" stroke-opacity=".09" stroke-width="4"/></g>
  <g><line x1="605" y1="295" x2="140" y2="190" stroke="#172033" stroke-opacity=".13" stroke-width="1.5"/><line x1="140" y1="190" x2="615" y2="525" stroke="#172033" stroke-opacity=".13" stroke-width="2.5"/><line x1="615" y1="525" x2="150" y2="420" stroke="#172033" stroke-opacity=".13" stroke-width="3.5"/><line x1="150" y1="420" x2="625" y2="315" stroke="#172033" stroke-opacity=".13" stroke-width="1.5"/><line x1="625" y1="315" x2="160" y2="210" stroke="#172033" stroke-opacity=".13" stroke-width="2.5"/><line x1="160" y1="210" x2="635" y2="545" stroke="#172033" stroke-opacity=".13" stroke-width="3.5"/><line x1="635" y1="545" x2="170" y2="440" stroke="#172033" stroke-opacity=".13" stroke-width="1.5"/><line x1="170" y1="440" x2="645" y2="335" stroke="#172033" stroke-opacity=".13" stroke-width="2.5"/><line x1="645" y1="335" x2="180" y2="230" stroke="#172033" stroke-opacity=".13" stroke-width="3.5"/><line x1="180" y1="230" x2="655" y2="565" stroke="#172033" stroke-opacity=".13" stroke-width="1.5"/><circle cx="605" cy="295" r="7" fill="#3f8cff" opacity="0.64"/><circle cx="140" cy="190" r="10" fill="#d49b12" opacity="0.615"/><circle cx="615" cy="525" r="13" fill="#3f8cff" opacity="0.59"/><circle cx="150" cy="420" r="16" fill="#d49b12" opacity="0.565"/><circle cx="625" cy="315" r="7" fill="#3f8cff" opacity="0.54"/><circle cx="160" cy="210" r="10" fill="#d49b12" opacity="0.515"/><circle cx="635" cy="545" r="13" fill="#3f8cff" opacity="0.49"/><circle cx="170" cy="440" r="16" fill="#d49b12" opacity="0.46499999999999997"/><circle cx="645" cy="335" r="7" fill="#3f8cff" opacity="0.44"/><circle cx="180" cy="230" r="10" fill="#d49b12" opacity="0.41500000000000004"/><circle cx="655" cy="565" r="13" fill="#3f8cff" opacity="0.39"/></g>
  <g transform="translate(-300 0)"><rect x="628" y="96" width="520" height="420" rx="54" fill="#4b2e83" opacity=".08"/><rect x="676" y="140" width="424" height="326" rx="38" fill="#fff" opacity=".46"/></g>
  <g transform="translate(-300 0)" filter="url(#shadow)"><g transform="translate(720 100)"><rect x="0" y="0" width="286" height="360" rx="28" fill="#fff" opacity=".84"/><path d="M210 0v78h76" fill="#3f8cff" opacity=".65"/><rect x="42" y="94" width="180" height="18" rx="9" fill="#4b2e83" opacity=".82"/><rect x="42" y="142" width="214" height="14" rx="7" fill="#172033" opacity=".32"/><rect x="42" y="178" width="172" height="14" rx="7" fill="#172033" opacity=".24"/><rect x="42" y="248" width="92" height="52" rx="16" fill="#d49b12" opacity=".84"/><circle cx="318" cy="278" r="78" fill="#4b2e83" opacity=".9"/><path d="m282 278 28 28 52-66" fill="none" stroke="#3f8cff" stroke-width="18" stroke-linecap="round"/></g></g>
  <g filter="url(#shadow)" opacity=".82"><circle cx="142" cy="474" r="42" fill="#d49b12" opacity=".44"/><circle cx="224" cy="506" r="26" fill="#3f8cff" opacity=".5"/><circle cx="304" cy="458" r="18" fill="#4b2e83" opacity=".16"/></g>
</svg>