<svg xmlns="http://www.w3.org/2000/svg" width="1200" height="675" viewBox="0 0 1200 675" role="img" aria-labelledby="title desc">
  <title id="title">How Much Money Can Tokenization Save My Business?</title>
  <desc id="desc">Editorial infrastructure visual for Tokenization.</desc>
  <defs>
    <radialGradient id="g1" cx="18%" cy="14%" r="60%"><stop stop-color="#63e8ff" stop-opacity=".48"/><stop offset="1" stop-color="#f4fbff" stop-opacity="0"/></radialGradient>
    <radialGradient id="g2" cx="86%" cy="12%" r="58%"><stop stop-color="#f6c915" stop-opacity=".42"/><stop offset="1" stop-color="#f4fbff" stop-opacity="0"/></radialGradient>
    <linearGradient id="split" x1="0" x2="1"><stop stop-color="#f4fbff"/><stop offset=".55" stop-color="#f4fbff"/><stop offset=".55" stop-color="#fffdf2"/><stop offset="1" stop-color="#eef8ff"/></linearGradient>
    <filter id="shadow" x="-20%" y="-20%" width="140%" height="140%"><feDropShadow dx="0" dy="22" stdDeviation="22" flood-color="#12213a" flood-opacity=".14"/></filter>
  </defs>
  <rect width="1200" height="675" fill="#f4fbff"/>
  <rect width="1200" height="675" fill="url(#g1)"/>
  <rect width="1200" height="675" fill="url(#g2)"/>
  <g opacity=".9"><circle cx="100" cy="110" r="42" fill="#f6c915" opacity=".12"/><circle cx="196" cy="228" r="64" fill="#63e8ff" opacity=".12"/><circle cx="292" cy="346" r="86" fill="#f6c915" opacity=".12"/><circle cx="388" cy="464" r="42" fill="#63e8ff" opacity=".12"/><circle cx="484" cy="110" r="64" fill="#f6c915" opacity=".12"/><circle cx="580" cy="228" r="86" fill="#63e8ff" opacity=".12"/><circle cx="676" cy="346" r="42" fill="#f6c915" opacity=".12"/><circle cx="772" cy="464" r="64" fill="#63e8ff" opacity=".12"/><circle cx="868" cy="110" r="86" fill="#f6c915" opacity=".12"/><circle cx="964" cy="228" r="42" fill="#63e8ff" opacity=".12"/><circle cx="1060" cy="346" r="64" fill="#f6c915" opacity=".12"/><circle cx="1156" cy="464" r="86" fill="#63e8ff" opacity=".12"/></g>
  <g><line x1="372" y1="198" x2="456" y2="582" stroke="#17324f" stroke-opacity=".13" stroke-width="1.5"/><line x1="456" y1="582" x2="540" y2="526" stroke="#17324f" stroke-opacity=".13" stroke-width="2.5"/><line x1="540" y1="526" x2="624" y2="470" stroke="#17324f" stroke-opacity=".13" stroke-width="3.5"/><line x1="624" y1="470" x2="708" y2="414" stroke="#17324f" stroke-opacity=".13" stroke-width="1.5"/><line x1="708" y1="414" x2="792" y2="358" stroke="#17324f" stroke-opacity=".13" stroke-width="2.5"/><line x1="792" y1="358" x2="876" y2="302" stroke="#17324f" stroke-opacity=".13" stroke-width="3.5"/><line x1="876" y1="302" x2="960" y2="246" stroke="#17324f" stroke-opacity=".13" stroke-width="1.5"/><line x1="960" y1="246" x2="1044" y2="190" stroke="#17324f" stroke-opacity=".13" stroke-width="2.5"/><line x1="1044" y1="190" x2="188" y2="574" stroke="#17324f" stroke-opacity=".13" stroke-width="3.5"/><line x1="188" y1="574" x2="272" y2="518" stroke="#17324f" stroke-opacity=".13" stroke-width="1.5"/><circle cx="372" cy="198" r="7" fill="#f6c915" opacity="0.64"/><circle cx="456" cy="582" r="10" fill="#63e8ff" opacity="0.615"/><circle cx="540" cy="526" r="13" fill="#f6c915" opacity="0.59"/><circle cx="624" cy="470" r="16" fill="#63e8ff" opacity="0.565"/><circle cx="708" cy="414" r="7" fill="#f6c915" opacity="0.54"/><circle cx="792" cy="358" r="10" fill="#63e8ff" opacity="0.515"/><circle cx="876" cy="302" r="13" fill="#f6c915" opacity="0.49"/><circle cx="960" cy="246" r="16" fill="#63e8ff" opacity="0.46499999999999997"/><circle cx="1044" cy="190" r="7" fill="#f6c915" opacity="0.44"/><circle cx="188" cy="574" r="10" fill="#63e8ff" opacity="0.41500000000000004"/><circle cx="272" cy="518" r="13" fill="#f6c915" opacity="0.39"/></g>
  <g transform="translate(-300 0)"><circle cx="900" cy="316" r="254" fill="#fff" opacity=".38"/><circle cx="900" cy="316" r="176" fill="#f6c915" opacity=".16"/></g>
  <g transform="translate(-300 0)" filter="url(#shadow)"><g transform="translate(704 118)"><rect x="0" y="44" width="254" height="162" rx="28" fill="#17324f" opacity=".92"/><rect x="32" y="86" width="126" height="18" rx="9" fill="#f6c915" opacity=".8"/><rect x="32" y="128" width="190" height="20" rx="10" fill="#fff" opacity=".62"/><path d="M292 52c80 52 80 182 0 234M338 14c124 82 124 282 0 364" fill="none" stroke="#63e8ff" stroke-width="22" stroke-linecap="round" opacity=".8"/><circle cx="414" cy="200" r="62" fill="#f6c915" opacity=".74"/></g></g>
  <g filter="url(#shadow)" opacity=".82"><circle cx="142" cy="474" r="42" fill="#63e8ff" opacity=".44"/><circle cx="224" cy="506" r="26" fill="#f6c915" opacity=".5"/><circle cx="304" cy="458" r="18" fill="#17324f" opacity=".16"/></g>
</svg>