<svg xmlns="http://www.w3.org/2000/svg" width="1200" height="675" viewBox="0 0 1200 675" role="img" aria-labelledby="title desc">
  <title id="title">How Do Smart Contracts Work With Tokenized Assets?</title>
  <desc id="desc">Editorial infrastructure visual for Tokenization.</desc>
  <defs>
    <radialGradient id="g1" cx="18%" cy="14%" r="60%"><stop stop-color="#62e6b8" stop-opacity=".48"/><stop offset="1" stop-color="#f8fbff" stop-opacity="0"/></radialGradient>
    <radialGradient id="g2" cx="86%" cy="12%" r="58%"><stop stop-color="#ffdf45" stop-opacity=".42"/><stop offset="1" stop-color="#f8fbff" stop-opacity="0"/></radialGradient>
    <linearGradient id="split" x1="0" x2="1"><stop stop-color="#f8fbff"/><stop offset=".55" stop-color="#f8fbff"/><stop offset=".55" stop-color="#fffdf2"/><stop offset="1" stop-color="#eef8ff"/></linearGradient>
    <filter id="shadow" x="-20%" y="-20%" width="140%" height="140%"><feDropShadow dx="0" dy="22" stdDeviation="22" flood-color="#12213a" flood-opacity=".14"/></filter>
  </defs>
  <rect width="1200" height="675" fill="#f8fbff"/>
  <rect width="1200" height="675" fill="url(#g1)"/>
  <rect width="1200" height="675" fill="url(#g2)"/>
  <g opacity=".9"><circle cx="100" cy="110" r="42" fill="#ffdf45" opacity=".12"/><circle cx="196" cy="228" r="64" fill="#62e6b8" opacity=".12"/><circle cx="292" cy="346" r="86" fill="#ffdf45" opacity=".12"/><circle cx="388" cy="464" r="42" fill="#62e6b8" opacity=".12"/><circle cx="484" cy="110" r="64" fill="#ffdf45" opacity=".12"/><circle cx="580" cy="228" r="86" fill="#62e6b8" opacity=".12"/><circle cx="676" cy="346" r="42" fill="#ffdf45" opacity=".12"/><circle cx="772" cy="464" r="64" fill="#62e6b8" opacity=".12"/><circle cx="868" cy="110" r="86" fill="#ffdf45" opacity=".12"/><circle cx="964" cy="228" r="42" fill="#62e6b8" opacity=".12"/><circle cx="1060" cy="346" r="64" fill="#ffdf45" opacity=".12"/><circle cx="1156" cy="464" r="86" fill="#62e6b8" opacity=".12"/></g>
  <g><line x1="765" y1="235" x2="980" y2="310" stroke="#0f5fa8" stroke-opacity=".13" stroke-width="1.5"/><line x1="980" y1="310" x2="255" y2="385" stroke="#0f5fa8" stroke-opacity=".13" stroke-width="2.5"/><line x1="255" y1="385" x2="470" y2="460" stroke="#0f5fa8" stroke-opacity=".13" stroke-width="3.5"/><line x1="470" y1="460" x2="685" y2="535" stroke="#0f5fa8" stroke-opacity=".13" stroke-width="1.5"/><line x1="685" y1="535" x2="900" y2="170" stroke="#0f5fa8" stroke-opacity=".13" stroke-width="2.5"/><line x1="900" y1="170" x2="175" y2="245" stroke="#0f5fa8" stroke-opacity=".13" stroke-width="3.5"/><line x1="175" y1="245" x2="390" y2="320" stroke="#0f5fa8" stroke-opacity=".13" stroke-width="1.5"/><line x1="390" y1="320" x2="605" y2="395" stroke="#0f5fa8" stroke-opacity=".13" stroke-width="2.5"/><line x1="605" y1="395" x2="820" y2="470" stroke="#0f5fa8" stroke-opacity=".13" stroke-width="3.5"/><circle cx="765" cy="235" r="7" fill="#ffdf45" opacity="0.64"/><circle cx="980" cy="310" r="10" fill="#62e6b8" opacity="0.615"/><circle cx="255" cy="385" r="13" fill="#ffdf45" opacity="0.59"/><circle cx="470" cy="460" r="16" fill="#62e6b8" opacity="0.565"/><circle cx="685" cy="535" r="7" fill="#ffdf45" opacity="0.54"/><circle cx="900" cy="170" r="10" fill="#62e6b8" opacity="0.515"/><circle cx="175" cy="245" r="13" fill="#ffdf45" opacity="0.49"/><circle cx="390" cy="320" r="16" fill="#62e6b8" opacity="0.46499999999999997"/><circle cx="605" cy="395" r="7" fill="#ffdf45" opacity="0.44"/><circle cx="820" cy="470" r="10" fill="#62e6b8" opacity="0.41500000000000004"/></g>
  <g transform="translate(-300 0)"><circle cx="900" cy="316" r="254" fill="#fff" opacity=".38"/><circle cx="900" cy="316" r="176" fill="#ffdf45" opacity=".16"/></g>
  <g transform="translate(-300 0)" filter="url(#shadow)"><g transform="translate(692 112)"><rect x="0" y="0" width="424" height="344" rx="34" fill="#0f5fa8" opacity=".94"/><circle cx="44" cy="42" r="10" fill="#62e6b8"/><circle cx="76" cy="42" r="10" fill="#ffdf45"/><circle cx="108" cy="42" r="10" fill="#fff" opacity=".7"/><path d="m104 168-54 48 54 48M320 168l54 48-54 48M246 122l-70 188" fill="none" stroke="#ffdf45" stroke-width="24" stroke-linecap="round" stroke-linejoin="round"/><rect x="66" y="296" width="292" height="16" rx="8" fill="#62e6b8" opacity=".72"/></g></g>
  <g filter="url(#shadow)" opacity=".82"><circle cx="142" cy="474" r="42" fill="#62e6b8" opacity=".44"/><circle cx="224" cy="506" r="26" fill="#ffdf45" opacity=".5"/><circle cx="304" cy="458" r="18" fill="#0f5fa8" opacity=".16"/></g>
</svg>