<svg xmlns="http://www.w3.org/2000/svg" width="1200" height="675" viewBox="0 0 1200 675" role="img" aria-labelledby="title desc">
  <title id="title">How Many Investors Can Own a Single Tokenized Asset?</title>
  <desc id="desc">Editorial infrastructure visual for Tokenization.</desc>
  <defs>
    <radialGradient id="g1" cx="18%" cy="14%" r="60%"><stop stop-color="#4cb2e0" stop-opacity=".48"/><stop offset="1" stop-color="#f2f7ff" stop-opacity="0"/></radialGradient>
    <radialGradient id="g2" cx="86%" cy="12%" r="58%"><stop stop-color="#ffb84d" stop-opacity=".42"/><stop offset="1" stop-color="#f2f7ff" stop-opacity="0"/></radialGradient>
    <linearGradient id="split" x1="0" x2="1"><stop stop-color="#f2f7ff"/><stop offset=".55" stop-color="#f2f7ff"/><stop offset=".55" stop-color="#fffdf2"/><stop offset="1" stop-color="#eef8ff"/></linearGradient>
    <filter id="shadow" x="-20%" y="-20%" width="140%" height="140%"><feDropShadow dx="0" dy="22" stdDeviation="22" flood-color="#12213a" flood-opacity=".14"/></filter>
  </defs>
  <rect width="1200" height="675" fill="url(#split)"/>
  <rect width="1200" height="675" fill="url(#g1)"/>
  <rect width="1200" height="675" fill="url(#g2)"/>
  <g opacity=".9"><path d="M-120 675  220 0" stroke="#10203d" stroke-opacity=".12" stroke-width="4"/><path d="M18 675  312 0" stroke="#ffb84d" stroke-opacity=".12" stroke-width="5"/><path d="M156 675  404 0" stroke="#10203d" stroke-opacity=".12" stroke-width="6"/><path d="M294 675  496 0" stroke="#ffb84d" stroke-opacity=".12" stroke-width="7"/><path d="M432 675  588 0" stroke="#10203d" stroke-opacity=".12" stroke-width="4"/><path d="M570 675  680 0" stroke="#ffb84d" stroke-opacity=".12" stroke-width="5"/><path d="M708 675  772 0" stroke="#10203d" stroke-opacity=".12" stroke-width="6"/><path d="M846 675  864 0" stroke="#ffb84d" stroke-opacity=".12" stroke-width="7"/><path d="M984 675  956 0" stroke="#10203d" stroke-opacity=".12" stroke-width="4"/><path d="M1122 675  1048 0" stroke="#ffb84d" stroke-opacity=".12" stroke-width="5"/><path d="M1260 675  1140 0" stroke="#10203d" stroke-opacity=".12" stroke-width="6"/></g>
  <g><line x1="194" y1="216" x2="532" y2="414" stroke="#12213a" stroke-opacity=".13" stroke-width="1.5"/><line x1="532" y1="414" x2="870" y2="172" stroke="#12213a" stroke-opacity=".13" stroke-width="2.5"/><line x1="870" y1="172" x2="268" y2="370" stroke="#12213a" stroke-opacity=".13" stroke-width="3.5"/><line x1="268" y1="370" x2="606" y2="568" stroke="#12213a" stroke-opacity=".13" stroke-width="1.5"/><line x1="606" y1="568" x2="944" y2="326" stroke="#12213a" stroke-opacity=".13" stroke-width="2.5"/><line x1="944" y1="326" x2="342" y2="524" stroke="#12213a" stroke-opacity=".13" stroke-width="3.5"/><line x1="342" y1="524" x2="680" y2="282" stroke="#12213a" stroke-opacity=".13" stroke-width="1.5"/><line x1="680" y1="282" x2="1018" y2="480" stroke="#12213a" stroke-opacity=".13" stroke-width="2.5"/><circle cx="194" cy="216" r="7" fill="#ffb84d" opacity="0.64"/><circle cx="532" cy="414" r="10" fill="#4cb2e0" opacity="0.615"/><circle cx="870" cy="172" r="13" fill="#ffb84d" opacity="0.59"/><circle cx="268" cy="370" r="16" fill="#4cb2e0" opacity="0.565"/><circle cx="606" cy="568" r="7" fill="#ffb84d" opacity="0.54"/><circle cx="944" cy="326" r="10" fill="#4cb2e0" opacity="0.515"/><circle cx="342" cy="524" r="13" fill="#ffb84d" opacity="0.49"/><circle cx="680" cy="282" r="16" fill="#4cb2e0" opacity="0.46499999999999997"/><circle cx="1018" cy="480" r="7" fill="#ffb84d" opacity="0.44"/></g>
  <g transform="translate(-300 0)"><circle cx="890" cy="316" r="282" fill="#fff" opacity=".28"/><path d="M618 316h544M890 58v516" stroke="#10203d" stroke-opacity=".08" stroke-width="4"/></g>
  <g transform="translate(-300 0)" filter="url(#shadow)"><g transform="translate(686 132)"><rect x="0" y="0" width="444" height="318" rx="34" fill="rgba(255,255,255,.62)" stroke="#10203d" stroke-opacity=".12"/><path d="M58 240C132 180 160 208 220 126s106-30 166-104" fill="none" stroke="#12213a" stroke-width="24" stroke-linecap="round"/><path d="M58 250h340" stroke="#10203d" stroke-opacity=".18" stroke-width="5"/><rect x="70" y="168" width="42" height="90" rx="12" fill="#4cb2e0" opacity=".86"/><rect x="146" y="118" width="42" height="140" rx="12" fill="#ffb84d" opacity=".86"/><rect x="222" y="72" width="42" height="186" rx="12" fill="#12213a" opacity=".9"/></g></g>
  <g filter="url(#shadow)" opacity=".82"><circle cx="142" cy="474" r="42" fill="#4cb2e0" opacity=".44"/><circle cx="224" cy="506" r="26" fill="#ffb84d" opacity=".5"/><circle cx="304" cy="458" r="18" fill="#12213a" opacity=".16"/></g>
</svg>