<svg xmlns="http://www.w3.org/2000/svg" width="1200" height="675" viewBox="0 0 1200 675" role="img" aria-labelledby="title desc">
  <title id="title">How Often Should I Review My Tokenization Strategy?</title>
  <desc id="desc">Editorial infrastructure visual for Tokenization.</desc>
  <defs>
    <radialGradient id="g1" cx="18%" cy="14%" r="60%"><stop stop-color="#f6c915" stop-opacity=".48"/><stop offset="1" stop-color="#fff7d1" stop-opacity="0"/></radialGradient>
    <radialGradient id="g2" cx="86%" cy="12%" r="58%"><stop stop-color="#63e8ff" stop-opacity=".42"/><stop offset="1" stop-color="#fff7d1" stop-opacity="0"/></radialGradient>
    <linearGradient id="split" x1="0" x2="1"><stop stop-color="#fff7d1"/><stop offset=".55" stop-color="#fff7d1"/><stop offset=".55" stop-color="#eef8ff"/><stop offset="1" stop-color="#fff7d1"/></linearGradient>
    <filter id="shadow" x="-20%" y="-20%" width="140%" height="140%"><feDropShadow dx="0" dy="22" stdDeviation="22" flood-color="#12213a" flood-opacity=".14"/></filter>
  </defs>
  <rect width="1200" height="675" fill="#fff7d1"/>
  <rect width="1200" height="675" fill="url(#g1)"/>
  <rect width="1200" height="675" fill="url(#g2)"/>
  <g opacity=".9"><path d="M0 80C260 20 560 160 1200 60" fill="none" stroke="#0f5fa8" stroke-opacity=".09" stroke-width="2"/><path d="M0 146C260 66 560 184 1200 118" fill="none" stroke="#f6c915" stroke-opacity=".09" stroke-width="3"/><path d="M0 212C260 112 560 208 1200 176" fill="none" stroke="#0f5fa8" stroke-opacity=".09" stroke-width="4"/><path d="M0 278C260 158 560 232 1200 234" fill="none" stroke="#f6c915" stroke-opacity=".09" stroke-width="2"/><path d="M0 344C260 204 560 256 1200 292" fill="none" stroke="#0f5fa8" stroke-opacity=".09" stroke-width="3"/><path d="M0 410C260 250 560 280 1200 350" fill="none" stroke="#f6c915" stroke-opacity=".09" stroke-width="4"/><path d="M0 476C260 296 560 304 1200 408" fill="none" stroke="#0f5fa8" stroke-opacity=".09" stroke-width="2"/><path d="M0 542C260 342 560 328 1200 466" fill="none" stroke="#f6c915" stroke-opacity=".09" stroke-width="3"/><path d="M0 608C260 388 560 352 1200 524" fill="none" stroke="#0f5fa8" stroke-opacity=".09" stroke-width="4"/></g>
  <g><line x1="173" y1="167" x2="504" y2="358" stroke="#0f5fa8" stroke-opacity=".13" stroke-width="1.5"/><line x1="504" y1="358" x2="835" y2="549" stroke="#0f5fa8" stroke-opacity=".13" stroke-width="2.5"/><line x1="835" y1="549" x2="226" y2="300" stroke="#0f5fa8" stroke-opacity=".13" stroke-width="3.5"/><line x1="226" y1="300" x2="557" y2="491" stroke="#0f5fa8" stroke-opacity=".13" stroke-width="1.5"/><line x1="557" y1="491" x2="888" y2="242" stroke="#0f5fa8" stroke-opacity=".13" stroke-width="2.5"/><line x1="888" y1="242" x2="279" y2="433" stroke="#0f5fa8" stroke-opacity=".13" stroke-width="3.5"/><circle cx="173" cy="167" r="7" fill="#63e8ff" opacity="0.64"/><circle cx="504" cy="358" r="10" fill="#f6c915" opacity="0.615"/><circle cx="835" cy="549" r="13" fill="#63e8ff" opacity="0.59"/><circle cx="226" cy="300" r="16" fill="#f6c915" opacity="0.565"/><circle cx="557" cy="491" r="7" fill="#63e8ff" opacity="0.54"/><circle cx="888" cy="242" r="10" fill="#f6c915" opacity="0.515"/><circle cx="279" cy="433" r="13" fill="#63e8ff" opacity="0.49"/></g>
  <g transform="translate(-300 0)"><rect x="628" y="96" width="520" height="420" rx="54" fill="#12213a" opacity=".08"/><rect x="676" y="140" width="424" height="326" rx="38" fill="#fff" opacity=".46"/></g>
  <g transform="translate(-300 0)" filter="url(#shadow)"><g transform="translate(728 100)"><polygon points="190,0 354,94 354,282 190,376 26,282 26,94" fill="#12213a" opacity=".92"/><polygon points="190,54 306,122 306,254 190,322 74,254 74,122" fill="#f6c915" opacity=".78"/><circle cx="190" cy="188" r="78" fill="#63e8ff" opacity=".9"/><path d="M190 120v136M122 188h136" stroke="#12213a" stroke-width="22" stroke-linecap="round"/></g></g>
  <g filter="url(#shadow)" opacity=".82"><circle cx="142" cy="474" r="42" fill="#f6c915" opacity=".44"/><circle cx="224" cy="506" r="26" fill="#63e8ff" opacity=".5"/><circle cx="304" cy="458" r="18" fill="#12213a" opacity=".16"/></g>
</svg>