<svg xmlns="http://www.w3.org/2000/svg" width="1200" height="675" viewBox="0 0 1200 675" role="img" aria-labelledby="title desc">
  <title id="title">How Much Does It Cost to Tokenize an Asset?</title>
  <desc id="desc">Editorial infrastructure visual for Tokenization.</desc>
  <defs>
    <radialGradient id="g1" cx="18%" cy="14%" r="60%"><stop stop-color="#e16ba8" stop-opacity=".48"/><stop offset="1" stop-color="#fff2f7" stop-opacity="0"/></radialGradient>
    <radialGradient id="g2" cx="86%" cy="12%" r="58%"><stop stop-color="#ffe36e" stop-opacity=".42"/><stop offset="1" stop-color="#fff2f7" stop-opacity="0"/></radialGradient>
    <linearGradient id="split" x1="0" x2="1"><stop stop-color="#fff2f7"/><stop offset=".55" stop-color="#fff2f7"/><stop offset=".55" stop-color="#eef8ff"/><stop offset="1" stop-color="#fff7d1"/></linearGradient>
    <filter id="shadow" x="-20%" y="-20%" width="140%" height="140%"><feDropShadow dx="0" dy="22" stdDeviation="22" flood-color="#12213a" flood-opacity=".14"/></filter>
  </defs>
  <rect width="1200" height="675" fill="#fff2f7"/>
  <rect width="1200" height="675" fill="url(#g1)"/>
  <rect width="1200" height="675" fill="url(#g2)"/>
  <g opacity=".9"><path d="M-80 0V675" stroke="#351528" stroke-opacity=".055"/><path d="M6 0V675" stroke="#351528" stroke-opacity=".055"/><path d="M92 0V675" stroke="#351528" stroke-opacity=".055"/><path d="M178 0V675" stroke="#351528" stroke-opacity=".055"/><path d="M264 0V675" stroke="#351528" stroke-opacity=".055"/><path d="M350 0V675" stroke="#351528" stroke-opacity=".055"/><path d="M436 0V675" stroke="#351528" stroke-opacity=".055"/><path d="M522 0V675" stroke="#351528" stroke-opacity=".055"/><path d="M608 0V675" stroke="#351528" stroke-opacity=".055"/><path d="M694 0V675" stroke="#351528" stroke-opacity=".055"/><path d="M780 0V675" stroke="#351528" stroke-opacity=".055"/><path d="M866 0V675" stroke="#351528" stroke-opacity=".055"/><path d="M952 0V675" stroke="#351528" stroke-opacity=".055"/><path d="M1038 0V675" stroke="#351528" stroke-opacity=".055"/><path d="M1124 0V675" stroke="#351528" stroke-opacity=".055"/><path d="M1210 0V675" stroke="#351528" stroke-opacity=".055"/><path d="M1296 0V675" stroke="#351528" stroke-opacity=".055"/><path d="M1382 0V675" stroke="#351528" stroke-opacity=".055"/><path d="M0 0H1200" stroke="#351528" stroke-opacity=".045"/><path d="M0 74H1200" stroke="#351528" stroke-opacity=".045"/><path d="M0 148H1200" stroke="#351528" stroke-opacity=".045"/><path d="M0 222H1200" stroke="#351528" stroke-opacity=".045"/><path d="M0 296H1200" stroke="#351528" stroke-opacity=".045"/><path d="M0 370H1200" stroke="#351528" stroke-opacity=".045"/><path d="M0 444H1200" stroke="#351528" stroke-opacity=".045"/><path d="M0 518H1200" stroke="#351528" stroke-opacity=".045"/><path d="M0 592H1200" stroke="#351528" stroke-opacity=".045"/><path d="M0 666H1200" stroke="#351528" stroke-opacity=".045"/></g>
  <g><line x1="1029" y1="431" x2="392" y2="534" stroke="#351528" stroke-opacity=".13" stroke-width="1.5"/><line x1="392" y1="534" x2="695" y2="197" stroke="#351528" stroke-opacity=".13" stroke-width="2.5"/><line x1="695" y1="197" x2="998" y2="300" stroke="#351528" stroke-opacity=".13" stroke-width="3.5"/><line x1="998" y1="300" x2="361" y2="403" stroke="#351528" stroke-opacity=".13" stroke-width="1.5"/><line x1="361" y1="403" x2="664" y2="506" stroke="#351528" stroke-opacity=".13" stroke-width="2.5"/><line x1="664" y1="506" x2="967" y2="169" stroke="#351528" stroke-opacity=".13" stroke-width="3.5"/><line x1="967" y1="169" x2="330" y2="272" stroke="#351528" stroke-opacity=".13" stroke-width="1.5"/><line x1="330" y1="272" x2="633" y2="375" stroke="#351528" stroke-opacity=".13" stroke-width="2.5"/><line x1="633" y1="375" x2="936" y2="478" stroke="#351528" stroke-opacity=".13" stroke-width="3.5"/><circle cx="1029" cy="431" r="7" fill="#ffe36e" opacity="0.64"/><circle cx="392" cy="534" r="10" fill="#e16ba8" opacity="0.615"/><circle cx="695" cy="197" r="13" fill="#ffe36e" opacity="0.59"/><circle cx="998" cy="300" r="16" fill="#e16ba8" opacity="0.565"/><circle cx="361" cy="403" r="7" fill="#ffe36e" opacity="0.54"/><circle cx="664" cy="506" r="10" fill="#e16ba8" opacity="0.515"/><circle cx="967" cy="169" r="13" fill="#ffe36e" opacity="0.49"/><circle cx="330" cy="272" r="16" fill="#e16ba8" opacity="0.46499999999999997"/><circle cx="633" cy="375" r="7" fill="#ffe36e" opacity="0.44"/><circle cx="936" cy="478" r="10" fill="#e16ba8" opacity="0.41500000000000004"/></g>
  <g transform="translate(-300 0)"><rect x="660" y="72" width="486" height="510" rx="44" fill="#fff" opacity=".52" stroke="#351528" stroke-opacity=".08"/></g>
  <g transform="translate(-300 0)" filter="url(#shadow)"><g transform="translate(724 116)"><polygon points="160,0 306,82 160,164 14,82" fill="#ffe36e" opacity=".8"/><polygon points="14,82 160,164 160,314 14,230" fill="#164b7a" opacity=".92"/><polygon points="306,82 160,164 160,314 306,230" fill="#e16ba8" opacity=".82"/><polygon points="250,136 396,218 250,300 104,218" fill="#fff" opacity=".55"/><polygon points="104,218 250,300 250,390 104,308" fill="#351528" opacity=".65"/><polygon points="396,218 250,300 250,390 396,308" fill="#ffe36e" opacity=".58"/></g></g>
  <g filter="url(#shadow)" opacity=".82"><circle cx="142" cy="474" r="42" fill="#e16ba8" opacity=".44"/><circle cx="224" cy="506" r="26" fill="#ffe36e" opacity=".5"/><circle cx="304" cy="458" r="18" fill="#164b7a" opacity=".16"/></g>
</svg>