<svg xmlns="http://www.w3.org/2000/svg" width="1200" height="675" viewBox="0 0 1200 675" role="img" aria-labelledby="title desc">
  <title id="title">How to Find Web3 Vendors Without Wasting Months on Research</title>
  <desc id="desc">Editorial infrastructure visual for Vendor Discovery.</desc>
  <defs>
    <radialGradient id="g1" cx="18%" cy="14%" r="60%"><stop stop-color="#38d9f2" stop-opacity=".48"/><stop offset="1" stop-color="#fffdf2" stop-opacity="0"/></radialGradient>
    <radialGradient id="g2" cx="86%" cy="12%" r="58%"><stop stop-color="#f6c915" stop-opacity=".42"/><stop offset="1" stop-color="#fffdf2" stop-opacity="0"/></radialGradient>
    <linearGradient id="split" x1="0" x2="1"><stop stop-color="#fffdf2"/><stop offset=".55" stop-color="#fffdf2"/><stop offset=".55" stop-color="#eef8ff"/><stop offset="1" stop-color="#fff7d1"/></linearGradient>
    <filter id="shadow" x="-20%" y="-20%" width="140%" height="140%"><feDropShadow dx="0" dy="22" stdDeviation="22" flood-color="#12213a" flood-opacity=".14"/></filter>
  </defs>
  <rect width="1200" height="675" fill="#fffdf2"/>
  <rect width="1200" height="675" fill="url(#g1)"/>
  <rect width="1200" height="675" fill="url(#g2)"/>
  <g opacity=".9"><path d="M80 80l38 22v44l-38 22-38-22v-44z" fill="none" stroke="#164b7a" stroke-opacity=".12" stroke-width="3"/><path d="M158 80l38 22v44l-38 22-38-22v-44z" fill="none" stroke="#38d9f2" stroke-opacity=".12" stroke-width="3"/><path d="M236 80l38 22v44l-38 22-38-22v-44z" fill="none" stroke="#164b7a" stroke-opacity=".12" stroke-width="3"/><path d="M314 80l38 22v44l-38 22-38-22v-44z" fill="none" stroke="#38d9f2" stroke-opacity=".12" stroke-width="3"/><path d="M392 80l38 22v44l-38 22-38-22v-44z" fill="none" stroke="#164b7a" stroke-opacity=".12" stroke-width="3"/><path d="M470 80l38 22v44l-38 22-38-22v-44z" fill="none" stroke="#38d9f2" stroke-opacity=".12" stroke-width="3"/><path d="M548 80l38 22v44l-38 22-38-22v-44z" fill="none" stroke="#164b7a" stroke-opacity=".12" stroke-width="3"/><path d="M626 80l38 22v44l-38 22-38-22v-44z" fill="none" stroke="#38d9f2" stroke-opacity=".12" stroke-width="3"/><path d="M704 80l38 22v44l-38 22-38-22v-44z" fill="none" stroke="#164b7a" stroke-opacity=".12" stroke-width="3"/><path d="M782 80l38 22v44l-38 22-38-22v-44z" fill="none" stroke="#38d9f2" stroke-opacity=".12" stroke-width="3"/><path d="M860 80l38 22v44l-38 22-38-22v-44z" fill="none" stroke="#164b7a" stroke-opacity=".12" stroke-width="3"/><path d="M938 80l38 22v44l-38 22-38-22v-44z" fill="none" stroke="#38d9f2" stroke-opacity=".12" stroke-width="3"/><path d="M1016 80l38 22v44l-38 22-38-22v-44z" fill="none" stroke="#164b7a" stroke-opacity=".12" stroke-width="3"/><path d="M1094 80l38 22v44l-38 22-38-22v-44z" fill="none" stroke="#38d9f2" stroke-opacity=".12" stroke-width="3"/></g>
  <g><line x1="428" y1="382" x2="844" y2="478" stroke="#164b7a" stroke-opacity=".13" stroke-width="1.5"/><line x1="844" y1="478" x2="320" y2="574" stroke="#164b7a" stroke-opacity=".13" stroke-width="2.5"/><line x1="320" y1="574" x2="736" y2="230" stroke="#164b7a" stroke-opacity=".13" stroke-width="3.5"/><line x1="736" y1="230" x2="212" y2="326" stroke="#164b7a" stroke-opacity=".13" stroke-width="1.5"/><line x1="212" y1="326" x2="628" y2="422" stroke="#164b7a" stroke-opacity=".13" stroke-width="2.5"/><line x1="628" y1="422" x2="1044" y2="518" stroke="#164b7a" stroke-opacity=".13" stroke-width="3.5"/><line x1="1044" y1="518" x2="520" y2="174" stroke="#164b7a" stroke-opacity=".13" stroke-width="1.5"/><line x1="520" y1="174" x2="936" y2="270" stroke="#164b7a" stroke-opacity=".13" stroke-width="2.5"/><circle cx="428" cy="382" r="7" fill="#f6c915" opacity="0.64"/><circle cx="844" cy="478" r="10" fill="#38d9f2" opacity="0.615"/><circle cx="320" cy="574" r="13" fill="#f6c915" opacity="0.59"/><circle cx="736" cy="230" r="16" fill="#38d9f2" opacity="0.565"/><circle cx="212" cy="326" r="7" fill="#f6c915" opacity="0.54"/><circle cx="628" cy="422" r="10" fill="#38d9f2" opacity="0.515"/><circle cx="1044" cy="518" r="13" fill="#f6c915" opacity="0.49"/><circle cx="520" cy="174" r="16" fill="#38d9f2" opacity="0.46499999999999997"/><circle cx="936" cy="270" r="7" fill="#f6c915" opacity="0.44"/></g>
  <g transform="translate(-300 0)"><rect x="640" y="86" width="492" height="438" rx="40" fill="#fff" opacity=".44"/><path d="M690 524h392" stroke="#172033" stroke-opacity=".18" stroke-width="14" stroke-linecap="round"/></g>
  <g transform="translate(-300 0)" filter="url(#shadow)"><g transform="translate(700 96)"><circle cx="208" cy="208" r="178" fill="#172033" opacity=".92"/><circle cx="208" cy="208" r="130" fill="#38d9f2" opacity=".55"/><path d="M50 208h316M208 32c-76 68-76 284 0 352M208 32c76 68 76 284 0 352" fill="none" stroke="#f6c915" stroke-width="14" stroke-linecap="round" opacity=".82"/><circle cx="300" cy="146" r="20" fill="#fff" opacity=".86"/><circle cx="142" cy="270" r="17" fill="#f6c915"/></g></g>
  <g filter="url(#shadow)" opacity=".82"><circle cx="142" cy="474" r="42" fill="#38d9f2" opacity=".44"/><circle cx="224" cy="506" r="26" fill="#f6c915" opacity=".5"/><circle cx="304" cy="458" r="18" fill="#172033" opacity=".16"/></g>
</svg>