<svg xmlns="http://www.w3.org/2000/svg" width="1200" height="675" viewBox="0 0 1200 675" role="img" aria-labelledby="title desc">
  <title id="title">How Do Investors Buy Tokenized Assets?</title>
  <desc id="desc">Editorial infrastructure visual for Tokenization.</desc>
  <defs>
    <radialGradient id="g1" cx="18%" cy="14%" r="60%"><stop stop-color="#38d9f2" stop-opacity=".48"/><stop offset="1" stop-color="#fffdf2" stop-opacity="0"/></radialGradient>
    <radialGradient id="g2" cx="86%" cy="12%" r="58%"><stop stop-color="#f6c915" stop-opacity=".42"/><stop offset="1" stop-color="#fffdf2" stop-opacity="0"/></radialGradient>
    <linearGradient id="split" x1="0" x2="1"><stop stop-color="#fffdf2"/><stop offset=".55" stop-color="#fffdf2"/><stop offset=".55" stop-color="#eef8ff"/><stop offset="1" stop-color="#fff7d1"/></linearGradient>
    <filter id="shadow" x="-20%" y="-20%" width="140%" height="140%"><feDropShadow dx="0" dy="22" stdDeviation="22" flood-color="#12213a" flood-opacity=".14"/></filter>
  </defs>
  <rect width="1200" height="675" fill="#fffdf2"/>
  <rect width="1200" height="675" fill="url(#g1)"/>
  <rect width="1200" height="675" fill="url(#g2)"/>
  <g opacity=".9"><path d="M-80 0V675" stroke="#164b7a" stroke-opacity=".055"/><path d="M6 0V675" stroke="#164b7a" stroke-opacity=".055"/><path d="M92 0V675" stroke="#164b7a" stroke-opacity=".055"/><path d="M178 0V675" stroke="#164b7a" stroke-opacity=".055"/><path d="M264 0V675" stroke="#164b7a" stroke-opacity=".055"/><path d="M350 0V675" stroke="#164b7a" stroke-opacity=".055"/><path d="M436 0V675" stroke="#164b7a" stroke-opacity=".055"/><path d="M522 0V675" stroke="#164b7a" stroke-opacity=".055"/><path d="M608 0V675" stroke="#164b7a" stroke-opacity=".055"/><path d="M694 0V675" stroke="#164b7a" stroke-opacity=".055"/><path d="M780 0V675" stroke="#164b7a" stroke-opacity=".055"/><path d="M866 0V675" stroke="#164b7a" stroke-opacity=".055"/><path d="M952 0V675" stroke="#164b7a" stroke-opacity=".055"/><path d="M1038 0V675" stroke="#164b7a" stroke-opacity=".055"/><path d="M1124 0V675" stroke="#164b7a" stroke-opacity=".055"/><path d="M1210 0V675" stroke="#164b7a" stroke-opacity=".055"/><path d="M1296 0V675" stroke="#164b7a" stroke-opacity=".055"/><path d="M1382 0V675" stroke="#164b7a" stroke-opacity=".055"/><path d="M0 0H1200" stroke="#164b7a" stroke-opacity=".045"/><path d="M0 74H1200" stroke="#164b7a" stroke-opacity=".045"/><path d="M0 148H1200" stroke="#164b7a" stroke-opacity=".045"/><path d="M0 222H1200" stroke="#164b7a" stroke-opacity=".045"/><path d="M0 296H1200" stroke="#164b7a" stroke-opacity=".045"/><path d="M0 370H1200" stroke="#164b7a" stroke-opacity=".045"/><path d="M0 444H1200" stroke="#164b7a" stroke-opacity=".045"/><path d="M0 518H1200" stroke="#164b7a" stroke-opacity=".045"/><path d="M0 592H1200" stroke="#164b7a" stroke-opacity=".045"/><path d="M0 666H1200" stroke="#164b7a" stroke-opacity=".045"/></g>
  <g><line x1="1009" y1="391" x2="992" y2="174" stroke="#164b7a" stroke-opacity=".13" stroke-width="1.5"/><line x1="992" y1="174" x2="975" y2="397" stroke="#164b7a" stroke-opacity=".13" stroke-width="2.5"/><line x1="975" y1="397" x2="958" y2="180" stroke="#164b7a" stroke-opacity=".13" stroke-width="3.5"/><line x1="958" y1="180" x2="941" y2="403" stroke="#164b7a" stroke-opacity=".13" stroke-width="1.5"/><line x1="941" y1="403" x2="924" y2="186" stroke="#164b7a" stroke-opacity=".13" stroke-width="2.5"/><line x1="924" y1="186" x2="907" y2="409" stroke="#164b7a" stroke-opacity=".13" stroke-width="3.5"/><line x1="907" y1="409" x2="890" y2="192" stroke="#164b7a" stroke-opacity=".13" stroke-width="1.5"/><line x1="890" y1="192" x2="873" y2="415" stroke="#164b7a" stroke-opacity=".13" stroke-width="2.5"/><circle cx="1009" cy="391" r="7" fill="#f6c915" opacity="0.64"/><circle cx="992" cy="174" r="10" fill="#38d9f2" opacity="0.615"/><circle cx="975" cy="397" r="13" fill="#f6c915" opacity="0.59"/><circle cx="958" cy="180" r="16" fill="#38d9f2" opacity="0.565"/><circle cx="941" cy="403" r="7" fill="#f6c915" opacity="0.54"/><circle cx="924" cy="186" r="10" fill="#38d9f2" opacity="0.515"/><circle cx="907" cy="409" r="13" fill="#f6c915" opacity="0.49"/><circle cx="890" cy="192" r="16" fill="#38d9f2" opacity="0.46499999999999997"/><circle cx="873" cy="415" r="7" fill="#f6c915" opacity="0.44"/></g>
  <g transform="translate(-300 0)"><rect x="660" y="72" width="486" height="510" rx="44" fill="#fff" opacity=".52" stroke="#164b7a" stroke-opacity=".08"/></g>
  <g transform="translate(-300 0)" filter="url(#shadow)"><g transform="translate(686 132)"><rect x="0" y="0" width="444" height="318" rx="34" fill="rgba(255,255,255,.62)" stroke="#164b7a" stroke-opacity=".12"/><path d="M58 240C132 180 160 208 220 126s106-30 166-104" fill="none" stroke="#172033" stroke-width="24" stroke-linecap="round"/><path d="M58 250h340" stroke="#164b7a" stroke-opacity=".18" stroke-width="5"/><rect x="70" y="168" width="42" height="90" rx="12" fill="#38d9f2" opacity=".86"/><rect x="146" y="118" width="42" height="140" rx="12" fill="#f6c915" opacity=".86"/><rect x="222" y="72" width="42" height="186" rx="12" fill="#172033" opacity=".9"/></g></g>
  <g filter="url(#shadow)" opacity=".82"><circle cx="142" cy="474" r="42" fill="#38d9f2" opacity=".44"/><circle cx="224" cy="506" r="26" fill="#f6c915" opacity=".5"/><circle cx="304" cy="458" r="18" fill="#172033" opacity=".16"/></g>
</svg>