<svg xmlns="http://www.w3.org/2000/svg" width="1200" height="675" viewBox="0 0 1200 675" role="img" aria-labelledby="title desc">
  <title id="title">How Do I Choose the Right Tokenization Platform?</title>
  <desc id="desc">Editorial infrastructure visual for Tokenization.</desc>
  <defs>
    <radialGradient id="g1" cx="18%" cy="14%" r="60%"><stop stop-color="#f6c915" stop-opacity=".48"/><stop offset="1" stop-color="#fff7d1" stop-opacity="0"/></radialGradient>
    <radialGradient id="g2" cx="86%" cy="12%" r="58%"><stop stop-color="#63e8ff" stop-opacity=".42"/><stop offset="1" stop-color="#fff7d1" stop-opacity="0"/></radialGradient>
    <linearGradient id="split" x1="0" x2="1"><stop stop-color="#fff7d1"/><stop offset=".55" stop-color="#fff7d1"/><stop offset=".55" stop-color="#eef8ff"/><stop offset="1" stop-color="#fff7d1"/></linearGradient>
    <filter id="shadow" x="-20%" y="-20%" width="140%" height="140%"><feDropShadow dx="0" dy="22" stdDeviation="22" flood-color="#12213a" flood-opacity=".14"/></filter>
  </defs>
  <rect width="1200" height="675" fill="#fff7d1"/>
  <rect width="1200" height="675" fill="url(#g1)"/>
  <rect width="1200" height="675" fill="url(#g2)"/>
  <g opacity=".9"><path d="M80 80l38 22v44l-38 22-38-22v-44z" fill="none" stroke="#0f5fa8" stroke-opacity=".12" stroke-width="3"/><path d="M158 80l38 22v44l-38 22-38-22v-44z" fill="none" stroke="#f6c915" stroke-opacity=".12" stroke-width="3"/><path d="M236 80l38 22v44l-38 22-38-22v-44z" fill="none" stroke="#0f5fa8" stroke-opacity=".12" stroke-width="3"/><path d="M314 80l38 22v44l-38 22-38-22v-44z" fill="none" stroke="#f6c915" stroke-opacity=".12" stroke-width="3"/><path d="M392 80l38 22v44l-38 22-38-22v-44z" fill="none" stroke="#0f5fa8" stroke-opacity=".12" stroke-width="3"/><path d="M470 80l38 22v44l-38 22-38-22v-44z" fill="none" stroke="#f6c915" stroke-opacity=".12" stroke-width="3"/><path d="M548 80l38 22v44l-38 22-38-22v-44z" fill="none" stroke="#0f5fa8" stroke-opacity=".12" stroke-width="3"/><path d="M626 80l38 22v44l-38 22-38-22v-44z" fill="none" stroke="#f6c915" stroke-opacity=".12" stroke-width="3"/><path d="M704 80l38 22v44l-38 22-38-22v-44z" fill="none" stroke="#0f5fa8" stroke-opacity=".12" stroke-width="3"/><path d="M782 80l38 22v44l-38 22-38-22v-44z" fill="none" stroke="#f6c915" stroke-opacity=".12" stroke-width="3"/><path d="M860 80l38 22v44l-38 22-38-22v-44z" fill="none" stroke="#0f5fa8" stroke-opacity=".12" stroke-width="3"/><path d="M938 80l38 22v44l-38 22-38-22v-44z" fill="none" stroke="#f6c915" stroke-opacity=".12" stroke-width="3"/><path d="M1016 80l38 22v44l-38 22-38-22v-44z" fill="none" stroke="#0f5fa8" stroke-opacity=".12" stroke-width="3"/><path d="M1094 80l38 22v44l-38 22-38-22v-44z" fill="none" stroke="#f6c915" stroke-opacity=".12" stroke-width="3"/></g>
  <g><line x1="907" y1="573" x2="856" y2="382" stroke="#0f5fa8" stroke-opacity=".13" stroke-width="1.5"/><line x1="856" y1="382" x2="805" y2="191" stroke="#0f5fa8" stroke-opacity=".13" stroke-width="2.5"/><line x1="805" y1="191" x2="754" y2="440" stroke="#0f5fa8" stroke-opacity=".13" stroke-width="3.5"/><line x1="754" y1="440" x2="703" y2="249" stroke="#0f5fa8" stroke-opacity=".13" stroke-width="1.5"/><line x1="703" y1="249" x2="652" y2="498" stroke="#0f5fa8" stroke-opacity=".13" stroke-width="2.5"/><line x1="652" y1="498" x2="601" y2="307" stroke="#0f5fa8" stroke-opacity=".13" stroke-width="3.5"/><circle cx="907" cy="573" r="7" fill="#63e8ff" opacity="0.64"/><circle cx="856" cy="382" r="10" fill="#f6c915" opacity="0.615"/><circle cx="805" cy="191" r="13" fill="#63e8ff" opacity="0.59"/><circle cx="754" cy="440" r="16" fill="#f6c915" opacity="0.565"/><circle cx="703" cy="249" r="7" fill="#63e8ff" opacity="0.54"/><circle cx="652" cy="498" r="10" fill="#f6c915" opacity="0.515"/><circle cx="601" cy="307" r="13" fill="#63e8ff" opacity="0.49"/></g>
  <g transform="translate(-300 0)"><rect x="640" y="86" width="492" height="438" rx="40" fill="#fff" opacity=".44"/><path d="M690 524h392" stroke="#12213a" stroke-opacity=".18" stroke-width="14" stroke-linecap="round"/></g>
  <g transform="translate(-300 0)" filter="url(#shadow)"><g transform="translate(728 100)"><polygon points="190,0 354,94 354,282 190,376 26,282 26,94" fill="#12213a" opacity=".92"/><polygon points="190,54 306,122 306,254 190,322 74,254 74,122" fill="#f6c915" opacity=".78"/><circle cx="190" cy="188" r="78" fill="#63e8ff" opacity=".9"/><path d="M190 120v136M122 188h136" stroke="#12213a" stroke-width="22" stroke-linecap="round"/></g></g>
  <g filter="url(#shadow)" opacity=".82"><circle cx="142" cy="474" r="42" fill="#f6c915" opacity=".44"/><circle cx="224" cy="506" r="26" fill="#63e8ff" opacity=".5"/><circle cx="304" cy="458" r="18" fill="#12213a" opacity=".16"/></g>
</svg>