<svg xmlns="http://www.w3.org/2000/svg" width="1200" height="675" viewBox="0 0 1200 675" role="img" aria-labelledby="title desc">
  <title id="title">How Does Tokenization Compare to Equity Crowdfunding?</title>
  <desc id="desc">Editorial infrastructure visual for Tokenization.</desc>
  <defs>
    <radialGradient id="g1" cx="18%" cy="14%" r="60%"><stop stop-color="#25a074" stop-opacity=".48"/><stop offset="1" stop-color="#effaf6" stop-opacity="0"/></radialGradient>
    <radialGradient id="g2" cx="86%" cy="12%" r="58%"><stop stop-color="#4cb2e0" stop-opacity=".42"/><stop offset="1" stop-color="#effaf6" stop-opacity="0"/></radialGradient>
    <linearGradient id="split" x1="0" x2="1"><stop stop-color="#effaf6"/><stop offset=".55" stop-color="#effaf6"/><stop offset=".55" stop-color="#fffdf2"/><stop offset="1" stop-color="#eef8ff"/></linearGradient>
    <filter id="shadow" x="-20%" y="-20%" width="140%" height="140%"><feDropShadow dx="0" dy="22" stdDeviation="22" flood-color="#12213a" flood-opacity=".14"/></filter>
  </defs>
  <rect width="1200" height="675" fill="#effaf6"/>
  <rect width="1200" height="675" fill="url(#g1)"/>
  <rect width="1200" height="675" fill="url(#g2)"/>
  <g opacity=".9"><rect x="70" y="64" width="72" height="72" rx="20" fill="#25a074" opacity=".13" transform="rotate(-8 100 90)"/><rect x="202" y="214" width="100" height="114" rx="20" fill="#4cb2e0" opacity=".13" transform="rotate(8 232 240)"/><rect x="334" y="364" width="128" height="72" rx="20" fill="#25a074" opacity=".13" transform="rotate(-8 364 390)"/><rect x="466" y="64" width="156" height="114" rx="20" fill="#4cb2e0" opacity=".13" transform="rotate(8 496 90)"/><rect x="598" y="214" width="72" height="72" rx="20" fill="#25a074" opacity=".13" transform="rotate(-8 628 240)"/><rect x="730" y="364" width="100" height="114" rx="20" fill="#4cb2e0" opacity=".13" transform="rotate(8 760 390)"/><rect x="862" y="64" width="128" height="72" rx="20" fill="#25a074" opacity=".13" transform="rotate(-8 892 90)"/><rect x="994" y="214" width="156" height="114" rx="20" fill="#4cb2e0" opacity=".13" transform="rotate(8 1024 240)"/></g>
  <g><line x1="905" y1="555" x2="540" y2="550" stroke="#172033" stroke-opacity=".13" stroke-width="1.5"/><line x1="540" y1="550" x2="175" y2="545" stroke="#172033" stroke-opacity=".13" stroke-width="2.5"/><line x1="175" y1="545" x2="750" y2="540" stroke="#172033" stroke-opacity=".13" stroke-width="3.5"/><line x1="750" y1="540" x2="385" y2="535" stroke="#172033" stroke-opacity=".13" stroke-width="1.5"/><line x1="385" y1="535" x2="960" y2="530" stroke="#172033" stroke-opacity=".13" stroke-width="2.5"/><line x1="960" y1="530" x2="595" y2="525" stroke="#172033" stroke-opacity=".13" stroke-width="3.5"/><circle cx="905" cy="555" r="7" fill="#4cb2e0" opacity="0.64"/><circle cx="540" cy="550" r="10" fill="#25a074" opacity="0.615"/><circle cx="175" cy="545" r="13" fill="#4cb2e0" opacity="0.59"/><circle cx="750" cy="540" r="16" fill="#25a074" opacity="0.565"/><circle cx="385" cy="535" r="7" fill="#4cb2e0" opacity="0.54"/><circle cx="960" cy="530" r="10" fill="#25a074" opacity="0.515"/><circle cx="595" cy="525" r="13" fill="#4cb2e0" opacity="0.49"/></g>
  <g transform="translate(-300 0)"><path d="M630 132C770 48 1014 72 1130 210c108 128 8 302-150 356-184 62-396-12-432-178-22-104 6-210 82-256Z" fill="#fff" opacity=".42"/></g>
  <g transform="translate(-300 0)" filter="url(#shadow)"><g transform="translate(686 132)"><rect x="0" y="0" width="444" height="318" rx="34" fill="rgba(255,255,255,.62)" stroke="#12392f" stroke-opacity=".12"/><path d="M58 240C132 180 160 208 220 126s106-30 166-104" fill="none" stroke="#172033" stroke-width="24" stroke-linecap="round"/><path d="M58 250h340" stroke="#12392f" stroke-opacity=".18" stroke-width="5"/><rect x="70" y="168" width="42" height="90" rx="12" fill="#25a074" opacity=".86"/><rect x="146" y="118" width="42" height="140" rx="12" fill="#4cb2e0" opacity=".86"/><rect x="222" y="72" width="42" height="186" rx="12" fill="#172033" opacity=".9"/></g></g>
  <g filter="url(#shadow)" opacity=".82"><circle cx="142" cy="474" r="42" fill="#25a074" opacity=".44"/><circle cx="224" cy="506" r="26" fill="#4cb2e0" opacity=".5"/><circle cx="304" cy="458" r="18" fill="#172033" opacity=".16"/></g>
</svg>