<svg xmlns="http://www.w3.org/2000/svg" width="1200" height="675" viewBox="0 0 1200 675" role="img" aria-labelledby="title desc">
  <title id="title">Is Tokenization Really the Future of Investing?</title>
  <desc id="desc">Editorial infrastructure visual for Tokenization.</desc>
  <defs>
    <radialGradient id="g1" cx="18%" cy="14%" r="60%"><stop stop-color="#d49b12" stop-opacity=".48"/><stop offset="1" stop-color="#fff4e8" stop-opacity="0"/></radialGradient>
    <radialGradient id="g2" cx="86%" cy="12%" r="58%"><stop stop-color="#3f8cff" stop-opacity=".42"/><stop offset="1" stop-color="#fff4e8" stop-opacity="0"/></radialGradient>
    <linearGradient id="split" x1="0" x2="1"><stop stop-color="#fff4e8"/><stop offset=".55" stop-color="#fff4e8"/><stop offset=".55" stop-color="#eef8ff"/><stop offset="1" stop-color="#fff7d1"/></linearGradient>
    <filter id="shadow" x="-20%" y="-20%" width="140%" height="140%"><feDropShadow dx="0" dy="22" stdDeviation="22" flood-color="#12213a" flood-opacity=".14"/></filter>
  </defs>
  <rect width="1200" height="675" fill="#fff4e8"/>
  <rect width="1200" height="675" fill="url(#g1)"/>
  <rect width="1200" height="675" fill="url(#g2)"/>
  <g opacity=".9"><path d="M-80 0V675" stroke="#172033" stroke-opacity=".055"/><path d="M6 0V675" stroke="#172033" stroke-opacity=".055"/><path d="M92 0V675" stroke="#172033" stroke-opacity=".055"/><path d="M178 0V675" stroke="#172033" stroke-opacity=".055"/><path d="M264 0V675" stroke="#172033" stroke-opacity=".055"/><path d="M350 0V675" stroke="#172033" stroke-opacity=".055"/><path d="M436 0V675" stroke="#172033" stroke-opacity=".055"/><path d="M522 0V675" stroke="#172033" stroke-opacity=".055"/><path d="M608 0V675" stroke="#172033" stroke-opacity=".055"/><path d="M694 0V675" stroke="#172033" stroke-opacity=".055"/><path d="M780 0V675" stroke="#172033" stroke-opacity=".055"/><path d="M866 0V675" stroke="#172033" stroke-opacity=".055"/><path d="M952 0V675" stroke="#172033" stroke-opacity=".055"/><path d="M1038 0V675" stroke="#172033" stroke-opacity=".055"/><path d="M1124 0V675" stroke="#172033" stroke-opacity=".055"/><path d="M1210 0V675" stroke="#172033" stroke-opacity=".055"/><path d="M1296 0V675" stroke="#172033" stroke-opacity=".055"/><path d="M1382 0V675" stroke="#172033" stroke-opacity=".055"/><path d="M0 0H1200" stroke="#172033" stroke-opacity=".045"/><path d="M0 74H1200" stroke="#172033" stroke-opacity=".045"/><path d="M0 148H1200" stroke="#172033" stroke-opacity=".045"/><path d="M0 222H1200" stroke="#172033" stroke-opacity=".045"/><path d="M0 296H1200" stroke="#172033" stroke-opacity=".045"/><path d="M0 370H1200" stroke="#172033" stroke-opacity=".045"/><path d="M0 444H1200" stroke="#172033" stroke-opacity=".045"/><path d="M0 518H1200" stroke="#172033" stroke-opacity=".045"/><path d="M0 592H1200" stroke="#172033" stroke-opacity=".045"/><path d="M0 666H1200" stroke="#172033" stroke-opacity=".045"/></g>
  <g><line x1="862" y1="468" x2="796" y2="262" stroke="#172033" stroke-opacity=".13" stroke-width="1.5"/><line x1="796" y1="262" x2="730" y2="496" stroke="#172033" stroke-opacity=".13" stroke-width="2.5"/><line x1="730" y1="496" x2="664" y2="290" stroke="#172033" stroke-opacity=".13" stroke-width="3.5"/><line x1="664" y1="290" x2="598" y2="524" stroke="#172033" stroke-opacity=".13" stroke-width="1.5"/><line x1="598" y1="524" x2="532" y2="318" stroke="#172033" stroke-opacity=".13" stroke-width="2.5"/><line x1="532" y1="318" x2="466" y2="552" stroke="#172033" stroke-opacity=".13" stroke-width="3.5"/><line x1="466" y1="552" x2="400" y2="346" stroke="#172033" stroke-opacity=".13" stroke-width="1.5"/><line x1="400" y1="346" x2="334" y2="580" stroke="#172033" stroke-opacity=".13" stroke-width="2.5"/><line x1="334" y1="580" x2="268" y2="374" stroke="#172033" stroke-opacity=".13" stroke-width="3.5"/><line x1="268" y1="374" x2="202" y2="168" stroke="#172033" stroke-opacity=".13" stroke-width="1.5"/><circle cx="862" cy="468" r="7" fill="#3f8cff" opacity="0.64"/><circle cx="796" cy="262" r="10" fill="#d49b12" opacity="0.615"/><circle cx="730" cy="496" r="13" fill="#3f8cff" opacity="0.59"/><circle cx="664" cy="290" r="16" fill="#d49b12" opacity="0.565"/><circle cx="598" cy="524" r="7" fill="#3f8cff" opacity="0.54"/><circle cx="532" cy="318" r="10" fill="#d49b12" opacity="0.515"/><circle cx="466" cy="552" r="13" fill="#3f8cff" opacity="0.49"/><circle cx="400" cy="346" r="16" fill="#d49b12" opacity="0.46499999999999997"/><circle cx="334" cy="580" r="7" fill="#3f8cff" opacity="0.44"/><circle cx="268" cy="374" r="10" fill="#d49b12" opacity="0.41500000000000004"/><circle cx="202" cy="168" r="13" fill="#3f8cff" opacity="0.39"/></g>
  <g transform="translate(-300 0)"><rect x="660" y="72" width="486" height="510" rx="44" fill="#fff" opacity=".52" stroke="#172033" stroke-opacity=".08"/></g>
  <g transform="translate(-300 0)" filter="url(#shadow)"><g transform="translate(686 132)"><rect x="0" y="0" width="444" height="318" rx="34" fill="rgba(255,255,255,.62)" stroke="#172033" stroke-opacity=".12"/><path d="M58 240C132 180 160 208 220 126s106-30 166-104" fill="none" stroke="#4b2e83" stroke-width="24" stroke-linecap="round"/><path d="M58 250h340" stroke="#172033" stroke-opacity=".18" stroke-width="5"/><rect x="70" y="168" width="42" height="90" rx="12" fill="#d49b12" opacity=".86"/><rect x="146" y="118" width="42" height="140" rx="12" fill="#3f8cff" opacity=".86"/><rect x="222" y="72" width="42" height="186" rx="12" fill="#4b2e83" opacity=".9"/></g></g>
  <g filter="url(#shadow)" opacity=".82"><circle cx="142" cy="474" r="42" fill="#d49b12" opacity=".44"/><circle cx="224" cy="506" r="26" fill="#3f8cff" opacity=".5"/><circle cx="304" cy="458" r="18" fill="#4b2e83" opacity=".16"/></g>
</svg>