<svg xmlns="http://www.w3.org/2000/svg" width="1200" height="675" viewBox="0 0 1200 675" role="img" aria-labelledby="title desc">
  <title id="title">Is Tokenization Safe? What Are the Risks?</title>
  <desc id="desc">Editorial infrastructure visual for Tokenization.</desc>
  <defs>
    <radialGradient id="g1" cx="18%" cy="14%" r="60%"><stop stop-color="#25a074" stop-opacity=".48"/><stop offset="1" stop-color="#effaf6" stop-opacity="0"/></radialGradient>
    <radialGradient id="g2" cx="86%" cy="12%" r="58%"><stop stop-color="#4cb2e0" stop-opacity=".42"/><stop offset="1" stop-color="#effaf6" stop-opacity="0"/></radialGradient>
    <linearGradient id="split" x1="0" x2="1"><stop stop-color="#effaf6"/><stop offset=".55" stop-color="#effaf6"/><stop offset=".55" stop-color="#fffdf2"/><stop offset="1" stop-color="#eef8ff"/></linearGradient>
    <filter id="shadow" x="-20%" y="-20%" width="140%" height="140%"><feDropShadow dx="0" dy="22" stdDeviation="22" flood-color="#12213a" flood-opacity=".14"/></filter>
  </defs>
  <rect width="1200" height="675" fill="#effaf6"/>
  <rect width="1200" height="675" fill="url(#g1)"/>
  <rect width="1200" height="675" fill="url(#g2)"/>
  <g opacity=".9"><circle cx="100" cy="110" r="42" fill="#4cb2e0" opacity=".12"/><circle cx="196" cy="228" r="64" fill="#25a074" opacity=".12"/><circle cx="292" cy="346" r="86" fill="#4cb2e0" opacity=".12"/><circle cx="388" cy="464" r="42" fill="#25a074" opacity=".12"/><circle cx="484" cy="110" r="64" fill="#4cb2e0" opacity=".12"/><circle cx="580" cy="228" r="86" fill="#25a074" opacity=".12"/><circle cx="676" cy="346" r="42" fill="#4cb2e0" opacity=".12"/><circle cx="772" cy="464" r="64" fill="#25a074" opacity=".12"/><circle cx="868" cy="110" r="86" fill="#4cb2e0" opacity=".12"/><circle cx="964" cy="228" r="42" fill="#25a074" opacity=".12"/><circle cx="1060" cy="346" r="64" fill="#4cb2e0" opacity=".12"/><circle cx="1156" cy="464" r="86" fill="#25a074" opacity=".12"/></g>
  <g><line x1="363" y1="197" x2="444" y2="518" stroke="#172033" stroke-opacity=".13" stroke-width="1.5"/><line x1="444" y1="518" x2="525" y2="399" stroke="#172033" stroke-opacity=".13" stroke-width="2.5"/><line x1="525" y1="399" x2="606" y2="280" stroke="#172033" stroke-opacity=".13" stroke-width="3.5"/><line x1="606" y1="280" x2="687" y2="161" stroke="#172033" stroke-opacity=".13" stroke-width="1.5"/><line x1="687" y1="161" x2="768" y2="482" stroke="#172033" stroke-opacity=".13" stroke-width="2.5"/><line x1="768" y1="482" x2="849" y2="363" stroke="#172033" stroke-opacity=".13" stroke-width="3.5"/><circle cx="363" cy="197" r="7" fill="#4cb2e0" opacity="0.64"/><circle cx="444" cy="518" r="10" fill="#25a074" opacity="0.615"/><circle cx="525" cy="399" r="13" fill="#4cb2e0" opacity="0.59"/><circle cx="606" cy="280" r="16" fill="#25a074" opacity="0.565"/><circle cx="687" cy="161" r="7" fill="#4cb2e0" opacity="0.54"/><circle cx="768" cy="482" r="10" fill="#25a074" opacity="0.515"/><circle cx="849" cy="363" r="13" fill="#4cb2e0" opacity="0.49"/></g>
  <g transform="translate(-300 0)"><circle cx="900" cy="316" r="254" fill="#fff" opacity=".38"/><circle cx="900" cy="316" r="176" fill="#4cb2e0" opacity=".16"/></g>
  <g transform="translate(-300 0)" filter="url(#shadow)"><g transform="translate(728 100)"><polygon points="190,0 354,94 354,282 190,376 26,282 26,94" fill="#172033" opacity=".92"/><polygon points="190,54 306,122 306,254 190,322 74,254 74,122" fill="#25a074" opacity=".78"/><circle cx="190" cy="188" r="78" fill="#4cb2e0" opacity=".9"/><path d="M190 120v136M122 188h136" stroke="#172033" stroke-width="22" stroke-linecap="round"/></g></g>
  <g filter="url(#shadow)" opacity=".82"><circle cx="142" cy="474" r="42" fill="#25a074" opacity=".44"/><circle cx="224" cy="506" r="26" fill="#4cb2e0" opacity=".5"/><circle cx="304" cy="458" r="18" fill="#172033" opacity=".16"/></g>
</svg>