<svg xmlns="http://www.w3.org/2000/svg" width="1200" height="675" viewBox="0 0 1200 675" role="img" aria-labelledby="title desc">
  <title id="title">Is Tokenization Better Than Traditional Methods?</title>
  <desc id="desc">Editorial infrastructure visual for Tokenization.</desc>
  <defs>
    <radialGradient id="g1" cx="18%" cy="14%" r="60%"><stop stop-color="#62e6b8" stop-opacity=".48"/><stop offset="1" stop-color="#f8fbff" stop-opacity="0"/></radialGradient>
    <radialGradient id="g2" cx="86%" cy="12%" r="58%"><stop stop-color="#ffdf45" stop-opacity=".42"/><stop offset="1" stop-color="#f8fbff" stop-opacity="0"/></radialGradient>
    <linearGradient id="split" x1="0" x2="1"><stop stop-color="#f8fbff"/><stop offset=".55" stop-color="#f8fbff"/><stop offset=".55" stop-color="#fffdf2"/><stop offset="1" stop-color="#eef8ff"/></linearGradient>
    <filter id="shadow" x="-20%" y="-20%" width="140%" height="140%"><feDropShadow dx="0" dy="22" stdDeviation="22" flood-color="#12213a" flood-opacity=".14"/></filter>
  </defs>
  <rect width="1200" height="675" fill="url(#split)"/>
  <rect width="1200" height="675" fill="url(#g1)"/>
  <rect width="1200" height="675" fill="url(#g2)"/>
  <g opacity=".9"><path d="M-120 675  220 0" stroke="#0d2b4d" stroke-opacity=".12" stroke-width="4"/><path d="M18 675  312 0" stroke="#ffdf45" stroke-opacity=".12" stroke-width="5"/><path d="M156 675  404 0" stroke="#0d2b4d" stroke-opacity=".12" stroke-width="6"/><path d="M294 675  496 0" stroke="#ffdf45" stroke-opacity=".12" stroke-width="7"/><path d="M432 675  588 0" stroke="#0d2b4d" stroke-opacity=".12" stroke-width="4"/><path d="M570 675  680 0" stroke="#ffdf45" stroke-opacity=".12" stroke-width="5"/><path d="M708 675  772 0" stroke="#0d2b4d" stroke-opacity=".12" stroke-width="6"/><path d="M846 675  864 0" stroke="#ffdf45" stroke-opacity=".12" stroke-width="7"/><path d="M984 675  956 0" stroke="#0d2b4d" stroke-opacity=".12" stroke-width="4"/><path d="M1122 675  1048 0" stroke="#ffdf45" stroke-opacity=".12" stroke-width="5"/><path d="M1260 675  1140 0" stroke="#0d2b4d" stroke-opacity=".12" stroke-width="6"/></g>
  <g><line x1="312" y1="498" x2="376" y2="422" stroke="#0f5fa8" stroke-opacity=".13" stroke-width="1.5"/><line x1="376" y1="422" x2="440" y2="346" stroke="#0f5fa8" stroke-opacity=".13" stroke-width="2.5"/><line x1="440" y1="346" x2="504" y2="270" stroke="#0f5fa8" stroke-opacity=".13" stroke-width="3.5"/><line x1="504" y1="270" x2="568" y2="194" stroke="#0f5fa8" stroke-opacity=".13" stroke-width="1.5"/><line x1="568" y1="194" x2="632" y2="558" stroke="#0f5fa8" stroke-opacity=".13" stroke-width="2.5"/><line x1="632" y1="558" x2="696" y2="482" stroke="#0f5fa8" stroke-opacity=".13" stroke-width="3.5"/><line x1="696" y1="482" x2="760" y2="406" stroke="#0f5fa8" stroke-opacity=".13" stroke-width="1.5"/><line x1="760" y1="406" x2="824" y2="330" stroke="#0f5fa8" stroke-opacity=".13" stroke-width="2.5"/><line x1="824" y1="330" x2="888" y2="254" stroke="#0f5fa8" stroke-opacity=".13" stroke-width="3.5"/><circle cx="312" cy="498" r="7" fill="#ffdf45" opacity="0.64"/><circle cx="376" cy="422" r="10" fill="#62e6b8" opacity="0.615"/><circle cx="440" cy="346" r="13" fill="#ffdf45" opacity="0.59"/><circle cx="504" cy="270" r="16" fill="#62e6b8" opacity="0.565"/><circle cx="568" cy="194" r="7" fill="#ffdf45" opacity="0.54"/><circle cx="632" cy="558" r="10" fill="#62e6b8" opacity="0.515"/><circle cx="696" cy="482" r="13" fill="#ffdf45" opacity="0.49"/><circle cx="760" cy="406" r="16" fill="#62e6b8" opacity="0.46499999999999997"/><circle cx="824" cy="330" r="7" fill="#ffdf45" opacity="0.44"/><circle cx="888" cy="254" r="10" fill="#62e6b8" opacity="0.41500000000000004"/></g>
  <g transform="translate(-300 0)"><circle cx="890" cy="316" r="282" fill="#fff" opacity=".28"/><path d="M618 316h544M890 58v516" stroke="#0d2b4d" stroke-opacity=".08" stroke-width="4"/></g>
  <g transform="translate(-300 0)" filter="url(#shadow)"><g transform="translate(724 116)"><polygon points="160,0 306,82 160,164 14,82" fill="#ffdf45" opacity=".8"/><polygon points="14,82 160,164 160,314 14,230" fill="#0f5fa8" opacity=".92"/><polygon points="306,82 160,164 160,314 306,230" fill="#62e6b8" opacity=".82"/><polygon points="250,136 396,218 250,300 104,218" fill="#fff" opacity=".55"/><polygon points="104,218 250,300 250,390 104,308" fill="#0d2b4d" opacity=".65"/><polygon points="396,218 250,300 250,390 396,308" fill="#ffdf45" opacity=".58"/></g></g>
  <g filter="url(#shadow)" opacity=".82"><circle cx="142" cy="474" r="42" fill="#62e6b8" opacity=".44"/><circle cx="224" cy="506" r="26" fill="#ffdf45" opacity=".5"/><circle cx="304" cy="458" r="18" fill="#0f5fa8" opacity=".16"/></g>
</svg>