<svg xmlns="http://www.w3.org/2000/svg" width="1200" height="675" viewBox="0 0 1200 675" role="img" aria-labelledby="title desc">
  <title id="title">KYC, AML and Compliance Infrastructure for Web3 Platforms</title>
  <desc id="desc">Editorial infrastructure visual for Compliance.</desc>
  <defs>
    <radialGradient id="g1" cx="18%" cy="14%" r="60%"><stop stop-color="#9b7cff" stop-opacity=".48"/><stop offset="1" stop-color="#f6f2ff" stop-opacity="0"/></radialGradient>
    <radialGradient id="g2" cx="86%" cy="12%" r="58%"><stop stop-color="#ffdf45" stop-opacity=".42"/><stop offset="1" stop-color="#f6f2ff" stop-opacity="0"/></radialGradient>
    <linearGradient id="split" x1="0" x2="1"><stop stop-color="#f6f2ff"/><stop offset=".55" stop-color="#f6f2ff"/><stop offset=".55" stop-color="#eef8ff"/><stop offset="1" stop-color="#fff7d1"/></linearGradient>
    <filter id="shadow" x="-20%" y="-20%" width="140%" height="140%"><feDropShadow dx="0" dy="22" stdDeviation="22" flood-color="#12213a" flood-opacity=".14"/></filter>
  </defs>
  <rect width="1200" height="675" fill="#f6f2ff"/>
  <rect width="1200" height="675" fill="url(#g1)"/>
  <rect width="1200" height="675" fill="url(#g2)"/>
  <g opacity=".9"><path d="M0 80C260 20 560 160 1200 60" fill="none" stroke="#27144a" stroke-opacity=".09" stroke-width="2"/><path d="M0 146C260 66 560 184 1200 118" fill="none" stroke="#9b7cff" stroke-opacity=".09" stroke-width="3"/><path d="M0 212C260 112 560 208 1200 176" fill="none" stroke="#27144a" stroke-opacity=".09" stroke-width="4"/><path d="M0 278C260 158 560 232 1200 234" fill="none" stroke="#9b7cff" stroke-opacity=".09" stroke-width="2"/><path d="M0 344C260 204 560 256 1200 292" fill="none" stroke="#27144a" stroke-opacity=".09" stroke-width="3"/><path d="M0 410C260 250 560 280 1200 350" fill="none" stroke="#9b7cff" stroke-opacity=".09" stroke-width="4"/><path d="M0 476C260 296 560 304 1200 408" fill="none" stroke="#27144a" stroke-opacity=".09" stroke-width="2"/><path d="M0 542C260 342 560 328 1200 466" fill="none" stroke="#9b7cff" stroke-opacity=".09" stroke-width="3"/><path d="M0 608C260 388 560 352 1200 524" fill="none" stroke="#27144a" stroke-opacity=".09" stroke-width="4"/></g>
  <g><line x1="395" y1="285" x2="800" y2="430" stroke="#27144a" stroke-opacity=".13" stroke-width="1.5"/><line x1="800" y1="430" x2="265" y2="575" stroke="#27144a" stroke-opacity=".13" stroke-width="2.5"/><line x1="265" y1="575" x2="670" y2="280" stroke="#27144a" stroke-opacity=".13" stroke-width="3.5"/><line x1="670" y1="280" x2="135" y2="425" stroke="#27144a" stroke-opacity=".13" stroke-width="1.5"/><line x1="135" y1="425" x2="540" y2="570" stroke="#27144a" stroke-opacity=".13" stroke-width="2.5"/><line x1="540" y1="570" x2="945" y2="275" stroke="#27144a" stroke-opacity=".13" stroke-width="3.5"/><line x1="945" y1="275" x2="410" y2="420" stroke="#27144a" stroke-opacity=".13" stroke-width="1.5"/><circle cx="395" cy="285" r="7" fill="#ffdf45" opacity="0.64"/><circle cx="800" cy="430" r="10" fill="#9b7cff" opacity="0.615"/><circle cx="265" cy="575" r="13" fill="#ffdf45" opacity="0.59"/><circle cx="670" cy="280" r="16" fill="#9b7cff" opacity="0.565"/><circle cx="135" cy="425" r="7" fill="#ffdf45" opacity="0.54"/><circle cx="540" cy="570" r="10" fill="#9b7cff" opacity="0.515"/><circle cx="945" cy="275" r="13" fill="#ffdf45" opacity="0.49"/><circle cx="410" cy="420" r="16" fill="#9b7cff" opacity="0.46499999999999997"/></g>
  <g transform="translate(-300 0)"><rect x="628" y="96" width="520" height="420" rx="54" fill="#0f5fa8" opacity=".08"/><rect x="676" y="140" width="424" height="326" rx="38" fill="#fff" opacity=".46"/></g>
  <g transform="translate(-300 0)" filter="url(#shadow)"><g transform="translate(728 90)"><path d="M192 0 342 58v118c0 124-68 210-150 260C110 386 42 300 42 176V58L192 0Z" fill="#0f5fa8" opacity=".94"/><path d="M116 208l52 52 112-130" fill="none" stroke="#ffdf45" stroke-width="28" stroke-linecap="round" stroke-linejoin="round"/><g transform="translate(0 356)"><rect x="0" y="0" width="64" height="24" rx="12" fill="#ffdf45" opacity=".76"/><rect x="92" y="0" width="64" height="24" rx="12" fill="#9b7cff" opacity=".76"/><rect x="184" y="0" width="64" height="24" rx="12" fill="#ffdf45" opacity=".76"/><rect x="276" y="0" width="64" height="24" rx="12" fill="#9b7cff" opacity=".76"/></g></g></g>
  <g filter="url(#shadow)" opacity=".82"><circle cx="142" cy="474" r="42" fill="#9b7cff" opacity=".44"/><circle cx="224" cy="506" r="26" fill="#ffdf45" opacity=".5"/><circle cx="304" cy="458" r="18" fill="#0f5fa8" opacity=".16"/></g>
</svg>