<svg xmlns="http://www.w3.org/2000/svg" width="1200" height="675" viewBox="0 0 1200 675" role="img" aria-labelledby="title desc">
  <title id="title">Legal and Regulatory Vendors for Tokenized Assets</title>
  <desc id="desc">Editorial infrastructure visual for Legal.</desc>
  <defs>
    <radialGradient id="g1" cx="18%" cy="14%" r="60%"><stop stop-color="#4cb2e0" stop-opacity=".48"/><stop offset="1" stop-color="#f2f7ff" stop-opacity="0"/></radialGradient>
    <radialGradient id="g2" cx="86%" cy="12%" r="58%"><stop stop-color="#ffb84d" stop-opacity=".42"/><stop offset="1" stop-color="#f2f7ff" stop-opacity="0"/></radialGradient>
    <linearGradient id="split" x1="0" x2="1"><stop stop-color="#f2f7ff"/><stop offset=".55" stop-color="#f2f7ff"/><stop offset=".55" stop-color="#fffdf2"/><stop offset="1" stop-color="#eef8ff"/></linearGradient>
    <filter id="shadow" x="-20%" y="-20%" width="140%" height="140%"><feDropShadow dx="0" dy="22" stdDeviation="22" flood-color="#12213a" flood-opacity=".14"/></filter>
  </defs>
  <rect width="1200" height="675" fill="#f2f7ff"/>
  <rect width="1200" height="675" fill="url(#g1)"/>
  <rect width="1200" height="675" fill="url(#g2)"/>
  <g opacity=".9"><rect x="70" y="64" width="72" height="72" rx="20" fill="#4cb2e0" opacity=".13" transform="rotate(-8 100 90)"/><rect x="202" y="214" width="100" height="114" rx="20" fill="#ffb84d" opacity=".13" transform="rotate(8 232 240)"/><rect x="334" y="364" width="128" height="72" rx="20" fill="#4cb2e0" opacity=".13" transform="rotate(-8 364 390)"/><rect x="466" y="64" width="156" height="114" rx="20" fill="#ffb84d" opacity=".13" transform="rotate(8 496 90)"/><rect x="598" y="214" width="72" height="72" rx="20" fill="#4cb2e0" opacity=".13" transform="rotate(-8 628 240)"/><rect x="730" y="364" width="100" height="114" rx="20" fill="#ffb84d" opacity=".13" transform="rotate(8 760 390)"/><rect x="862" y="64" width="128" height="72" rx="20" fill="#4cb2e0" opacity=".13" transform="rotate(-8 892 90)"/><rect x="994" y="214" width="156" height="114" rx="20" fill="#ffb84d" opacity=".13" transform="rotate(8 1024 240)"/></g>
  <g><line x1="500" y1="510" x2="940" y2="310" stroke="#12213a" stroke-opacity=".13" stroke-width="1.5"/><line x1="940" y1="310" x2="440" y2="550" stroke="#12213a" stroke-opacity=".13" stroke-width="2.5"/><line x1="440" y1="550" x2="880" y2="350" stroke="#12213a" stroke-opacity=".13" stroke-width="3.5"/><line x1="880" y1="350" x2="380" y2="150" stroke="#12213a" stroke-opacity=".13" stroke-width="1.5"/><line x1="380" y1="150" x2="820" y2="390" stroke="#12213a" stroke-opacity=".13" stroke-width="2.5"/><line x1="820" y1="390" x2="320" y2="190" stroke="#12213a" stroke-opacity=".13" stroke-width="3.5"/><line x1="320" y1="190" x2="760" y2="430" stroke="#12213a" stroke-opacity=".13" stroke-width="1.5"/><line x1="760" y1="430" x2="260" y2="230" stroke="#12213a" stroke-opacity=".13" stroke-width="2.5"/><circle cx="500" cy="510" r="7" fill="#ffb84d" opacity="0.64"/><circle cx="940" cy="310" r="10" fill="#4cb2e0" opacity="0.615"/><circle cx="440" cy="550" r="13" fill="#ffb84d" opacity="0.59"/><circle cx="880" cy="350" r="16" fill="#4cb2e0" opacity="0.565"/><circle cx="380" cy="150" r="7" fill="#ffb84d" opacity="0.54"/><circle cx="820" cy="390" r="10" fill="#4cb2e0" opacity="0.515"/><circle cx="320" cy="190" r="13" fill="#ffb84d" opacity="0.49"/><circle cx="760" cy="430" r="16" fill="#4cb2e0" opacity="0.46499999999999997"/><circle cx="260" cy="230" r="7" fill="#ffb84d" opacity="0.44"/></g>
  <g transform="translate(-300 0)"><path d="M630 132C770 48 1014 72 1130 210c108 128 8 302-150 356-184 62-396-12-432-178-22-104 6-210 82-256Z" fill="#fff" opacity=".42"/></g>
  <g transform="translate(-300 0)" filter="url(#shadow)"><g transform="translate(700 96)"><circle cx="208" cy="208" r="178" fill="#12213a" opacity=".92"/><circle cx="208" cy="208" r="130" fill="#4cb2e0" opacity=".55"/><path d="M50 208h316M208 32c-76 68-76 284 0 352M208 32c76 68 76 284 0 352" fill="none" stroke="#ffb84d" stroke-width="14" stroke-linecap="round" opacity=".82"/><circle cx="300" cy="146" r="20" fill="#fff" opacity=".86"/><circle cx="142" cy="270" r="17" fill="#ffb84d"/></g></g>
  <g filter="url(#shadow)" opacity=".82"><circle cx="142" cy="474" r="42" fill="#4cb2e0" opacity=".44"/><circle cx="224" cy="506" r="26" fill="#ffb84d" opacity=".5"/><circle cx="304" cy="458" r="18" fill="#12213a" opacity=".16"/></g>
</svg>