<svg xmlns="http://www.w3.org/2000/svg" width="1200" height="675" viewBox="0 0 1200 675" role="img" aria-labelledby="title desc">
  <title id="title">Smart Contract Development and Audits: What Buyers Should Check</title>
  <desc id="desc">Editorial infrastructure visual for Smart Contracts.</desc>
  <defs>
    <radialGradient id="g1" cx="18%" cy="14%" r="60%"><stop stop-color="#e16ba8" stop-opacity=".48"/><stop offset="1" stop-color="#fff2f7" stop-opacity="0"/></radialGradient>
    <radialGradient id="g2" cx="86%" cy="12%" r="58%"><stop stop-color="#ffe36e" stop-opacity=".42"/><stop offset="1" stop-color="#fff2f7" stop-opacity="0"/></radialGradient>
    <linearGradient id="split" x1="0" x2="1"><stop stop-color="#fff2f7"/><stop offset=".55" stop-color="#fff2f7"/><stop offset=".55" stop-color="#eef8ff"/><stop offset="1" stop-color="#fff7d1"/></linearGradient>
    <filter id="shadow" x="-20%" y="-20%" width="140%" height="140%"><feDropShadow dx="0" dy="22" stdDeviation="22" flood-color="#12213a" flood-opacity=".14"/></filter>
  </defs>
  <rect width="1200" height="675" fill="#fff2f7"/>
  <rect width="1200" height="675" fill="url(#g1)"/>
  <rect width="1200" height="675" fill="url(#g2)"/>
  <g opacity=".9"><path d="M80 80l38 22v44l-38 22-38-22v-44z" fill="none" stroke="#351528" stroke-opacity=".12" stroke-width="3"/><path d="M158 80l38 22v44l-38 22-38-22v-44z" fill="none" stroke="#e16ba8" stroke-opacity=".12" stroke-width="3"/><path d="M236 80l38 22v44l-38 22-38-22v-44z" fill="none" stroke="#351528" stroke-opacity=".12" stroke-width="3"/><path d="M314 80l38 22v44l-38 22-38-22v-44z" fill="none" stroke="#e16ba8" stroke-opacity=".12" stroke-width="3"/><path d="M392 80l38 22v44l-38 22-38-22v-44z" fill="none" stroke="#351528" stroke-opacity=".12" stroke-width="3"/><path d="M470 80l38 22v44l-38 22-38-22v-44z" fill="none" stroke="#e16ba8" stroke-opacity=".12" stroke-width="3"/><path d="M548 80l38 22v44l-38 22-38-22v-44z" fill="none" stroke="#351528" stroke-opacity=".12" stroke-width="3"/><path d="M626 80l38 22v44l-38 22-38-22v-44z" fill="none" stroke="#e16ba8" stroke-opacity=".12" stroke-width="3"/><path d="M704 80l38 22v44l-38 22-38-22v-44z" fill="none" stroke="#351528" stroke-opacity=".12" stroke-width="3"/><path d="M782 80l38 22v44l-38 22-38-22v-44z" fill="none" stroke="#e16ba8" stroke-opacity=".12" stroke-width="3"/><path d="M860 80l38 22v44l-38 22-38-22v-44z" fill="none" stroke="#351528" stroke-opacity=".12" stroke-width="3"/><path d="M938 80l38 22v44l-38 22-38-22v-44z" fill="none" stroke="#e16ba8" stroke-opacity=".12" stroke-width="3"/><path d="M1016 80l38 22v44l-38 22-38-22v-44z" fill="none" stroke="#351528" stroke-opacity=".12" stroke-width="3"/><path d="M1094 80l38 22v44l-38 22-38-22v-44z" fill="none" stroke="#e16ba8" stroke-opacity=".12" stroke-width="3"/></g>
  <g><line x1="991" y1="349" x2="968" y2="566" stroke="#351528" stroke-opacity=".13" stroke-width="1.5"/><line x1="968" y1="566" x2="945" y2="343" stroke="#351528" stroke-opacity=".13" stroke-width="2.5"/><line x1="945" y1="343" x2="922" y2="560" stroke="#351528" stroke-opacity=".13" stroke-width="3.5"/><line x1="922" y1="560" x2="899" y2="337" stroke="#351528" stroke-opacity=".13" stroke-width="1.5"/><line x1="899" y1="337" x2="876" y2="554" stroke="#351528" stroke-opacity=".13" stroke-width="2.5"/><line x1="876" y1="554" x2="853" y2="331" stroke="#351528" stroke-opacity=".13" stroke-width="3.5"/><line x1="853" y1="331" x2="830" y2="548" stroke="#351528" stroke-opacity=".13" stroke-width="1.5"/><line x1="830" y1="548" x2="807" y2="325" stroke="#351528" stroke-opacity=".13" stroke-width="2.5"/><line x1="807" y1="325" x2="784" y2="542" stroke="#351528" stroke-opacity=".13" stroke-width="3.5"/><circle cx="991" cy="349" r="7" fill="#ffe36e" opacity="0.64"/><circle cx="968" cy="566" r="10" fill="#e16ba8" opacity="0.615"/><circle cx="945" cy="343" r="13" fill="#ffe36e" opacity="0.59"/><circle cx="922" cy="560" r="16" fill="#e16ba8" opacity="0.565"/><circle cx="899" cy="337" r="7" fill="#ffe36e" opacity="0.54"/><circle cx="876" cy="554" r="10" fill="#e16ba8" opacity="0.515"/><circle cx="853" cy="331" r="13" fill="#ffe36e" opacity="0.49"/><circle cx="830" cy="548" r="16" fill="#e16ba8" opacity="0.46499999999999997"/><circle cx="807" cy="325" r="7" fill="#ffe36e" opacity="0.44"/><circle cx="784" cy="542" r="10" fill="#e16ba8" opacity="0.41500000000000004"/></g>
  <g transform="translate(-300 0)"><rect x="640" y="86" width="492" height="438" rx="40" fill="#fff" opacity=".44"/><path d="M690 524h392" stroke="#164b7a" stroke-opacity=".18" stroke-width="14" stroke-linecap="round"/></g>
  <g transform="translate(-300 0)" filter="url(#shadow)"><g transform="translate(692 112)"><rect x="0" y="0" width="424" height="344" rx="34" fill="#164b7a" opacity=".94"/><circle cx="44" cy="42" r="10" fill="#e16ba8"/><circle cx="76" cy="42" r="10" fill="#ffe36e"/><circle cx="108" cy="42" r="10" fill="#fff" opacity=".7"/><path d="m104 168-54 48 54 48M320 168l54 48-54 48M246 122l-70 188" fill="none" stroke="#ffe36e" stroke-width="24" stroke-linecap="round" stroke-linejoin="round"/><rect x="66" y="296" width="292" height="16" rx="8" fill="#e16ba8" opacity=".72"/></g></g>
  <g filter="url(#shadow)" opacity=".82"><circle cx="142" cy="474" r="42" fill="#e16ba8" opacity=".44"/><circle cx="224" cy="506" r="26" fill="#ffe36e" opacity=".5"/><circle cx="304" cy="458" r="18" fill="#164b7a" opacity=".16"/></g>
</svg>