<svg xmlns="http://www.w3.org/2000/svg" width="1200" height="675" viewBox="0 0 1200 675" role="img" aria-labelledby="title desc">
  <title id="title">Stablecoin Payments and Settlement Infrastructure Explained</title>
  <desc id="desc">Editorial infrastructure visual for Stablecoins.</desc>
  <defs>
    <radialGradient id="g1" cx="18%" cy="14%" r="60%"><stop stop-color="#63e8ff" stop-opacity=".48"/><stop offset="1" stop-color="#f4fbff" stop-opacity="0"/></radialGradient>
    <radialGradient id="g2" cx="86%" cy="12%" r="58%"><stop stop-color="#f6c915" stop-opacity=".42"/><stop offset="1" stop-color="#f4fbff" stop-opacity="0"/></radialGradient>
    <linearGradient id="split" x1="0" x2="1"><stop stop-color="#f4fbff"/><stop offset=".55" stop-color="#f4fbff"/><stop offset=".55" stop-color="#fffdf2"/><stop offset="1" stop-color="#eef8ff"/></linearGradient>
    <filter id="shadow" x="-20%" y="-20%" width="140%" height="140%"><feDropShadow dx="0" dy="22" stdDeviation="22" flood-color="#12213a" flood-opacity=".14"/></filter>
  </defs>
  <rect width="1200" height="675" fill="url(#split)"/>
  <rect width="1200" height="675" fill="url(#g1)"/>
  <rect width="1200" height="675" fill="url(#g2)"/>
  <g opacity=".9"><path d="M-120 675  220 0" stroke="#102d40" stroke-opacity=".12" stroke-width="4"/><path d="M18 675  312 0" stroke="#f6c915" stroke-opacity=".12" stroke-width="5"/><path d="M156 675  404 0" stroke="#102d40" stroke-opacity=".12" stroke-width="6"/><path d="M294 675  496 0" stroke="#f6c915" stroke-opacity=".12" stroke-width="7"/><path d="M432 675  588 0" stroke="#102d40" stroke-opacity=".12" stroke-width="4"/><path d="M570 675  680 0" stroke="#f6c915" stroke-opacity=".12" stroke-width="5"/><path d="M708 675  772 0" stroke="#102d40" stroke-opacity=".12" stroke-width="6"/><path d="M846 675  864 0" stroke="#f6c915" stroke-opacity=".12" stroke-width="7"/><path d="M984 675  956 0" stroke="#102d40" stroke-opacity=".12" stroke-width="4"/><path d="M1122 675  1048 0" stroke="#f6c915" stroke-opacity=".12" stroke-width="5"/><path d="M1260 675  1140 0" stroke="#102d40" stroke-opacity=".12" stroke-width="6"/></g>
  <g><line x1="138" y1="532" x2="144" y2="398" stroke="#17324f" stroke-opacity=".13" stroke-width="1.5"/><line x1="144" y1="398" x2="150" y2="264" stroke="#17324f" stroke-opacity=".13" stroke-width="2.5"/><line x1="150" y1="264" x2="156" y2="570" stroke="#17324f" stroke-opacity=".13" stroke-width="3.5"/><line x1="156" y1="570" x2="162" y2="436" stroke="#17324f" stroke-opacity=".13" stroke-width="1.5"/><line x1="162" y1="436" x2="168" y2="302" stroke="#17324f" stroke-opacity=".13" stroke-width="2.5"/><line x1="168" y1="302" x2="174" y2="168" stroke="#17324f" stroke-opacity=".13" stroke-width="3.5"/><line x1="174" y1="168" x2="180" y2="474" stroke="#17324f" stroke-opacity=".13" stroke-width="1.5"/><line x1="180" y1="474" x2="186" y2="340" stroke="#17324f" stroke-opacity=".13" stroke-width="2.5"/><line x1="186" y1="340" x2="192" y2="206" stroke="#17324f" stroke-opacity=".13" stroke-width="3.5"/><line x1="192" y1="206" x2="198" y2="512" stroke="#17324f" stroke-opacity=".13" stroke-width="1.5"/><circle cx="138" cy="532" r="7" fill="#f6c915" opacity="0.64"/><circle cx="144" cy="398" r="10" fill="#63e8ff" opacity="0.615"/><circle cx="150" cy="264" r="13" fill="#f6c915" opacity="0.59"/><circle cx="156" cy="570" r="16" fill="#63e8ff" opacity="0.565"/><circle cx="162" cy="436" r="7" fill="#f6c915" opacity="0.54"/><circle cx="168" cy="302" r="10" fill="#63e8ff" opacity="0.515"/><circle cx="174" cy="168" r="13" fill="#f6c915" opacity="0.49"/><circle cx="180" cy="474" r="16" fill="#63e8ff" opacity="0.46499999999999997"/><circle cx="186" cy="340" r="7" fill="#f6c915" opacity="0.44"/><circle cx="192" cy="206" r="10" fill="#63e8ff" opacity="0.41500000000000004"/><circle cx="198" cy="512" r="13" fill="#f6c915" opacity="0.39"/></g>
  <g transform="translate(-300 0)"><circle cx="890" cy="316" r="282" fill="#fff" opacity=".28"/><path d="M618 316h544M890 58v516" stroke="#102d40" stroke-opacity=".08" stroke-width="4"/></g>
  <g transform="translate(-300 0)" filter="url(#shadow)"><g transform="translate(704 118)"><rect x="0" y="44" width="254" height="162" rx="28" fill="#17324f" opacity=".92"/><rect x="32" y="86" width="126" height="18" rx="9" fill="#f6c915" opacity=".8"/><rect x="32" y="128" width="190" height="20" rx="10" fill="#fff" opacity=".62"/><path d="M292 52c80 52 80 182 0 234M338 14c124 82 124 282 0 364" fill="none" stroke="#63e8ff" stroke-width="22" stroke-linecap="round" opacity=".8"/><circle cx="414" cy="200" r="62" fill="#f6c915" opacity=".74"/></g></g>
  <g filter="url(#shadow)" opacity=".82"><circle cx="142" cy="474" r="42" fill="#63e8ff" opacity=".44"/><circle cx="224" cy="506" r="26" fill="#f6c915" opacity=".5"/><circle cx="304" cy="458" r="18" fill="#17324f" opacity=".16"/></g>
</svg>