<svg xmlns="http://www.w3.org/2000/svg" width="1200" height="675" viewBox="0 0 1200 675" role="img" aria-labelledby="title desc">
  <title id="title">The Vendor Stack for Tokenized Real Estate Projects</title>
  <desc id="desc">Editorial infrastructure visual for Real Estate Tokenization.</desc>
  <defs>
    <radialGradient id="g1" cx="18%" cy="14%" r="60%"><stop stop-color="#9b7cff" stop-opacity=".48"/><stop offset="1" stop-color="#eef8ff" stop-opacity="0"/></radialGradient>
    <radialGradient id="g2" cx="86%" cy="12%" r="58%"><stop stop-color="#ffe36e" stop-opacity=".42"/><stop offset="1" stop-color="#eef8ff" stop-opacity="0"/></radialGradient>
    <linearGradient id="split" x1="0" x2="1"><stop stop-color="#eef8ff"/><stop offset=".55" stop-color="#eef8ff"/><stop offset=".55" stop-color="#fffdf2"/><stop offset="1" stop-color="#eef8ff"/></linearGradient>
    <filter id="shadow" x="-20%" y="-20%" width="140%" height="140%"><feDropShadow dx="0" dy="22" stdDeviation="22" flood-color="#12213a" flood-opacity=".14"/></filter>
  </defs>
  <rect width="1200" height="675" fill="#eef8ff"/>
  <rect width="1200" height="675" fill="url(#g1)"/>
  <rect width="1200" height="675" fill="url(#g2)"/>
  <g opacity=".9"><circle cx="100" cy="110" r="42" fill="#ffe36e" opacity=".12"/><circle cx="196" cy="228" r="64" fill="#9b7cff" opacity=".12"/><circle cx="292" cy="346" r="86" fill="#ffe36e" opacity=".12"/><circle cx="388" cy="464" r="42" fill="#9b7cff" opacity=".12"/><circle cx="484" cy="110" r="64" fill="#ffe36e" opacity=".12"/><circle cx="580" cy="228" r="86" fill="#9b7cff" opacity=".12"/><circle cx="676" cy="346" r="42" fill="#ffe36e" opacity=".12"/><circle cx="772" cy="464" r="64" fill="#9b7cff" opacity=".12"/><circle cx="868" cy="110" r="86" fill="#ffe36e" opacity=".12"/><circle cx="964" cy="228" r="42" fill="#9b7cff" opacity=".12"/><circle cx="1060" cy="346" r="64" fill="#ffe36e" opacity=".12"/><circle cx="1156" cy="464" r="86" fill="#9b7cff" opacity=".12"/></g>
  <g><line x1="941" y1="239" x2="588" y2="566" stroke="#164b7a" stroke-opacity=".13" stroke-width="1.5"/><line x1="588" y1="566" x2="235" y2="453" stroke="#164b7a" stroke-opacity=".13" stroke-width="2.5"/><line x1="235" y1="453" x2="822" y2="340" stroke="#164b7a" stroke-opacity=".13" stroke-width="3.5"/><line x1="822" y1="340" x2="469" y2="227" stroke="#164b7a" stroke-opacity=".13" stroke-width="1.5"/><line x1="469" y1="227" x2="1056" y2="554" stroke="#164b7a" stroke-opacity=".13" stroke-width="2.5"/><line x1="1056" y1="554" x2="703" y2="441" stroke="#164b7a" stroke-opacity=".13" stroke-width="3.5"/><line x1="703" y1="441" x2="350" y2="328" stroke="#164b7a" stroke-opacity=".13" stroke-width="1.5"/><circle cx="941" cy="239" r="7" fill="#ffe36e" opacity="0.64"/><circle cx="588" cy="566" r="10" fill="#9b7cff" opacity="0.615"/><circle cx="235" cy="453" r="13" fill="#ffe36e" opacity="0.59"/><circle cx="822" cy="340" r="16" fill="#9b7cff" opacity="0.565"/><circle cx="469" cy="227" r="7" fill="#ffe36e" opacity="0.54"/><circle cx="1056" cy="554" r="10" fill="#9b7cff" opacity="0.515"/><circle cx="703" cy="441" r="13" fill="#ffe36e" opacity="0.49"/><circle cx="350" cy="328" r="16" fill="#9b7cff" opacity="0.46499999999999997"/></g>
  <g transform="translate(-300 0)"><circle cx="900" cy="316" r="254" fill="#fff" opacity=".38"/><circle cx="900" cy="316" r="176" fill="#ffe36e" opacity=".16"/></g>
  <g transform="translate(-300 0)" filter="url(#shadow)"><g transform="translate(704 125)"><rect x="0" y="105" width="122" height="260" rx="12" fill="#164b7a" opacity=".9"/><rect x="142" y="32" width="150" height="333" rx="14" fill="#12213a" opacity=".94"/><rect x="318" y="132" width="116" height="233" rx="12" fill="#9b7cff" opacity=".7"/><rect x="24" y="132" width="15" height="16" rx="3" fill="#ffe36e" opacity=".65"/><rect x="54" y="132" width="15" height="16" rx="3" fill="#ffe36e" opacity=".65"/><rect x="84" y="132" width="15" height="16" rx="3" fill="#ffe36e" opacity=".65"/><rect x="24" y="162" width="15" height="16" rx="3" fill="#ffe36e" opacity=".65"/><rect x="54" y="162" width="15" height="16" rx="3" fill="#ffe36e" opacity=".65"/><rect x="84" y="162" width="15" height="16" rx="3" fill="#ffe36e" opacity=".65"/><rect x="24" y="192" width="15" height="16" rx="3" fill="#ffe36e" opacity=".65"/><rect x="54" y="192" width="15" height="16" rx="3" fill="#ffe36e" opacity=".65"/><rect x="84" y="192" width="15" height="16" rx="3" fill="#ffe36e" opacity=".65"/><rect x="24" y="222" width="15" height="16" rx="3" fill="#ffe36e" opacity=".65"/><rect x="54" y="222" width="15" height="16" rx="3" fill="#ffe36e" opacity=".65"/><rect x="84" y="222" width="15" height="16" rx="3" fill="#ffe36e" opacity=".65"/><rect x="24" y="252" width="15" height="16" rx="3" fill="#ffe36e" opacity=".65"/><rect x="54" y="252" width="15" height="16" rx="3" fill="#ffe36e" opacity=".65"/><rect x="84" y="252" width="15" height="16" rx="3" fill="#ffe36e" opacity=".65"/><rect x="24" y="282" width="15" height="16" rx="3" fill="#ffe36e" opacity=".65"/><rect x="54" y="282" width="15" height="16" rx="3" fill="#ffe36e" opacity=".65"/><rect x="84" y="282" width="15" height="16" rx="3" fill="#ffe36e" opacity=".65"/><rect x="24" y="312" width="15" height="16" rx="3" fill="#ffe36e" opacity=".65"/><rect x="54" y="312" width="15" height="16" rx="3" fill="#ffe36e" opacity=".65"/><rect x="84" y="312" width="15" height="16" rx="3" fill="#ffe36e" opacity=".65"/><rect x="170" y="62" width="14" height="15" rx="3" fill="#fff" opacity=".58"/><rect x="199" y="62" width="14" height="15" rx="3" fill="#fff" opacity=".58"/><rect x="228" y="62" width="14" height="15" rx="3" fill="#fff" opacity=".58"/><rect x="257" y="62" width="14" height="15" rx="3" fill="#fff" opacity=".58"/><rect x="170" y="92" width="14" height="15" rx="3" fill="#fff" opacity=".58"/><rect x="199" y="92" width="14" height="15" rx="3" fill="#fff" opacity=".58"/><rect x="228" y="92" width="14" height="15" rx="3" fill="#fff" opacity=".58"/><rect x="257" y="92" width="14" height="15" rx="3" fill="#fff" opacity=".58"/><rect x="170" y="122" width="14" height="15" rx="3" fill="#fff" opacity=".58"/><rect x="199" y="122" width="14" height="15" rx="3" fill="#fff" opacity=".58"/><rect x="228" y="122" width="14" height="15" rx="3" fill="#fff" opacity=".58"/><rect x="257" y="122" width="14" height="15" rx="3" fill="#fff" opacity=".58"/><rect x="170" y="152" width="14" height="15" rx="3" fill="#fff" opacity=".58"/><rect x="199" y="152" width="14" height="15" rx="3" fill="#fff" opacity=".58"/><rect x="228" y="152" width="14" height="15" rx="3" fill="#fff" opacity=".58"/><rect x="257" y="152" width="14" height="15" rx="3" fill="#fff" opacity=".58"/><rect x="170" y="182" width="14" height="15" rx="3" fill="#fff" opacity=".58"/><rect x="199" y="182" width="14" height="15" rx="3" fill="#fff" opacity=".58"/><rect x="228" y="182" width="14" height="15" rx="3" fill="#fff" opacity=".58"/><rect x="257" y="182" width="14" height="15" rx="3" fill="#fff" opacity=".58"/><rect x="170" y="212" width="14" height="15" rx="3" fill="#fff" opacity=".58"/><rect x="199" y="212" width="14" height="15" rx="3" fill="#fff" opacity=".58"/><rect x="228" y="212" width="14" height="15" rx="3" fill="#fff" opacity=".58"/><rect x="257" y="212" width="14" height="15" rx="3" fill="#fff" opacity=".58"/><rect x="170" y="242" width="14" height="15" rx="3" fill="#fff" opacity=".58"/><rect x="199" y="242" width="14" height="15" rx="3" fill="#fff" opacity=".58"/><rect x="228" y="242" width="14" height="15" rx="3" fill="#fff" opacity=".58"/><rect x="257" y="242" width="14" height="15" rx="3" fill="#fff" opacity=".58"/><rect x="170" y="272" width="14" height="15" rx="3" fill="#fff" opacity=".58"/><rect x="199" y="272" width="14" height="15" rx="3" fill="#fff" opacity=".58"/><rect x="228" y="272" width="14" height="15" rx="3" fill="#fff" opacity=".58"/><rect x="257" y="272" width="14" height="15" rx="3" fill="#fff" opacity=".58"/><rect x="170" y="302" width="14" height="15" rx="3" fill="#fff" opacity=".58"/><rect x="199" y="302" width="14" height="15" rx="3" fill="#fff" opacity=".58"/><rect x="228" y="302" width="14" height="15" rx="3" fill="#fff" opacity=".58"/><rect x="257" y="302" width="14" height="15" rx="3" fill="#fff" opacity=".58"/></g></g>
  <g filter="url(#shadow)" opacity=".82"><circle cx="142" cy="474" r="42" fill="#9b7cff" opacity=".44"/><circle cx="224" cy="506" r="26" fill="#ffe36e" opacity=".5"/><circle cx="304" cy="458" r="18" fill="#164b7a" opacity=".16"/></g>
</svg>