<svg xmlns="http://www.w3.org/2000/svg" width="1200" height="675" viewBox="0 0 1200 675" role="img" aria-labelledby="title desc">
  <title id="title">The Web3 Infrastructure Stack for Launching a Tokenized Fund</title>
  <desc id="desc">Editorial infrastructure visual for Tokenized Funds.</desc>
  <defs>
    <radialGradient id="g1" cx="18%" cy="14%" r="60%"><stop stop-color="#f6c915" stop-opacity=".48"/><stop offset="1" stop-color="#fff7d1" stop-opacity="0"/></radialGradient>
    <radialGradient id="g2" cx="86%" cy="12%" r="58%"><stop stop-color="#63e8ff" stop-opacity=".42"/><stop offset="1" stop-color="#fff7d1" stop-opacity="0"/></radialGradient>
    <linearGradient id="split" x1="0" x2="1"><stop stop-color="#fff7d1"/><stop offset=".55" stop-color="#fff7d1"/><stop offset=".55" stop-color="#eef8ff"/><stop offset="1" stop-color="#fff7d1"/></linearGradient>
    <filter id="shadow" x="-20%" y="-20%" width="140%" height="140%"><feDropShadow dx="0" dy="22" stdDeviation="22" flood-color="#12213a" flood-opacity=".14"/></filter>
  </defs>
  <rect width="1200" height="675" fill="#fff7d1"/>
  <rect width="1200" height="675" fill="url(#g1)"/>
  <rect width="1200" height="675" fill="url(#g2)"/>
  <g opacity=".9"><path d="M-80 0V675" stroke="#0f5fa8" stroke-opacity=".055"/><path d="M6 0V675" stroke="#0f5fa8" stroke-opacity=".055"/><path d="M92 0V675" stroke="#0f5fa8" stroke-opacity=".055"/><path d="M178 0V675" stroke="#0f5fa8" stroke-opacity=".055"/><path d="M264 0V675" stroke="#0f5fa8" stroke-opacity=".055"/><path d="M350 0V675" stroke="#0f5fa8" stroke-opacity=".055"/><path d="M436 0V675" stroke="#0f5fa8" stroke-opacity=".055"/><path d="M522 0V675" stroke="#0f5fa8" stroke-opacity=".055"/><path d="M608 0V675" stroke="#0f5fa8" stroke-opacity=".055"/><path d="M694 0V675" stroke="#0f5fa8" stroke-opacity=".055"/><path d="M780 0V675" stroke="#0f5fa8" stroke-opacity=".055"/><path d="M866 0V675" stroke="#0f5fa8" stroke-opacity=".055"/><path d="M952 0V675" stroke="#0f5fa8" stroke-opacity=".055"/><path d="M1038 0V675" stroke="#0f5fa8" stroke-opacity=".055"/><path d="M1124 0V675" stroke="#0f5fa8" stroke-opacity=".055"/><path d="M1210 0V675" stroke="#0f5fa8" stroke-opacity=".055"/><path d="M1296 0V675" stroke="#0f5fa8" stroke-opacity=".055"/><path d="M1382 0V675" stroke="#0f5fa8" stroke-opacity=".055"/><path d="M0 0H1200" stroke="#0f5fa8" stroke-opacity=".045"/><path d="M0 74H1200" stroke="#0f5fa8" stroke-opacity=".045"/><path d="M0 148H1200" stroke="#0f5fa8" stroke-opacity=".045"/><path d="M0 222H1200" stroke="#0f5fa8" stroke-opacity=".045"/><path d="M0 296H1200" stroke="#0f5fa8" stroke-opacity=".045"/><path d="M0 370H1200" stroke="#0f5fa8" stroke-opacity=".045"/><path d="M0 444H1200" stroke="#0f5fa8" stroke-opacity=".045"/><path d="M0 518H1200" stroke="#0f5fa8" stroke-opacity=".045"/><path d="M0 592H1200" stroke="#0f5fa8" stroke-opacity=".045"/><path d="M0 666H1200" stroke="#0f5fa8" stroke-opacity=".045"/></g>
  <g><line x1="906" y1="584" x2="228" y2="206" stroke="#0f5fa8" stroke-opacity=".13" stroke-width="1.5"/><line x1="228" y1="206" x2="490" y2="268" stroke="#0f5fa8" stroke-opacity=".13" stroke-width="2.5"/><line x1="490" y1="268" x2="752" y2="330" stroke="#0f5fa8" stroke-opacity=".13" stroke-width="3.5"/><line x1="752" y1="330" x2="1014" y2="392" stroke="#0f5fa8" stroke-opacity=".13" stroke-width="1.5"/><line x1="1014" y1="392" x2="336" y2="454" stroke="#0f5fa8" stroke-opacity=".13" stroke-width="2.5"/><line x1="336" y1="454" x2="598" y2="516" stroke="#0f5fa8" stroke-opacity=".13" stroke-width="3.5"/><circle cx="906" cy="584" r="7" fill="#63e8ff" opacity="0.64"/><circle cx="228" cy="206" r="10" fill="#f6c915" opacity="0.615"/><circle cx="490" cy="268" r="13" fill="#63e8ff" opacity="0.59"/><circle cx="752" cy="330" r="16" fill="#f6c915" opacity="0.565"/><circle cx="1014" cy="392" r="7" fill="#63e8ff" opacity="0.54"/><circle cx="336" cy="454" r="10" fill="#f6c915" opacity="0.515"/><circle cx="598" cy="516" r="13" fill="#63e8ff" opacity="0.49"/></g>
  <g transform="translate(-300 0)"><rect x="660" y="72" width="486" height="510" rx="44" fill="#fff" opacity=".52" stroke="#0f5fa8" stroke-opacity=".08"/></g>
  <g transform="translate(-300 0)" filter="url(#shadow)"><g transform="translate(686 132)"><rect x="0" y="0" width="444" height="318" rx="34" fill="rgba(255,255,255,.62)" stroke="#0f5fa8" stroke-opacity=".12"/><path d="M58 240C132 180 160 208 220 126s106-30 166-104" fill="none" stroke="#12213a" stroke-width="24" stroke-linecap="round"/><path d="M58 250h340" stroke="#0f5fa8" stroke-opacity=".18" stroke-width="5"/><rect x="70" y="168" width="42" height="90" rx="12" fill="#f6c915" opacity=".86"/><rect x="146" y="118" width="42" height="140" rx="12" fill="#63e8ff" opacity=".86"/><rect x="222" y="72" width="42" height="186" rx="12" fill="#12213a" opacity=".9"/></g></g>
  <g filter="url(#shadow)" opacity=".82"><circle cx="142" cy="474" r="42" fill="#f6c915" opacity=".44"/><circle cx="224" cy="506" r="26" fill="#63e8ff" opacity=".5"/><circle cx="304" cy="458" r="18" fill="#12213a" opacity=".16"/></g>
</svg>