<svg xmlns="http://www.w3.org/2000/svg" width="1200" height="675" viewBox="0 0 1200 675" role="img" aria-labelledby="title desc">
  <title id="title">What Support Will I Get From a Tokenization Provider?</title>
  <desc id="desc">Editorial infrastructure visual for Tokenization.</desc>
  <defs>
    <radialGradient id="g1" cx="18%" cy="14%" r="60%"><stop stop-color="#9b7cff" stop-opacity=".48"/><stop offset="1" stop-color="#f6f2ff" stop-opacity="0"/></radialGradient>
    <radialGradient id="g2" cx="86%" cy="12%" r="58%"><stop stop-color="#ffdf45" stop-opacity=".42"/><stop offset="1" stop-color="#f6f2ff" stop-opacity="0"/></radialGradient>
    <linearGradient id="split" x1="0" x2="1"><stop stop-color="#f6f2ff"/><stop offset=".55" stop-color="#f6f2ff"/><stop offset=".55" stop-color="#eef8ff"/><stop offset="1" stop-color="#fff7d1"/></linearGradient>
    <filter id="shadow" x="-20%" y="-20%" width="140%" height="140%"><feDropShadow dx="0" dy="22" stdDeviation="22" flood-color="#12213a" flood-opacity=".14"/></filter>
  </defs>
  <rect width="1200" height="675" fill="#f6f2ff"/>
  <rect width="1200" height="675" fill="url(#g1)"/>
  <rect width="1200" height="675" fill="url(#g2)"/>
  <g opacity=".9"><path d="M80 80l38 22v44l-38 22-38-22v-44z" fill="none" stroke="#27144a" stroke-opacity=".12" stroke-width="3"/><path d="M158 80l38 22v44l-38 22-38-22v-44z" fill="none" stroke="#9b7cff" stroke-opacity=".12" stroke-width="3"/><path d="M236 80l38 22v44l-38 22-38-22v-44z" fill="none" stroke="#27144a" stroke-opacity=".12" stroke-width="3"/><path d="M314 80l38 22v44l-38 22-38-22v-44z" fill="none" stroke="#9b7cff" stroke-opacity=".12" stroke-width="3"/><path d="M392 80l38 22v44l-38 22-38-22v-44z" fill="none" stroke="#27144a" stroke-opacity=".12" stroke-width="3"/><path d="M470 80l38 22v44l-38 22-38-22v-44z" fill="none" stroke="#9b7cff" stroke-opacity=".12" stroke-width="3"/><path d="M548 80l38 22v44l-38 22-38-22v-44z" fill="none" stroke="#27144a" stroke-opacity=".12" stroke-width="3"/><path d="M626 80l38 22v44l-38 22-38-22v-44z" fill="none" stroke="#9b7cff" stroke-opacity=".12" stroke-width="3"/><path d="M704 80l38 22v44l-38 22-38-22v-44z" fill="none" stroke="#27144a" stroke-opacity=".12" stroke-width="3"/><path d="M782 80l38 22v44l-38 22-38-22v-44z" fill="none" stroke="#9b7cff" stroke-opacity=".12" stroke-width="3"/><path d="M860 80l38 22v44l-38 22-38-22v-44z" fill="none" stroke="#27144a" stroke-opacity=".12" stroke-width="3"/><path d="M938 80l38 22v44l-38 22-38-22v-44z" fill="none" stroke="#9b7cff" stroke-opacity=".12" stroke-width="3"/><path d="M1016 80l38 22v44l-38 22-38-22v-44z" fill="none" stroke="#27144a" stroke-opacity=".12" stroke-width="3"/><path d="M1094 80l38 22v44l-38 22-38-22v-44z" fill="none" stroke="#9b7cff" stroke-opacity=".12" stroke-width="3"/></g>
  <g><line x1="611" y1="309" x2="148" y2="206" stroke="#27144a" stroke-opacity=".13" stroke-width="1.5"/><line x1="148" y1="206" x2="625" y2="543" stroke="#27144a" stroke-opacity=".13" stroke-width="2.5"/><line x1="625" y1="543" x2="162" y2="440" stroke="#27144a" stroke-opacity=".13" stroke-width="3.5"/><line x1="162" y1="440" x2="639" y2="337" stroke="#27144a" stroke-opacity=".13" stroke-width="1.5"/><line x1="639" y1="337" x2="176" y2="234" stroke="#27144a" stroke-opacity=".13" stroke-width="2.5"/><line x1="176" y1="234" x2="653" y2="571" stroke="#27144a" stroke-opacity=".13" stroke-width="3.5"/><line x1="653" y1="571" x2="190" y2="468" stroke="#27144a" stroke-opacity=".13" stroke-width="1.5"/><circle cx="611" cy="309" r="7" fill="#ffdf45" opacity="0.64"/><circle cx="148" cy="206" r="10" fill="#9b7cff" opacity="0.615"/><circle cx="625" cy="543" r="13" fill="#ffdf45" opacity="0.59"/><circle cx="162" cy="440" r="16" fill="#9b7cff" opacity="0.565"/><circle cx="639" cy="337" r="7" fill="#ffdf45" opacity="0.54"/><circle cx="176" cy="234" r="10" fill="#9b7cff" opacity="0.515"/><circle cx="653" cy="571" r="13" fill="#ffdf45" opacity="0.49"/><circle cx="190" cy="468" r="16" fill="#9b7cff" opacity="0.46499999999999997"/></g>
  <g transform="translate(-300 0)"><rect x="640" y="86" width="492" height="438" rx="40" fill="#fff" opacity=".44"/><path d="M690 524h392" stroke="#0f5fa8" stroke-opacity=".18" stroke-width="14" stroke-linecap="round"/></g>
  <g transform="translate(-300 0)" filter="url(#shadow)"><g transform="translate(708 112)"><rect x="0" y="0" width="424" height="332" rx="34" fill="#0f5fa8" opacity=".92"/><rect x="36" y="42" width="352" height="54" rx="18" fill="#fff" opacity=".78"/><circle cx="70" cy="69" r="14" fill="#9b7cff"/><path d="M116 69h218" stroke="#27144a" stroke-width="12" stroke-linecap="round" opacity=".45"/><rect x="36" y="124" width="352" height="46" rx="18" fill="#ffdf45" opacity=".76"/><rect x="36" y="192" width="352" height="46" rx="18" fill="#9b7cff" opacity=".76"/><rect x="36" y="260" width="352" height="46" rx="18" fill="#ffdf45" opacity=".76"/></g></g>
  <g filter="url(#shadow)" opacity=".82"><circle cx="142" cy="474" r="42" fill="#9b7cff" opacity=".44"/><circle cx="224" cy="506" r="26" fill="#ffdf45" opacity=".5"/><circle cx="304" cy="458" r="18" fill="#0f5fa8" opacity=".16"/></g>
</svg>