<svg xmlns="http://www.w3.org/2000/svg" width="1200" height="675" viewBox="0 0 1200 675" role="img" aria-labelledby="title desc">
  <title id="title">What Problems Can Tokenization Actually Solve?</title>
  <desc id="desc">Editorial infrastructure visual for Tokenization.</desc>
  <defs>
    <radialGradient id="g1" cx="18%" cy="14%" r="60%"><stop stop-color="#9b7cff" stop-opacity=".48"/><stop offset="1" stop-color="#eef8ff" stop-opacity="0"/></radialGradient>
    <radialGradient id="g2" cx="86%" cy="12%" r="58%"><stop stop-color="#ffe36e" stop-opacity=".42"/><stop offset="1" stop-color="#eef8ff" stop-opacity="0"/></radialGradient>
    <linearGradient id="split" x1="0" x2="1"><stop stop-color="#eef8ff"/><stop offset=".55" stop-color="#eef8ff"/><stop offset=".55" stop-color="#fffdf2"/><stop offset="1" stop-color="#eef8ff"/></linearGradient>
    <filter id="shadow" x="-20%" y="-20%" width="140%" height="140%"><feDropShadow dx="0" dy="22" stdDeviation="22" flood-color="#12213a" flood-opacity=".14"/></filter>
  </defs>
  <rect width="1200" height="675" fill="url(#split)"/>
  <rect width="1200" height="675" fill="url(#g1)"/>
  <rect width="1200" height="675" fill="url(#g2)"/>
  <g opacity=".9"><path d="M-120 675  220 0" stroke="#12213a" stroke-opacity=".12" stroke-width="4"/><path d="M18 675  312 0" stroke="#ffe36e" stroke-opacity=".12" stroke-width="5"/><path d="M156 675  404 0" stroke="#12213a" stroke-opacity=".12" stroke-width="6"/><path d="M294 675  496 0" stroke="#ffe36e" stroke-opacity=".12" stroke-width="7"/><path d="M432 675  588 0" stroke="#12213a" stroke-opacity=".12" stroke-width="4"/><path d="M570 675  680 0" stroke="#ffe36e" stroke-opacity=".12" stroke-width="5"/><path d="M708 675  772 0" stroke="#12213a" stroke-opacity=".12" stroke-width="6"/><path d="M846 675  864 0" stroke="#ffe36e" stroke-opacity=".12" stroke-width="7"/><path d="M984 675  956 0" stroke="#12213a" stroke-opacity=".12" stroke-width="4"/><path d="M1122 675  1048 0" stroke="#ffe36e" stroke-opacity=".12" stroke-width="5"/><path d="M1260 675  1140 0" stroke="#12213a" stroke-opacity=".12" stroke-width="6"/></g>
  <g><line x1="646" y1="404" x2="508" y2="566" stroke="#164b7a" stroke-opacity=".13" stroke-width="1.5"/><line x1="508" y1="566" x2="370" y2="288" stroke="#164b7a" stroke-opacity=".13" stroke-width="2.5"/><line x1="370" y1="288" x2="232" y2="450" stroke="#164b7a" stroke-opacity=".13" stroke-width="3.5"/><line x1="232" y1="450" x2="1034" y2="172" stroke="#164b7a" stroke-opacity=".13" stroke-width="1.5"/><line x1="1034" y1="172" x2="896" y2="334" stroke="#164b7a" stroke-opacity=".13" stroke-width="2.5"/><line x1="896" y1="334" x2="758" y2="496" stroke="#164b7a" stroke-opacity=".13" stroke-width="3.5"/><line x1="758" y1="496" x2="620" y2="218" stroke="#164b7a" stroke-opacity=".13" stroke-width="1.5"/><circle cx="646" cy="404" r="7" fill="#ffe36e" opacity="0.64"/><circle cx="508" cy="566" r="10" fill="#9b7cff" opacity="0.615"/><circle cx="370" cy="288" r="13" fill="#ffe36e" opacity="0.59"/><circle cx="232" cy="450" r="16" fill="#9b7cff" opacity="0.565"/><circle cx="1034" cy="172" r="7" fill="#ffe36e" opacity="0.54"/><circle cx="896" cy="334" r="10" fill="#9b7cff" opacity="0.515"/><circle cx="758" cy="496" r="13" fill="#ffe36e" opacity="0.49"/><circle cx="620" cy="218" r="16" fill="#9b7cff" opacity="0.46499999999999997"/></g>
  <g transform="translate(-300 0)"><circle cx="890" cy="316" r="282" fill="#fff" opacity=".28"/><path d="M618 316h544M890 58v516" stroke="#12213a" stroke-opacity=".08" stroke-width="4"/></g>
  <g transform="translate(-300 0)" filter="url(#shadow)"><g transform="translate(708 112)"><rect x="0" y="0" width="424" height="332" rx="34" fill="#164b7a" opacity=".92"/><rect x="36" y="42" width="352" height="54" rx="18" fill="#fff" opacity=".78"/><circle cx="70" cy="69" r="14" fill="#9b7cff"/><path d="M116 69h218" stroke="#12213a" stroke-width="12" stroke-linecap="round" opacity=".45"/><rect x="36" y="124" width="352" height="46" rx="18" fill="#ffe36e" opacity=".76"/><rect x="36" y="192" width="352" height="46" rx="18" fill="#9b7cff" opacity=".76"/><rect x="36" y="260" width="352" height="46" rx="18" fill="#ffe36e" opacity=".76"/></g></g>
  <g filter="url(#shadow)" opacity=".82"><circle cx="142" cy="474" r="42" fill="#9b7cff" opacity=".44"/><circle cx="224" cy="506" r="26" fill="#ffe36e" opacity=".5"/><circle cx="304" cy="458" r="18" fill="#164b7a" opacity=".16"/></g>
</svg>