<svg xmlns="http://www.w3.org/2000/svg" width="1200" height="675" viewBox="0 0 1200 675" role="img" aria-labelledby="title desc">
  <title id="title">What Is RWA Tokenization Infrastructure?</title>
  <desc id="desc">Editorial infrastructure visual for Tokenization.</desc>
  <defs>
    <radialGradient id="g1" cx="18%" cy="14%" r="60%"><stop stop-color="#f6c915" stop-opacity=".48"/><stop offset="1" stop-color="#fff7d1" stop-opacity="0"/></radialGradient>
    <radialGradient id="g2" cx="86%" cy="12%" r="58%"><stop stop-color="#63e8ff" stop-opacity=".42"/><stop offset="1" stop-color="#fff7d1" stop-opacity="0"/></radialGradient>
    <linearGradient id="split" x1="0" x2="1"><stop stop-color="#fff7d1"/><stop offset=".55" stop-color="#fff7d1"/><stop offset=".55" stop-color="#eef8ff"/><stop offset="1" stop-color="#fff7d1"/></linearGradient>
    <filter id="shadow" x="-20%" y="-20%" width="140%" height="140%"><feDropShadow dx="0" dy="22" stdDeviation="22" flood-color="#12213a" flood-opacity=".14"/></filter>
  </defs>
  <rect width="1200" height="675" fill="#fff7d1"/>
  <rect width="1200" height="675" fill="url(#g1)"/>
  <rect width="1200" height="675" fill="url(#g2)"/>
  <g opacity=".9"><path d="M80 80l38 22v44l-38 22-38-22v-44z" fill="none" stroke="#0f5fa8" stroke-opacity=".12" stroke-width="3"/><path d="M158 80l38 22v44l-38 22-38-22v-44z" fill="none" stroke="#f6c915" stroke-opacity=".12" stroke-width="3"/><path d="M236 80l38 22v44l-38 22-38-22v-44z" fill="none" stroke="#0f5fa8" stroke-opacity=".12" stroke-width="3"/><path d="M314 80l38 22v44l-38 22-38-22v-44z" fill="none" stroke="#f6c915" stroke-opacity=".12" stroke-width="3"/><path d="M392 80l38 22v44l-38 22-38-22v-44z" fill="none" stroke="#0f5fa8" stroke-opacity=".12" stroke-width="3"/><path d="M470 80l38 22v44l-38 22-38-22v-44z" fill="none" stroke="#f6c915" stroke-opacity=".12" stroke-width="3"/><path d="M548 80l38 22v44l-38 22-38-22v-44z" fill="none" stroke="#0f5fa8" stroke-opacity=".12" stroke-width="3"/><path d="M626 80l38 22v44l-38 22-38-22v-44z" fill="none" stroke="#f6c915" stroke-opacity=".12" stroke-width="3"/><path d="M704 80l38 22v44l-38 22-38-22v-44z" fill="none" stroke="#0f5fa8" stroke-opacity=".12" stroke-width="3"/><path d="M782 80l38 22v44l-38 22-38-22v-44z" fill="none" stroke="#f6c915" stroke-opacity=".12" stroke-width="3"/><path d="M860 80l38 22v44l-38 22-38-22v-44z" fill="none" stroke="#0f5fa8" stroke-opacity=".12" stroke-width="3"/><path d="M938 80l38 22v44l-38 22-38-22v-44z" fill="none" stroke="#f6c915" stroke-opacity=".12" stroke-width="3"/><path d="M1016 80l38 22v44l-38 22-38-22v-44z" fill="none" stroke="#0f5fa8" stroke-opacity=".12" stroke-width="3"/><path d="M1094 80l38 22v44l-38 22-38-22v-44z" fill="none" stroke="#f6c915" stroke-opacity=".12" stroke-width="3"/></g>
  <g><line x1="882" y1="528" x2="196" y2="582" stroke="#0f5fa8" stroke-opacity=".13" stroke-width="1.5"/><line x1="196" y1="582" x2="450" y2="196" stroke="#0f5fa8" stroke-opacity=".13" stroke-width="2.5"/><line x1="450" y1="196" x2="704" y2="250" stroke="#0f5fa8" stroke-opacity=".13" stroke-width="3.5"/><line x1="704" y1="250" x2="958" y2="304" stroke="#0f5fa8" stroke-opacity=".13" stroke-width="1.5"/><line x1="958" y1="304" x2="272" y2="358" stroke="#0f5fa8" stroke-opacity=".13" stroke-width="2.5"/><line x1="272" y1="358" x2="526" y2="412" stroke="#0f5fa8" stroke-opacity=".13" stroke-width="3.5"/><circle cx="882" cy="528" r="7" fill="#63e8ff" opacity="0.64"/><circle cx="196" cy="582" r="10" fill="#f6c915" opacity="0.615"/><circle cx="450" cy="196" r="13" fill="#63e8ff" opacity="0.59"/><circle cx="704" cy="250" r="16" fill="#f6c915" opacity="0.565"/><circle cx="958" cy="304" r="7" fill="#63e8ff" opacity="0.54"/><circle cx="272" cy="358" r="10" fill="#f6c915" opacity="0.515"/><circle cx="526" cy="412" r="13" fill="#63e8ff" opacity="0.49"/></g>
  <g transform="translate(-300 0)"><rect x="640" y="86" width="492" height="438" rx="40" fill="#fff" opacity=".44"/><path d="M690 524h392" stroke="#12213a" stroke-opacity=".18" stroke-width="14" stroke-linecap="round"/></g>
  <g transform="translate(-300 0)" filter="url(#shadow)"><g transform="translate(728 100)"><polygon points="190,0 354,94 354,282 190,376 26,282 26,94" fill="#12213a" opacity=".92"/><polygon points="190,54 306,122 306,254 190,322 74,254 74,122" fill="#f6c915" opacity=".78"/><circle cx="190" cy="188" r="78" fill="#63e8ff" opacity=".9"/><path d="M190 120v136M122 188h136" stroke="#12213a" stroke-width="22" stroke-linecap="round"/></g></g>
  <g filter="url(#shadow)" opacity=".82"><circle cx="142" cy="474" r="42" fill="#f6c915" opacity=".44"/><circle cx="224" cy="506" r="26" fill="#63e8ff" opacity=".5"/><circle cx="304" cy="458" r="18" fill="#12213a" opacity=".16"/></g>
</svg>