<svg xmlns="http://www.w3.org/2000/svg" width="1200" height="675" viewBox="0 0 1200 675" role="img" aria-labelledby="title desc">
  <title id="title">What Happens if My Tokenization Platform Shuts Down?</title>
  <desc id="desc">Editorial infrastructure visual for Tokenization.</desc>
  <defs>
    <radialGradient id="g1" cx="18%" cy="14%" r="60%"><stop stop-color="#4cb2e0" stop-opacity=".48"/><stop offset="1" stop-color="#f2f7ff" stop-opacity="0"/></radialGradient>
    <radialGradient id="g2" cx="86%" cy="12%" r="58%"><stop stop-color="#ffb84d" stop-opacity=".42"/><stop offset="1" stop-color="#f2f7ff" stop-opacity="0"/></radialGradient>
    <linearGradient id="split" x1="0" x2="1"><stop stop-color="#f2f7ff"/><stop offset=".55" stop-color="#f2f7ff"/><stop offset=".55" stop-color="#fffdf2"/><stop offset="1" stop-color="#eef8ff"/></linearGradient>
    <filter id="shadow" x="-20%" y="-20%" width="140%" height="140%"><feDropShadow dx="0" dy="22" stdDeviation="22" flood-color="#12213a" flood-opacity=".14"/></filter>
  </defs>
  <rect width="1200" height="675" fill="#f2f7ff"/>
  <rect width="1200" height="675" fill="url(#g1)"/>
  <rect width="1200" height="675" fill="url(#g2)"/>
  <g opacity=".9"><circle cx="100" cy="110" r="42" fill="#ffb84d" opacity=".12"/><circle cx="196" cy="228" r="64" fill="#4cb2e0" opacity=".12"/><circle cx="292" cy="346" r="86" fill="#ffb84d" opacity=".12"/><circle cx="388" cy="464" r="42" fill="#4cb2e0" opacity=".12"/><circle cx="484" cy="110" r="64" fill="#ffb84d" opacity=".12"/><circle cx="580" cy="228" r="86" fill="#4cb2e0" opacity=".12"/><circle cx="676" cy="346" r="42" fill="#ffb84d" opacity=".12"/><circle cx="772" cy="464" r="64" fill="#4cb2e0" opacity=".12"/><circle cx="868" cy="110" r="86" fill="#ffb84d" opacity=".12"/><circle cx="964" cy="228" r="42" fill="#4cb2e0" opacity=".12"/><circle cx="1060" cy="346" r="64" fill="#ffb84d" opacity=".12"/><circle cx="1156" cy="464" r="86" fill="#4cb2e0" opacity=".12"/></g>
  <g><line x1="458" y1="392" x2="884" y2="238" stroke="#12213a" stroke-opacity=".13" stroke-width="1.5"/><line x1="884" y1="238" x2="370" y2="524" stroke="#12213a" stroke-opacity=".13" stroke-width="2.5"/><line x1="370" y1="524" x2="796" y2="370" stroke="#12213a" stroke-opacity=".13" stroke-width="3.5"/><line x1="796" y1="370" x2="282" y2="216" stroke="#12213a" stroke-opacity=".13" stroke-width="1.5"/><line x1="282" y1="216" x2="708" y2="502" stroke="#12213a" stroke-opacity=".13" stroke-width="2.5"/><line x1="708" y1="502" x2="194" y2="348" stroke="#12213a" stroke-opacity=".13" stroke-width="3.5"/><line x1="194" y1="348" x2="620" y2="194" stroke="#12213a" stroke-opacity=".13" stroke-width="1.5"/><line x1="620" y1="194" x2="1046" y2="480" stroke="#12213a" stroke-opacity=".13" stroke-width="2.5"/><circle cx="458" cy="392" r="7" fill="#ffb84d" opacity="0.64"/><circle cx="884" cy="238" r="10" fill="#4cb2e0" opacity="0.615"/><circle cx="370" cy="524" r="13" fill="#ffb84d" opacity="0.59"/><circle cx="796" cy="370" r="16" fill="#4cb2e0" opacity="0.565"/><circle cx="282" cy="216" r="7" fill="#ffb84d" opacity="0.54"/><circle cx="708" cy="502" r="10" fill="#4cb2e0" opacity="0.515"/><circle cx="194" cy="348" r="13" fill="#ffb84d" opacity="0.49"/><circle cx="620" cy="194" r="16" fill="#4cb2e0" opacity="0.46499999999999997"/><circle cx="1046" cy="480" r="7" fill="#ffb84d" opacity="0.44"/></g>
  <g transform="translate(-300 0)"><circle cx="900" cy="316" r="254" fill="#fff" opacity=".38"/><circle cx="900" cy="316" r="176" fill="#ffb84d" opacity=".16"/></g>
  <g transform="translate(-300 0)" filter="url(#shadow)"><g transform="translate(700 96)"><circle cx="208" cy="208" r="178" fill="#12213a" opacity=".92"/><circle cx="208" cy="208" r="130" fill="#4cb2e0" opacity=".55"/><path d="M50 208h316M208 32c-76 68-76 284 0 352M208 32c76 68 76 284 0 352" fill="none" stroke="#ffb84d" stroke-width="14" stroke-linecap="round" opacity=".82"/><circle cx="300" cy="146" r="20" fill="#fff" opacity=".86"/><circle cx="142" cy="270" r="17" fill="#ffb84d"/></g></g>
  <g filter="url(#shadow)" opacity=".82"><circle cx="142" cy="474" r="42" fill="#4cb2e0" opacity=".44"/><circle cx="224" cy="506" r="26" fill="#ffb84d" opacity=".5"/><circle cx="304" cy="458" r="18" fill="#12213a" opacity=".16"/></g>
</svg>