<svg xmlns="http://www.w3.org/2000/svg" width="1200" height="675" viewBox="0 0 1200 675" role="img" aria-labelledby="title desc">
  <title id="title">What's the Difference Between Tokenization Methods?</title>
  <desc id="desc">Editorial infrastructure visual for Tokenization.</desc>
  <defs>
    <radialGradient id="g1" cx="18%" cy="14%" r="60%"><stop stop-color="#62e6b8" stop-opacity=".48"/><stop offset="1" stop-color="#f8fbff" stop-opacity="0"/></radialGradient>
    <radialGradient id="g2" cx="86%" cy="12%" r="58%"><stop stop-color="#ffdf45" stop-opacity=".42"/><stop offset="1" stop-color="#f8fbff" stop-opacity="0"/></radialGradient>
    <linearGradient id="split" x1="0" x2="1"><stop stop-color="#f8fbff"/><stop offset=".55" stop-color="#f8fbff"/><stop offset=".55" stop-color="#fffdf2"/><stop offset="1" stop-color="#eef8ff"/></linearGradient>
    <filter id="shadow" x="-20%" y="-20%" width="140%" height="140%"><feDropShadow dx="0" dy="22" stdDeviation="22" flood-color="#12213a" flood-opacity=".14"/></filter>
  </defs>
  <rect width="1200" height="675" fill="#f8fbff"/>
  <rect width="1200" height="675" fill="url(#g1)"/>
  <rect width="1200" height="675" fill="url(#g2)"/>
  <g opacity=".9"><circle cx="100" cy="110" r="42" fill="#ffdf45" opacity=".12"/><circle cx="196" cy="228" r="64" fill="#62e6b8" opacity=".12"/><circle cx="292" cy="346" r="86" fill="#ffdf45" opacity=".12"/><circle cx="388" cy="464" r="42" fill="#62e6b8" opacity=".12"/><circle cx="484" cy="110" r="64" fill="#ffdf45" opacity=".12"/><circle cx="580" cy="228" r="86" fill="#62e6b8" opacity=".12"/><circle cx="676" cy="346" r="42" fill="#ffdf45" opacity=".12"/><circle cx="772" cy="464" r="64" fill="#62e6b8" opacity=".12"/><circle cx="868" cy="110" r="86" fill="#ffdf45" opacity=".12"/><circle cx="964" cy="228" r="42" fill="#62e6b8" opacity=".12"/><circle cx="1060" cy="346" r="64" fill="#ffdf45" opacity=".12"/><circle cx="1156" cy="464" r="86" fill="#62e6b8" opacity=".12"/></g>
  <g><line x1="990" y1="320" x2="340" y2="470" stroke="#0f5fa8" stroke-opacity=".13" stroke-width="1.5"/><line x1="340" y1="470" x2="630" y2="180" stroke="#0f5fa8" stroke-opacity=".13" stroke-width="2.5"/><line x1="630" y1="180" x2="920" y2="330" stroke="#0f5fa8" stroke-opacity=".13" stroke-width="3.5"/><line x1="920" y1="330" x2="270" y2="480" stroke="#0f5fa8" stroke-opacity=".13" stroke-width="1.5"/><line x1="270" y1="480" x2="560" y2="190" stroke="#0f5fa8" stroke-opacity=".13" stroke-width="2.5"/><line x1="560" y1="190" x2="850" y2="340" stroke="#0f5fa8" stroke-opacity=".13" stroke-width="3.5"/><line x1="850" y1="340" x2="200" y2="490" stroke="#0f5fa8" stroke-opacity=".13" stroke-width="1.5"/><line x1="200" y1="490" x2="490" y2="200" stroke="#0f5fa8" stroke-opacity=".13" stroke-width="2.5"/><line x1="490" y1="200" x2="780" y2="350" stroke="#0f5fa8" stroke-opacity=".13" stroke-width="3.5"/><circle cx="990" cy="320" r="7" fill="#ffdf45" opacity="0.64"/><circle cx="340" cy="470" r="10" fill="#62e6b8" opacity="0.615"/><circle cx="630" cy="180" r="13" fill="#ffdf45" opacity="0.59"/><circle cx="920" cy="330" r="16" fill="#62e6b8" opacity="0.565"/><circle cx="270" cy="480" r="7" fill="#ffdf45" opacity="0.54"/><circle cx="560" cy="190" r="10" fill="#62e6b8" opacity="0.515"/><circle cx="850" cy="340" r="13" fill="#ffdf45" opacity="0.49"/><circle cx="200" cy="490" r="16" fill="#62e6b8" opacity="0.46499999999999997"/><circle cx="490" cy="200" r="7" fill="#ffdf45" opacity="0.44"/><circle cx="780" cy="350" r="10" fill="#62e6b8" opacity="0.41500000000000004"/></g>
  <g transform="translate(-300 0)"><circle cx="900" cy="316" r="254" fill="#fff" opacity=".38"/><circle cx="900" cy="316" r="176" fill="#ffdf45" opacity=".16"/></g>
  <g transform="translate(-300 0)" filter="url(#shadow)"><g transform="translate(724 116)"><polygon points="160,0 306,82 160,164 14,82" fill="#ffdf45" opacity=".8"/><polygon points="14,82 160,164 160,314 14,230" fill="#0f5fa8" opacity=".92"/><polygon points="306,82 160,164 160,314 306,230" fill="#62e6b8" opacity=".82"/><polygon points="250,136 396,218 250,300 104,218" fill="#fff" opacity=".55"/><polygon points="104,218 250,300 250,390 104,308" fill="#0d2b4d" opacity=".65"/><polygon points="396,218 250,300 250,390 396,308" fill="#ffdf45" opacity=".58"/></g></g>
  <g filter="url(#shadow)" opacity=".82"><circle cx="142" cy="474" r="42" fill="#62e6b8" opacity=".44"/><circle cx="224" cy="506" r="26" fill="#ffdf45" opacity=".5"/><circle cx="304" cy="458" r="18" fill="#0f5fa8" opacity=".16"/></g>
</svg>