<svg xmlns="http://www.w3.org/2000/svg" width="1200" height="675" viewBox="0 0 1200 675" role="img" aria-labelledby="title desc">
  <title id="title">What Are the Real Benefits of Tokenizing Assets?</title>
  <desc id="desc">Editorial infrastructure visual for Tokenization.</desc>
  <defs>
    <radialGradient id="g1" cx="18%" cy="14%" r="60%"><stop stop-color="#62e6b8" stop-opacity=".48"/><stop offset="1" stop-color="#f8fbff" stop-opacity="0"/></radialGradient>
    <radialGradient id="g2" cx="86%" cy="12%" r="58%"><stop stop-color="#ffdf45" stop-opacity=".42"/><stop offset="1" stop-color="#f8fbff" stop-opacity="0"/></radialGradient>
    <linearGradient id="split" x1="0" x2="1"><stop stop-color="#f8fbff"/><stop offset=".55" stop-color="#f8fbff"/><stop offset=".55" stop-color="#fffdf2"/><stop offset="1" stop-color="#eef8ff"/></linearGradient>
    <filter id="shadow" x="-20%" y="-20%" width="140%" height="140%"><feDropShadow dx="0" dy="22" stdDeviation="22" flood-color="#12213a" flood-opacity=".14"/></filter>
  </defs>
  <rect width="1200" height="675" fill="#f8fbff"/>
  <rect width="1200" height="675" fill="url(#g1)"/>
  <rect width="1200" height="675" fill="url(#g2)"/>
  <g opacity=".9"><rect x="70" y="64" width="72" height="72" rx="20" fill="#62e6b8" opacity=".13" transform="rotate(-8 100 90)"/><rect x="202" y="214" width="100" height="114" rx="20" fill="#ffdf45" opacity=".13" transform="rotate(8 232 240)"/><rect x="334" y="364" width="128" height="72" rx="20" fill="#62e6b8" opacity=".13" transform="rotate(-8 364 390)"/><rect x="466" y="64" width="156" height="114" rx="20" fill="#ffdf45" opacity=".13" transform="rotate(8 496 90)"/><rect x="598" y="214" width="72" height="72" rx="20" fill="#62e6b8" opacity=".13" transform="rotate(-8 628 240)"/><rect x="730" y="364" width="100" height="114" rx="20" fill="#ffdf45" opacity=".13" transform="rotate(8 760 390)"/><rect x="862" y="64" width="128" height="72" rx="20" fill="#62e6b8" opacity=".13" transform="rotate(-8 892 90)"/><rect x="994" y="214" width="156" height="114" rx="20" fill="#ffdf45" opacity=".13" transform="rotate(8 1024 240)"/></g>
  <g><line x1="802" y1="328" x2="716" y2="542" stroke="#0f5fa8" stroke-opacity=".13" stroke-width="1.5"/><line x1="716" y1="542" x2="630" y2="316" stroke="#0f5fa8" stroke-opacity=".13" stroke-width="2.5"/><line x1="630" y1="316" x2="544" y2="530" stroke="#0f5fa8" stroke-opacity=".13" stroke-width="3.5"/><line x1="544" y1="530" x2="458" y2="304" stroke="#0f5fa8" stroke-opacity=".13" stroke-width="1.5"/><line x1="458" y1="304" x2="372" y2="518" stroke="#0f5fa8" stroke-opacity=".13" stroke-width="2.5"/><line x1="372" y1="518" x2="286" y2="292" stroke="#0f5fa8" stroke-opacity=".13" stroke-width="3.5"/><line x1="286" y1="292" x2="200" y2="506" stroke="#0f5fa8" stroke-opacity=".13" stroke-width="1.5"/><line x1="200" y1="506" x2="1054" y2="280" stroke="#0f5fa8" stroke-opacity=".13" stroke-width="2.5"/><line x1="1054" y1="280" x2="968" y2="494" stroke="#0f5fa8" stroke-opacity=".13" stroke-width="3.5"/><circle cx="802" cy="328" r="7" fill="#ffdf45" opacity="0.64"/><circle cx="716" cy="542" r="10" fill="#62e6b8" opacity="0.615"/><circle cx="630" cy="316" r="13" fill="#ffdf45" opacity="0.59"/><circle cx="544" cy="530" r="16" fill="#62e6b8" opacity="0.565"/><circle cx="458" cy="304" r="7" fill="#ffdf45" opacity="0.54"/><circle cx="372" cy="518" r="10" fill="#62e6b8" opacity="0.515"/><circle cx="286" cy="292" r="13" fill="#ffdf45" opacity="0.49"/><circle cx="200" cy="506" r="16" fill="#62e6b8" opacity="0.46499999999999997"/><circle cx="1054" cy="280" r="7" fill="#ffdf45" opacity="0.44"/><circle cx="968" cy="494" r="10" fill="#62e6b8" opacity="0.41500000000000004"/></g>
  <g transform="translate(-300 0)"><path d="M630 132C770 48 1014 72 1130 210c108 128 8 302-150 356-184 62-396-12-432-178-22-104 6-210 82-256Z" fill="#fff" opacity=".42"/></g>
  <g transform="translate(-300 0)" filter="url(#shadow)"><g transform="translate(724 116)"><polygon points="160,0 306,82 160,164 14,82" fill="#ffdf45" opacity=".8"/><polygon points="14,82 160,164 160,314 14,230" fill="#0f5fa8" opacity=".92"/><polygon points="306,82 160,164 160,314 306,230" fill="#62e6b8" opacity=".82"/><polygon points="250,136 396,218 250,300 104,218" fill="#fff" opacity=".55"/><polygon points="104,218 250,300 250,390 104,308" fill="#0d2b4d" opacity=".65"/><polygon points="396,218 250,300 250,390 396,308" fill="#ffdf45" opacity=".58"/></g></g>
  <g filter="url(#shadow)" opacity=".82"><circle cx="142" cy="474" r="42" fill="#62e6b8" opacity=".44"/><circle cx="224" cy="506" r="26" fill="#ffdf45" opacity=".5"/><circle cx="304" cy="458" r="18" fill="#0f5fa8" opacity=".16"/></g>
</svg>