<svg xmlns="http://www.w3.org/2000/svg" width="1200" height="675" viewBox="0 0 1200 675" role="img" aria-labelledby="title desc">
  <title id="title">What Blockchain Should I Use for Tokenization?</title>
  <desc id="desc">Editorial infrastructure visual for Tokenization.</desc>
  <defs>
    <radialGradient id="g1" cx="18%" cy="14%" r="60%"><stop stop-color="#d49b12" stop-opacity=".48"/><stop offset="1" stop-color="#fff4e8" stop-opacity="0"/></radialGradient>
    <radialGradient id="g2" cx="86%" cy="12%" r="58%"><stop stop-color="#3f8cff" stop-opacity=".42"/><stop offset="1" stop-color="#fff4e8" stop-opacity="0"/></radialGradient>
    <linearGradient id="split" x1="0" x2="1"><stop stop-color="#fff4e8"/><stop offset=".55" stop-color="#fff4e8"/><stop offset=".55" stop-color="#eef8ff"/><stop offset="1" stop-color="#fff7d1"/></linearGradient>
    <filter id="shadow" x="-20%" y="-20%" width="140%" height="140%"><feDropShadow dx="0" dy="22" stdDeviation="22" flood-color="#12213a" flood-opacity=".14"/></filter>
  </defs>
  <rect width="1200" height="675" fill="#fff4e8"/>
  <rect width="1200" height="675" fill="url(#g1)"/>
  <rect width="1200" height="675" fill="url(#g2)"/>
  <g opacity=".9"><path d="M80 80l38 22v44l-38 22-38-22v-44z" fill="none" stroke="#172033" stroke-opacity=".12" stroke-width="3"/><path d="M158 80l38 22v44l-38 22-38-22v-44z" fill="none" stroke="#d49b12" stroke-opacity=".12" stroke-width="3"/><path d="M236 80l38 22v44l-38 22-38-22v-44z" fill="none" stroke="#172033" stroke-opacity=".12" stroke-width="3"/><path d="M314 80l38 22v44l-38 22-38-22v-44z" fill="none" stroke="#d49b12" stroke-opacity=".12" stroke-width="3"/><path d="M392 80l38 22v44l-38 22-38-22v-44z" fill="none" stroke="#172033" stroke-opacity=".12" stroke-width="3"/><path d="M470 80l38 22v44l-38 22-38-22v-44z" fill="none" stroke="#d49b12" stroke-opacity=".12" stroke-width="3"/><path d="M548 80l38 22v44l-38 22-38-22v-44z" fill="none" stroke="#172033" stroke-opacity=".12" stroke-width="3"/><path d="M626 80l38 22v44l-38 22-38-22v-44z" fill="none" stroke="#d49b12" stroke-opacity=".12" stroke-width="3"/><path d="M704 80l38 22v44l-38 22-38-22v-44z" fill="none" stroke="#172033" stroke-opacity=".12" stroke-width="3"/><path d="M782 80l38 22v44l-38 22-38-22v-44z" fill="none" stroke="#d49b12" stroke-opacity=".12" stroke-width="3"/><path d="M860 80l38 22v44l-38 22-38-22v-44z" fill="none" stroke="#172033" stroke-opacity=".12" stroke-width="3"/><path d="M938 80l38 22v44l-38 22-38-22v-44z" fill="none" stroke="#d49b12" stroke-opacity=".12" stroke-width="3"/><path d="M1016 80l38 22v44l-38 22-38-22v-44z" fill="none" stroke="#172033" stroke-opacity=".12" stroke-width="3"/><path d="M1094 80l38 22v44l-38 22-38-22v-44z" fill="none" stroke="#d49b12" stroke-opacity=".12" stroke-width="3"/></g>
  <g><line x1="385" y1="235" x2="160" y2="310" stroke="#172033" stroke-opacity=".13" stroke-width="1.5"/><line x1="160" y1="310" x2="875" y2="385" stroke="#172033" stroke-opacity=".13" stroke-width="2.5"/><line x1="875" y1="385" x2="650" y2="460" stroke="#172033" stroke-opacity=".13" stroke-width="3.5"/><line x1="650" y1="460" x2="425" y2="535" stroke="#172033" stroke-opacity=".13" stroke-width="1.5"/><line x1="425" y1="535" x2="200" y2="170" stroke="#172033" stroke-opacity=".13" stroke-width="2.5"/><line x1="200" y1="170" x2="915" y2="245" stroke="#172033" stroke-opacity=".13" stroke-width="3.5"/><line x1="915" y1="245" x2="690" y2="320" stroke="#172033" stroke-opacity=".13" stroke-width="1.5"/><line x1="690" y1="320" x2="465" y2="395" stroke="#172033" stroke-opacity=".13" stroke-width="2.5"/><line x1="465" y1="395" x2="240" y2="470" stroke="#172033" stroke-opacity=".13" stroke-width="3.5"/><line x1="240" y1="470" x2="955" y2="545" stroke="#172033" stroke-opacity=".13" stroke-width="1.5"/><circle cx="385" cy="235" r="7" fill="#3f8cff" opacity="0.64"/><circle cx="160" cy="310" r="10" fill="#d49b12" opacity="0.615"/><circle cx="875" cy="385" r="13" fill="#3f8cff" opacity="0.59"/><circle cx="650" cy="460" r="16" fill="#d49b12" opacity="0.565"/><circle cx="425" cy="535" r="7" fill="#3f8cff" opacity="0.54"/><circle cx="200" cy="170" r="10" fill="#d49b12" opacity="0.515"/><circle cx="915" cy="245" r="13" fill="#3f8cff" opacity="0.49"/><circle cx="690" cy="320" r="16" fill="#d49b12" opacity="0.46499999999999997"/><circle cx="465" cy="395" r="7" fill="#3f8cff" opacity="0.44"/><circle cx="240" cy="470" r="10" fill="#d49b12" opacity="0.41500000000000004"/><circle cx="955" cy="545" r="13" fill="#3f8cff" opacity="0.39"/></g>
  <g transform="translate(-300 0)"><rect x="640" y="86" width="492" height="438" rx="40" fill="#fff" opacity=".44"/><path d="M690 524h392" stroke="#4b2e83" stroke-opacity=".18" stroke-width="14" stroke-linecap="round"/></g>
  <g transform="translate(-300 0)" filter="url(#shadow)"><g transform="translate(692 112)"><rect x="0" y="0" width="424" height="344" rx="34" fill="#4b2e83" opacity=".94"/><circle cx="44" cy="42" r="10" fill="#d49b12"/><circle cx="76" cy="42" r="10" fill="#3f8cff"/><circle cx="108" cy="42" r="10" fill="#fff" opacity=".7"/><path d="m104 168-54 48 54 48M320 168l54 48-54 48M246 122l-70 188" fill="none" stroke="#3f8cff" stroke-width="24" stroke-linecap="round" stroke-linejoin="round"/><rect x="66" y="296" width="292" height="16" rx="8" fill="#d49b12" opacity=".72"/></g></g>
  <g filter="url(#shadow)" opacity=".82"><circle cx="142" cy="474" r="42" fill="#d49b12" opacity=".44"/><circle cx="224" cy="506" r="26" fill="#3f8cff" opacity=".5"/><circle cx="304" cy="458" r="18" fill="#4b2e83" opacity=".16"/></g>
</svg>