<svg xmlns="http://www.w3.org/2000/svg" width="1200" height="675" viewBox="0 0 1200 675" role="img" aria-labelledby="title desc">
  <title id="title">What's the Fastest Way to Get Started With Tokenization?</title>
  <desc id="desc">Editorial infrastructure visual for Tokenization.</desc>
  <defs>
    <radialGradient id="g1" cx="18%" cy="14%" r="60%"><stop stop-color="#d49b12" stop-opacity=".48"/><stop offset="1" stop-color="#fff4e8" stop-opacity="0"/></radialGradient>
    <radialGradient id="g2" cx="86%" cy="12%" r="58%"><stop stop-color="#3f8cff" stop-opacity=".42"/><stop offset="1" stop-color="#fff4e8" stop-opacity="0"/></radialGradient>
    <linearGradient id="split" x1="0" x2="1"><stop stop-color="#fff4e8"/><stop offset=".55" stop-color="#fff4e8"/><stop offset=".55" stop-color="#eef8ff"/><stop offset="1" stop-color="#fff7d1"/></linearGradient>
    <filter id="shadow" x="-20%" y="-20%" width="140%" height="140%"><feDropShadow dx="0" dy="22" stdDeviation="22" flood-color="#12213a" flood-opacity=".14"/></filter>
  </defs>
  <rect width="1200" height="675" fill="#fff4e8"/>
  <rect width="1200" height="675" fill="url(#g1)"/>
  <rect width="1200" height="675" fill="url(#g2)"/>
  <g opacity=".9"><path d="M0 80C260 20 560 160 1200 60" fill="none" stroke="#172033" stroke-opacity=".09" stroke-width="2"/><path d="M0 146C260 66 560 184 1200 118" fill="none" stroke="#d49b12" stroke-opacity=".09" stroke-width="3"/><path d="M0 212C260 112 560 208 1200 176" fill="none" stroke="#172033" stroke-opacity=".09" stroke-width="4"/><path d="M0 278C260 158 560 232 1200 234" fill="none" stroke="#d49b12" stroke-opacity=".09" stroke-width="2"/><path d="M0 344C260 204 560 256 1200 292" fill="none" stroke="#172033" stroke-opacity=".09" stroke-width="3"/><path d="M0 410C260 250 560 280 1200 350" fill="none" stroke="#d49b12" stroke-opacity=".09" stroke-width="4"/><path d="M0 476C260 296 560 304 1200 408" fill="none" stroke="#172033" stroke-opacity=".09" stroke-width="2"/><path d="M0 542C260 342 560 328 1200 466" fill="none" stroke="#d49b12" stroke-opacity=".09" stroke-width="3"/><path d="M0 608C260 388 560 352 1200 524" fill="none" stroke="#172033" stroke-opacity=".09" stroke-width="4"/></g>
  <g><line x1="451" y1="369" x2="248" y2="526" stroke="#172033" stroke-opacity=".13" stroke-width="1.5"/><line x1="248" y1="526" x2="985" y2="243" stroke="#172033" stroke-opacity=".13" stroke-width="2.5"/><line x1="985" y1="243" x2="782" y2="400" stroke="#172033" stroke-opacity=".13" stroke-width="3.5"/><line x1="782" y1="400" x2="579" y2="557" stroke="#172033" stroke-opacity=".13" stroke-width="1.5"/><line x1="579" y1="557" x2="376" y2="274" stroke="#172033" stroke-opacity=".13" stroke-width="2.5"/><line x1="376" y1="274" x2="173" y2="431" stroke="#172033" stroke-opacity=".13" stroke-width="3.5"/><line x1="173" y1="431" x2="910" y2="588" stroke="#172033" stroke-opacity=".13" stroke-width="1.5"/><line x1="910" y1="588" x2="707" y2="305" stroke="#172033" stroke-opacity=".13" stroke-width="2.5"/><line x1="707" y1="305" x2="504" y2="462" stroke="#172033" stroke-opacity=".13" stroke-width="3.5"/><line x1="504" y1="462" x2="301" y2="179" stroke="#172033" stroke-opacity=".13" stroke-width="1.5"/><circle cx="451" cy="369" r="7" fill="#3f8cff" opacity="0.64"/><circle cx="248" cy="526" r="10" fill="#d49b12" opacity="0.615"/><circle cx="985" cy="243" r="13" fill="#3f8cff" opacity="0.59"/><circle cx="782" cy="400" r="16" fill="#d49b12" opacity="0.565"/><circle cx="579" cy="557" r="7" fill="#3f8cff" opacity="0.54"/><circle cx="376" cy="274" r="10" fill="#d49b12" opacity="0.515"/><circle cx="173" cy="431" r="13" fill="#3f8cff" opacity="0.49"/><circle cx="910" cy="588" r="16" fill="#d49b12" opacity="0.46499999999999997"/><circle cx="707" cy="305" r="7" fill="#3f8cff" opacity="0.44"/><circle cx="504" cy="462" r="10" fill="#d49b12" opacity="0.41500000000000004"/><circle cx="301" cy="179" r="13" fill="#3f8cff" opacity="0.39"/></g>
  <g transform="translate(-300 0)"><rect x="628" y="96" width="520" height="420" rx="54" fill="#4b2e83" opacity=".08"/><rect x="676" y="140" width="424" height="326" rx="38" fill="#fff" opacity=".46"/></g>
  <g transform="translate(-300 0)" filter="url(#shadow)"><g transform="translate(708 112)"><rect x="0" y="0" width="412" height="318" rx="34" fill="#fff" opacity=".7"/><circle cx="160" cy="146" r="92" fill="none" stroke="#4b2e83" stroke-width="34"/><path d="M224 210l112 112" stroke="#4b2e83" stroke-width="36" stroke-linecap="round"/><rect x="58" y="40" width="292" height="22" rx="11" fill="#d49b12" opacity=".72"/><rect x="58" y="270" width="200" height="20" rx="10" fill="#3f8cff" opacity=".78"/></g></g>
  <g filter="url(#shadow)" opacity=".82"><circle cx="142" cy="474" r="42" fill="#d49b12" opacity=".44"/><circle cx="224" cy="506" r="26" fill="#3f8cff" opacity=".5"/><circle cx="304" cy="458" r="18" fill="#4b2e83" opacity=".16"/></g>
</svg>