<svg xmlns="http://www.w3.org/2000/svg" width="1200" height="675" viewBox="0 0 1200 675" role="img" aria-labelledby="title desc">
  <title id="title">What Documents Do I Need to Tokenize Assets?</title>
  <desc id="desc">Editorial infrastructure visual for Tokenization.</desc>
  <defs>
    <radialGradient id="g1" cx="18%" cy="14%" r="60%"><stop stop-color="#9b7cff" stop-opacity=".48"/><stop offset="1" stop-color="#f6f2ff" stop-opacity="0"/></radialGradient>
    <radialGradient id="g2" cx="86%" cy="12%" r="58%"><stop stop-color="#ffdf45" stop-opacity=".42"/><stop offset="1" stop-color="#f6f2ff" stop-opacity="0"/></radialGradient>
    <linearGradient id="split" x1="0" x2="1"><stop stop-color="#f6f2ff"/><stop offset=".55" stop-color="#f6f2ff"/><stop offset=".55" stop-color="#eef8ff"/><stop offset="1" stop-color="#fff7d1"/></linearGradient>
    <filter id="shadow" x="-20%" y="-20%" width="140%" height="140%"><feDropShadow dx="0" dy="22" stdDeviation="22" flood-color="#12213a" flood-opacity=".14"/></filter>
  </defs>
  <rect width="1200" height="675" fill="#f6f2ff"/>
  <rect width="1200" height="675" fill="url(#g1)"/>
  <rect width="1200" height="675" fill="url(#g2)"/>
  <g opacity=".9"><path d="M-80 0V675" stroke="#27144a" stroke-opacity=".055"/><path d="M6 0V675" stroke="#27144a" stroke-opacity=".055"/><path d="M92 0V675" stroke="#27144a" stroke-opacity=".055"/><path d="M178 0V675" stroke="#27144a" stroke-opacity=".055"/><path d="M264 0V675" stroke="#27144a" stroke-opacity=".055"/><path d="M350 0V675" stroke="#27144a" stroke-opacity=".055"/><path d="M436 0V675" stroke="#27144a" stroke-opacity=".055"/><path d="M522 0V675" stroke="#27144a" stroke-opacity=".055"/><path d="M608 0V675" stroke="#27144a" stroke-opacity=".055"/><path d="M694 0V675" stroke="#27144a" stroke-opacity=".055"/><path d="M780 0V675" stroke="#27144a" stroke-opacity=".055"/><path d="M866 0V675" stroke="#27144a" stroke-opacity=".055"/><path d="M952 0V675" stroke="#27144a" stroke-opacity=".055"/><path d="M1038 0V675" stroke="#27144a" stroke-opacity=".055"/><path d="M1124 0V675" stroke="#27144a" stroke-opacity=".055"/><path d="M1210 0V675" stroke="#27144a" stroke-opacity=".055"/><path d="M1296 0V675" stroke="#27144a" stroke-opacity=".055"/><path d="M1382 0V675" stroke="#27144a" stroke-opacity=".055"/><path d="M0 0H1200" stroke="#27144a" stroke-opacity=".045"/><path d="M0 74H1200" stroke="#27144a" stroke-opacity=".045"/><path d="M0 148H1200" stroke="#27144a" stroke-opacity=".045"/><path d="M0 222H1200" stroke="#27144a" stroke-opacity=".045"/><path d="M0 296H1200" stroke="#27144a" stroke-opacity=".045"/><path d="M0 370H1200" stroke="#27144a" stroke-opacity=".045"/><path d="M0 444H1200" stroke="#27144a" stroke-opacity=".045"/><path d="M0 518H1200" stroke="#27144a" stroke-opacity=".045"/><path d="M0 592H1200" stroke="#27144a" stroke-opacity=".045"/><path d="M0 666H1200" stroke="#27144a" stroke-opacity=".045"/></g>
  <g><line x1="548" y1="182" x2="1004" y2="438" stroke="#27144a" stroke-opacity=".13" stroke-width="1.5"/><line x1="1004" y1="438" x2="520" y2="254" stroke="#27144a" stroke-opacity=".13" stroke-width="2.5"/><line x1="520" y1="254" x2="976" y2="510" stroke="#27144a" stroke-opacity=".13" stroke-width="3.5"/><line x1="976" y1="510" x2="492" y2="326" stroke="#27144a" stroke-opacity=".13" stroke-width="1.5"/><line x1="492" y1="326" x2="948" y2="582" stroke="#27144a" stroke-opacity=".13" stroke-width="2.5"/><line x1="948" y1="582" x2="464" y2="398" stroke="#27144a" stroke-opacity=".13" stroke-width="3.5"/><line x1="464" y1="398" x2="920" y2="214" stroke="#27144a" stroke-opacity=".13" stroke-width="1.5"/><circle cx="548" cy="182" r="7" fill="#ffdf45" opacity="0.64"/><circle cx="1004" cy="438" r="10" fill="#9b7cff" opacity="0.615"/><circle cx="520" cy="254" r="13" fill="#ffdf45" opacity="0.59"/><circle cx="976" cy="510" r="16" fill="#9b7cff" opacity="0.565"/><circle cx="492" cy="326" r="7" fill="#ffdf45" opacity="0.54"/><circle cx="948" cy="582" r="10" fill="#9b7cff" opacity="0.515"/><circle cx="464" cy="398" r="13" fill="#ffdf45" opacity="0.49"/><circle cx="920" cy="214" r="16" fill="#9b7cff" opacity="0.46499999999999997"/></g>
  <g transform="translate(-300 0)"><rect x="660" y="72" width="486" height="510" rx="44" fill="#fff" opacity=".52" stroke="#27144a" stroke-opacity=".08"/></g>
  <g transform="translate(-300 0)" filter="url(#shadow)"><g transform="translate(720 100)"><rect x="0" y="0" width="286" height="360" rx="28" fill="#fff" opacity=".84"/><path d="M210 0v78h76" fill="#ffdf45" opacity=".65"/><rect x="42" y="94" width="180" height="18" rx="9" fill="#0f5fa8" opacity=".82"/><rect x="42" y="142" width="214" height="14" rx="7" fill="#27144a" opacity=".32"/><rect x="42" y="178" width="172" height="14" rx="7" fill="#27144a" opacity=".24"/><rect x="42" y="248" width="92" height="52" rx="16" fill="#9b7cff" opacity=".84"/><circle cx="318" cy="278" r="78" fill="#0f5fa8" opacity=".9"/><path d="m282 278 28 28 52-66" fill="none" stroke="#ffdf45" stroke-width="18" stroke-linecap="round"/></g></g>
  <g filter="url(#shadow)" opacity=".82"><circle cx="142" cy="474" r="42" fill="#9b7cff" opacity=".44"/><circle cx="224" cy="506" r="26" fill="#ffdf45" opacity=".5"/><circle cx="304" cy="458" r="18" fill="#0f5fa8" opacity=".16"/></g>
</svg>