<svg xmlns="http://www.w3.org/2000/svg" width="1200" height="675" viewBox="0 0 1200 675" role="img" aria-labelledby="title desc">
  <title id="title">What Is Asset Tokenization and How Does It Work?</title>
  <desc id="desc">Editorial infrastructure visual for Tokenization.</desc>
  <defs>
    <radialGradient id="g1" cx="18%" cy="14%" r="60%"><stop stop-color="#63e8ff" stop-opacity=".48"/><stop offset="1" stop-color="#f4fbff" stop-opacity="0"/></radialGradient>
    <radialGradient id="g2" cx="86%" cy="12%" r="58%"><stop stop-color="#f6c915" stop-opacity=".42"/><stop offset="1" stop-color="#f4fbff" stop-opacity="0"/></radialGradient>
    <linearGradient id="split" x1="0" x2="1"><stop stop-color="#f4fbff"/><stop offset=".55" stop-color="#f4fbff"/><stop offset=".55" stop-color="#fffdf2"/><stop offset="1" stop-color="#eef8ff"/></linearGradient>
    <filter id="shadow" x="-20%" y="-20%" width="140%" height="140%"><feDropShadow dx="0" dy="22" stdDeviation="22" flood-color="#12213a" flood-opacity=".14"/></filter>
  </defs>
  <rect width="1200" height="675" fill="#f4fbff"/>
  <rect width="1200" height="675" fill="url(#g1)"/>
  <rect width="1200" height="675" fill="url(#g2)"/>
  <g opacity=".9"><rect x="70" y="64" width="72" height="72" rx="20" fill="#63e8ff" opacity=".13" transform="rotate(-8 100 90)"/><rect x="202" y="214" width="100" height="114" rx="20" fill="#f6c915" opacity=".13" transform="rotate(8 232 240)"/><rect x="334" y="364" width="128" height="72" rx="20" fill="#63e8ff" opacity=".13" transform="rotate(-8 364 390)"/><rect x="466" y="64" width="156" height="114" rx="20" fill="#f6c915" opacity=".13" transform="rotate(8 496 90)"/><rect x="598" y="214" width="72" height="72" rx="20" fill="#63e8ff" opacity=".13" transform="rotate(-8 628 240)"/><rect x="730" y="364" width="100" height="114" rx="20" fill="#f6c915" opacity=".13" transform="rotate(8 760 390)"/><rect x="862" y="64" width="128" height="72" rx="20" fill="#63e8ff" opacity=".13" transform="rotate(-8 892 90)"/><rect x="994" y="214" width="156" height="114" rx="20" fill="#f6c915" opacity=".13" transform="rotate(8 1024 240)"/></g>
  <g><line x1="793" y1="307" x2="704" y2="518" stroke="#17324f" stroke-opacity=".13" stroke-width="1.5"/><line x1="704" y1="518" x2="615" y2="289" stroke="#17324f" stroke-opacity=".13" stroke-width="2.5"/><line x1="615" y1="289" x2="526" y2="500" stroke="#17324f" stroke-opacity=".13" stroke-width="3.5"/><line x1="526" y1="500" x2="437" y2="271" stroke="#17324f" stroke-opacity=".13" stroke-width="1.5"/><line x1="437" y1="271" x2="348" y2="482" stroke="#17324f" stroke-opacity=".13" stroke-width="2.5"/><line x1="348" y1="482" x2="259" y2="253" stroke="#17324f" stroke-opacity=".13" stroke-width="3.5"/><line x1="259" y1="253" x2="170" y2="464" stroke="#17324f" stroke-opacity=".13" stroke-width="1.5"/><line x1="170" y1="464" x2="1021" y2="235" stroke="#17324f" stroke-opacity=".13" stroke-width="2.5"/><line x1="1021" y1="235" x2="932" y2="446" stroke="#17324f" stroke-opacity=".13" stroke-width="3.5"/><line x1="932" y1="446" x2="843" y2="217" stroke="#17324f" stroke-opacity=".13" stroke-width="1.5"/><circle cx="793" cy="307" r="7" fill="#f6c915" opacity="0.64"/><circle cx="704" cy="518" r="10" fill="#63e8ff" opacity="0.615"/><circle cx="615" cy="289" r="13" fill="#f6c915" opacity="0.59"/><circle cx="526" cy="500" r="16" fill="#63e8ff" opacity="0.565"/><circle cx="437" cy="271" r="7" fill="#f6c915" opacity="0.54"/><circle cx="348" cy="482" r="10" fill="#63e8ff" opacity="0.515"/><circle cx="259" cy="253" r="13" fill="#f6c915" opacity="0.49"/><circle cx="170" cy="464" r="16" fill="#63e8ff" opacity="0.46499999999999997"/><circle cx="1021" cy="235" r="7" fill="#f6c915" opacity="0.44"/><circle cx="932" cy="446" r="10" fill="#63e8ff" opacity="0.41500000000000004"/><circle cx="843" cy="217" r="13" fill="#f6c915" opacity="0.39"/></g>
  <g transform="translate(-300 0)"><path d="M630 132C770 48 1014 72 1130 210c108 128 8 302-150 356-184 62-396-12-432-178-22-104 6-210 82-256Z" fill="#fff" opacity=".42"/></g>
  <g transform="translate(-300 0)" filter="url(#shadow)"><g transform="translate(708 112)"><rect x="0" y="0" width="412" height="318" rx="34" fill="#fff" opacity=".7"/><circle cx="160" cy="146" r="92" fill="none" stroke="#17324f" stroke-width="34"/><path d="M224 210l112 112" stroke="#17324f" stroke-width="36" stroke-linecap="round"/><rect x="58" y="40" width="292" height="22" rx="11" fill="#63e8ff" opacity=".72"/><rect x="58" y="270" width="200" height="20" rx="10" fill="#f6c915" opacity=".78"/></g></g>
  <g filter="url(#shadow)" opacity=".82"><circle cx="142" cy="474" r="42" fill="#63e8ff" opacity=".44"/><circle cx="224" cy="506" r="26" fill="#f6c915" opacity=".5"/><circle cx="304" cy="458" r="18" fill="#17324f" opacity=".16"/></g>
</svg>