<svg xmlns="http://www.w3.org/2000/svg" width="1200" height="675" viewBox="0 0 1200 675" role="img" aria-labelledby="title desc">
  <title id="title">What Are Hidden Costs in Tokenization Services?</title>
  <desc id="desc">Editorial infrastructure visual for Tokenization.</desc>
  <defs>
    <radialGradient id="g1" cx="18%" cy="14%" r="60%"><stop stop-color="#38d9f2" stop-opacity=".48"/><stop offset="1" stop-color="#fffdf2" stop-opacity="0"/></radialGradient>
    <radialGradient id="g2" cx="86%" cy="12%" r="58%"><stop stop-color="#f6c915" stop-opacity=".42"/><stop offset="1" stop-color="#fffdf2" stop-opacity="0"/></radialGradient>
    <linearGradient id="split" x1="0" x2="1"><stop stop-color="#fffdf2"/><stop offset=".55" stop-color="#fffdf2"/><stop offset=".55" stop-color="#eef8ff"/><stop offset="1" stop-color="#fff7d1"/></linearGradient>
    <filter id="shadow" x="-20%" y="-20%" width="140%" height="140%"><feDropShadow dx="0" dy="22" stdDeviation="22" flood-color="#12213a" flood-opacity=".14"/></filter>
  </defs>
  <rect width="1200" height="675" fill="#fffdf2"/>
  <rect width="1200" height="675" fill="url(#g1)"/>
  <rect width="1200" height="675" fill="url(#g2)"/>
  <g opacity=".9"><path d="M0 80C260 20 560 160 1200 60" fill="none" stroke="#164b7a" stroke-opacity=".09" stroke-width="2"/><path d="M0 146C260 66 560 184 1200 118" fill="none" stroke="#38d9f2" stroke-opacity=".09" stroke-width="3"/><path d="M0 212C260 112 560 208 1200 176" fill="none" stroke="#164b7a" stroke-opacity=".09" stroke-width="4"/><path d="M0 278C260 158 560 232 1200 234" fill="none" stroke="#38d9f2" stroke-opacity=".09" stroke-width="2"/><path d="M0 344C260 204 560 256 1200 292" fill="none" stroke="#164b7a" stroke-opacity=".09" stroke-width="3"/><path d="M0 410C260 250 560 280 1200 350" fill="none" stroke="#38d9f2" stroke-opacity=".09" stroke-width="4"/><path d="M0 476C260 296 560 304 1200 408" fill="none" stroke="#164b7a" stroke-opacity=".09" stroke-width="2"/><path d="M0 542C260 342 560 328 1200 466" fill="none" stroke="#38d9f2" stroke-opacity=".09" stroke-width="3"/><path d="M0 608C260 388 560 352 1200 524" fill="none" stroke="#164b7a" stroke-opacity=".09" stroke-width="4"/></g>
  <g><line x1="724" y1="586" x2="612" y2="334" stroke="#164b7a" stroke-opacity=".13" stroke-width="1.5"/><line x1="612" y1="334" x2="500" y2="522" stroke="#164b7a" stroke-opacity=".13" stroke-width="2.5"/><line x1="500" y1="522" x2="388" y2="270" stroke="#164b7a" stroke-opacity=".13" stroke-width="3.5"/><line x1="388" y1="270" x2="276" y2="458" stroke="#164b7a" stroke-opacity=".13" stroke-width="1.5"/><line x1="276" y1="458" x2="164" y2="206" stroke="#164b7a" stroke-opacity=".13" stroke-width="2.5"/><line x1="164" y1="206" x2="992" y2="394" stroke="#164b7a" stroke-opacity=".13" stroke-width="3.5"/><line x1="992" y1="394" x2="880" y2="582" stroke="#164b7a" stroke-opacity=".13" stroke-width="1.5"/><line x1="880" y1="582" x2="768" y2="330" stroke="#164b7a" stroke-opacity=".13" stroke-width="2.5"/><circle cx="724" cy="586" r="7" fill="#f6c915" opacity="0.64"/><circle cx="612" cy="334" r="10" fill="#38d9f2" opacity="0.615"/><circle cx="500" cy="522" r="13" fill="#f6c915" opacity="0.59"/><circle cx="388" cy="270" r="16" fill="#38d9f2" opacity="0.565"/><circle cx="276" cy="458" r="7" fill="#f6c915" opacity="0.54"/><circle cx="164" cy="206" r="10" fill="#38d9f2" opacity="0.515"/><circle cx="992" cy="394" r="13" fill="#f6c915" opacity="0.49"/><circle cx="880" cy="582" r="16" fill="#38d9f2" opacity="0.46499999999999997"/><circle cx="768" cy="330" r="7" fill="#f6c915" opacity="0.44"/></g>
  <g transform="translate(-300 0)"><rect x="628" y="96" width="520" height="420" rx="54" fill="#172033" opacity=".08"/><rect x="676" y="140" width="424" height="326" rx="38" fill="#fff" opacity=".46"/></g>
  <g transform="translate(-300 0)" filter="url(#shadow)"><g transform="translate(700 96)"><circle cx="208" cy="208" r="178" fill="#172033" opacity=".92"/><circle cx="208" cy="208" r="130" fill="#38d9f2" opacity=".55"/><path d="M50 208h316M208 32c-76 68-76 284 0 352M208 32c76 68 76 284 0 352" fill="none" stroke="#f6c915" stroke-width="14" stroke-linecap="round" opacity=".82"/><circle cx="300" cy="146" r="20" fill="#fff" opacity=".86"/><circle cx="142" cy="270" r="17" fill="#f6c915"/></g></g>
  <g filter="url(#shadow)" opacity=".82"><circle cx="142" cy="474" r="42" fill="#38d9f2" opacity=".44"/><circle cx="224" cy="506" r="26" fill="#f6c915" opacity=".5"/><circle cx="304" cy="458" r="18" fill="#172033" opacity=".16"/></g>
</svg>