<svg xmlns="http://www.w3.org/2000/svg" width="1200" height="675" viewBox="0 0 1200 675" role="img" aria-labelledby="title desc">
  <title id="title">What Companies Are Actually Using Tokenization Today?</title>
  <desc id="desc">Editorial infrastructure visual for Tokenization.</desc>
  <defs>
    <radialGradient id="g1" cx="18%" cy="14%" r="60%"><stop stop-color="#25a074" stop-opacity=".48"/><stop offset="1" stop-color="#effaf6" stop-opacity="0"/></radialGradient>
    <radialGradient id="g2" cx="86%" cy="12%" r="58%"><stop stop-color="#4cb2e0" stop-opacity=".42"/><stop offset="1" stop-color="#effaf6" stop-opacity="0"/></radialGradient>
    <linearGradient id="split" x1="0" x2="1"><stop stop-color="#effaf6"/><stop offset=".55" stop-color="#effaf6"/><stop offset=".55" stop-color="#fffdf2"/><stop offset="1" stop-color="#eef8ff"/></linearGradient>
    <filter id="shadow" x="-20%" y="-20%" width="140%" height="140%"><feDropShadow dx="0" dy="22" stdDeviation="22" flood-color="#12213a" flood-opacity=".14"/></filter>
  </defs>
  <rect width="1200" height="675" fill="url(#split)"/>
  <rect width="1200" height="675" fill="url(#g1)"/>
  <rect width="1200" height="675" fill="url(#g2)"/>
  <g opacity=".9"><path d="M-120 675  220 0" stroke="#12392f" stroke-opacity=".12" stroke-width="4"/><path d="M18 675  312 0" stroke="#4cb2e0" stroke-opacity=".12" stroke-width="5"/><path d="M156 675  404 0" stroke="#12392f" stroke-opacity=".12" stroke-width="6"/><path d="M294 675  496 0" stroke="#4cb2e0" stroke-opacity=".12" stroke-width="7"/><path d="M432 675  588 0" stroke="#12392f" stroke-opacity=".12" stroke-width="4"/><path d="M570 675  680 0" stroke="#4cb2e0" stroke-opacity=".12" stroke-width="5"/><path d="M708 675  772 0" stroke="#12392f" stroke-opacity=".12" stroke-width="6"/><path d="M846 675  864 0" stroke="#4cb2e0" stroke-opacity=".12" stroke-width="7"/><path d="M984 675  956 0" stroke="#12392f" stroke-opacity=".12" stroke-width="4"/><path d="M1122 675  1048 0" stroke="#4cb2e0" stroke-opacity=".12" stroke-width="5"/><path d="M1260 675  1140 0" stroke="#12392f" stroke-opacity=".12" stroke-width="6"/></g>
  <g><line x1="818" y1="352" x2="424" y2="318" stroke="#172033" stroke-opacity=".13" stroke-width="1.5"/><line x1="424" y1="318" x2="970" y2="284" stroke="#172033" stroke-opacity=".13" stroke-width="2.5"/><line x1="970" y1="284" x2="576" y2="250" stroke="#172033" stroke-opacity=".13" stroke-width="3.5"/><line x1="576" y1="250" x2="182" y2="216" stroke="#172033" stroke-opacity=".13" stroke-width="1.5"/><line x1="182" y1="216" x2="728" y2="182" stroke="#172033" stroke-opacity=".13" stroke-width="2.5"/><line x1="728" y1="182" x2="334" y2="588" stroke="#172033" stroke-opacity=".13" stroke-width="3.5"/><circle cx="818" cy="352" r="7" fill="#4cb2e0" opacity="0.64"/><circle cx="424" cy="318" r="10" fill="#25a074" opacity="0.615"/><circle cx="970" cy="284" r="13" fill="#4cb2e0" opacity="0.59"/><circle cx="576" cy="250" r="16" fill="#25a074" opacity="0.565"/><circle cx="182" cy="216" r="7" fill="#4cb2e0" opacity="0.54"/><circle cx="728" cy="182" r="10" fill="#25a074" opacity="0.515"/><circle cx="334" cy="588" r="13" fill="#4cb2e0" opacity="0.49"/></g>
  <g transform="translate(-300 0)"><circle cx="890" cy="316" r="282" fill="#fff" opacity=".28"/><path d="M618 316h544M890 58v516" stroke="#12392f" stroke-opacity=".08" stroke-width="4"/></g>
  <g transform="translate(-300 0)" filter="url(#shadow)"><g transform="translate(728 100)"><polygon points="190,0 354,94 354,282 190,376 26,282 26,94" fill="#172033" opacity=".92"/><polygon points="190,54 306,122 306,254 190,322 74,254 74,122" fill="#25a074" opacity=".78"/><circle cx="190" cy="188" r="78" fill="#4cb2e0" opacity=".9"/><path d="M190 120v136M122 188h136" stroke="#172033" stroke-width="22" stroke-linecap="round"/></g></g>
  <g filter="url(#shadow)" opacity=".82"><circle cx="142" cy="474" r="42" fill="#25a074" opacity=".44"/><circle cx="224" cy="506" r="26" fill="#4cb2e0" opacity=".5"/><circle cx="304" cy="458" r="18" fill="#172033" opacity=".16"/></g>
</svg>