<svg xmlns="http://www.w3.org/2000/svg" width="1200" height="675" viewBox="0 0 1200 675" role="img" aria-labelledby="title desc">
  <title id="title">What Happens to Dividends or Income From Tokenized Assets?</title>
  <desc id="desc">Editorial infrastructure visual for Tokenization.</desc>
  <defs>
    <radialGradient id="g1" cx="18%" cy="14%" r="60%"><stop stop-color="#e16ba8" stop-opacity=".48"/><stop offset="1" stop-color="#fff2f7" stop-opacity="0"/></radialGradient>
    <radialGradient id="g2" cx="86%" cy="12%" r="58%"><stop stop-color="#ffe36e" stop-opacity=".42"/><stop offset="1" stop-color="#fff2f7" stop-opacity="0"/></radialGradient>
    <linearGradient id="split" x1="0" x2="1"><stop stop-color="#fff2f7"/><stop offset=".55" stop-color="#fff2f7"/><stop offset=".55" stop-color="#eef8ff"/><stop offset="1" stop-color="#fff7d1"/></linearGradient>
    <filter id="shadow" x="-20%" y="-20%" width="140%" height="140%"><feDropShadow dx="0" dy="22" stdDeviation="22" flood-color="#12213a" flood-opacity=".14"/></filter>
  </defs>
  <rect width="1200" height="675" fill="#fff2f7"/>
  <rect width="1200" height="675" fill="url(#g1)"/>
  <rect width="1200" height="675" fill="url(#g2)"/>
  <g opacity=".9"><path d="M0 80C260 20 560 160 1200 60" fill="none" stroke="#351528" stroke-opacity=".09" stroke-width="2"/><path d="M0 146C260 66 560 184 1200 118" fill="none" stroke="#e16ba8" stroke-opacity=".09" stroke-width="3"/><path d="M0 212C260 112 560 208 1200 176" fill="none" stroke="#351528" stroke-opacity=".09" stroke-width="4"/><path d="M0 278C260 158 560 232 1200 234" fill="none" stroke="#e16ba8" stroke-opacity=".09" stroke-width="2"/><path d="M0 344C260 204 560 256 1200 292" fill="none" stroke="#351528" stroke-opacity=".09" stroke-width="3"/><path d="M0 410C260 250 560 280 1200 350" fill="none" stroke="#e16ba8" stroke-opacity=".09" stroke-width="4"/><path d="M0 476C260 296 560 304 1200 408" fill="none" stroke="#351528" stroke-opacity=".09" stroke-width="2"/><path d="M0 542C260 342 560 328 1200 466" fill="none" stroke="#e16ba8" stroke-opacity=".09" stroke-width="3"/><path d="M0 608C260 388 560 352 1200 524" fill="none" stroke="#351528" stroke-opacity=".09" stroke-width="4"/></g>
  <g><line x1="168" y1="582" x2="184" y2="518" stroke="#351528" stroke-opacity=".13" stroke-width="1.5"/><line x1="184" y1="518" x2="200" y2="454" stroke="#351528" stroke-opacity=".13" stroke-width="2.5"/><line x1="200" y1="454" x2="216" y2="390" stroke="#351528" stroke-opacity=".13" stroke-width="3.5"/><line x1="216" y1="390" x2="232" y2="326" stroke="#351528" stroke-opacity=".13" stroke-width="1.5"/><line x1="232" y1="326" x2="248" y2="262" stroke="#351528" stroke-opacity=".13" stroke-width="2.5"/><line x1="248" y1="262" x2="264" y2="198" stroke="#351528" stroke-opacity=".13" stroke-width="3.5"/><line x1="264" y1="198" x2="280" y2="574" stroke="#351528" stroke-opacity=".13" stroke-width="1.5"/><line x1="280" y1="574" x2="296" y2="510" stroke="#351528" stroke-opacity=".13" stroke-width="2.5"/><line x1="296" y1="510" x2="312" y2="446" stroke="#351528" stroke-opacity=".13" stroke-width="3.5"/><circle cx="168" cy="582" r="7" fill="#ffe36e" opacity="0.64"/><circle cx="184" cy="518" r="10" fill="#e16ba8" opacity="0.615"/><circle cx="200" cy="454" r="13" fill="#ffe36e" opacity="0.59"/><circle cx="216" cy="390" r="16" fill="#e16ba8" opacity="0.565"/><circle cx="232" cy="326" r="7" fill="#ffe36e" opacity="0.54"/><circle cx="248" cy="262" r="10" fill="#e16ba8" opacity="0.515"/><circle cx="264" cy="198" r="13" fill="#ffe36e" opacity="0.49"/><circle cx="280" cy="574" r="16" fill="#e16ba8" opacity="0.46499999999999997"/><circle cx="296" cy="510" r="7" fill="#ffe36e" opacity="0.44"/><circle cx="312" cy="446" r="10" fill="#e16ba8" opacity="0.41500000000000004"/></g>
  <g transform="translate(-300 0)"><rect x="628" y="96" width="520" height="420" rx="54" fill="#164b7a" opacity=".08"/><rect x="676" y="140" width="424" height="326" rx="38" fill="#fff" opacity=".46"/></g>
  <g transform="translate(-300 0)" filter="url(#shadow)"><g transform="translate(724 116)"><polygon points="160,0 306,82 160,164 14,82" fill="#ffe36e" opacity=".8"/><polygon points="14,82 160,164 160,314 14,230" fill="#164b7a" opacity=".92"/><polygon points="306,82 160,164 160,314 306,230" fill="#e16ba8" opacity=".82"/><polygon points="250,136 396,218 250,300 104,218" fill="#fff" opacity=".55"/><polygon points="104,218 250,300 250,390 104,308" fill="#351528" opacity=".65"/><polygon points="396,218 250,300 250,390 396,308" fill="#ffe36e" opacity=".58"/></g></g>
  <g filter="url(#shadow)" opacity=".82"><circle cx="142" cy="474" r="42" fill="#e16ba8" opacity=".44"/><circle cx="224" cy="506" r="26" fill="#ffe36e" opacity=".5"/><circle cx="304" cy="458" r="18" fill="#164b7a" opacity=".16"/></g>
</svg>