<svg xmlns="http://www.w3.org/2000/svg" width="1200" height="675" viewBox="0 0 1200 675" role="img" aria-labelledby="title desc">
  <title id="title">Why Should I Tokenize Instead of Going Public?</title>
  <desc id="desc">Editorial infrastructure visual for Tokenization.</desc>
  <defs>
    <radialGradient id="g1" cx="18%" cy="14%" r="60%"><stop stop-color="#4cb2e0" stop-opacity=".48"/><stop offset="1" stop-color="#f2f7ff" stop-opacity="0"/></radialGradient>
    <radialGradient id="g2" cx="86%" cy="12%" r="58%"><stop stop-color="#ffb84d" stop-opacity=".42"/><stop offset="1" stop-color="#f2f7ff" stop-opacity="0"/></radialGradient>
    <linearGradient id="split" x1="0" x2="1"><stop stop-color="#f2f7ff"/><stop offset=".55" stop-color="#f2f7ff"/><stop offset=".55" stop-color="#fffdf2"/><stop offset="1" stop-color="#eef8ff"/></linearGradient>
    <filter id="shadow" x="-20%" y="-20%" width="140%" height="140%"><feDropShadow dx="0" dy="22" stdDeviation="22" flood-color="#12213a" flood-opacity=".14"/></filter>
  </defs>
  <rect width="1200" height="675" fill="url(#split)"/>
  <rect width="1200" height="675" fill="url(#g1)"/>
  <rect width="1200" height="675" fill="url(#g2)"/>
  <g opacity=".9"><path d="M-120 675  220 0" stroke="#10203d" stroke-opacity=".12" stroke-width="4"/><path d="M18 675  312 0" stroke="#ffb84d" stroke-opacity=".12" stroke-width="5"/><path d="M156 675  404 0" stroke="#10203d" stroke-opacity=".12" stroke-width="6"/><path d="M294 675  496 0" stroke="#ffb84d" stroke-opacity=".12" stroke-width="7"/><path d="M432 675  588 0" stroke="#10203d" stroke-opacity=".12" stroke-width="4"/><path d="M570 675  680 0" stroke="#ffb84d" stroke-opacity=".12" stroke-width="5"/><path d="M708 675  772 0" stroke="#10203d" stroke-opacity=".12" stroke-width="6"/><path d="M846 675  864 0" stroke="#ffb84d" stroke-opacity=".12" stroke-width="7"/><path d="M984 675  956 0" stroke="#10203d" stroke-opacity=".12" stroke-width="4"/><path d="M1122 675  1048 0" stroke="#ffb84d" stroke-opacity=".12" stroke-width="5"/><path d="M1260 675  1140 0" stroke="#10203d" stroke-opacity=".12" stroke-width="6"/></g>
  <g><line x1="220" y1="290" x2="880" y2="310" stroke="#12213a" stroke-opacity=".13" stroke-width="1.5"/><line x1="880" y1="310" x2="600" y2="330" stroke="#12213a" stroke-opacity=".13" stroke-width="2.5"/><line x1="600" y1="330" x2="320" y2="350" stroke="#12213a" stroke-opacity=".13" stroke-width="3.5"/><line x1="320" y1="350" x2="980" y2="370" stroke="#12213a" stroke-opacity=".13" stroke-width="1.5"/><line x1="980" y1="370" x2="700" y2="390" stroke="#12213a" stroke-opacity=".13" stroke-width="2.5"/><line x1="700" y1="390" x2="420" y2="410" stroke="#12213a" stroke-opacity=".13" stroke-width="3.5"/><line x1="420" y1="410" x2="140" y2="430" stroke="#12213a" stroke-opacity=".13" stroke-width="1.5"/><line x1="140" y1="430" x2="800" y2="450" stroke="#12213a" stroke-opacity=".13" stroke-width="2.5"/><circle cx="220" cy="290" r="7" fill="#ffb84d" opacity="0.64"/><circle cx="880" cy="310" r="10" fill="#4cb2e0" opacity="0.615"/><circle cx="600" cy="330" r="13" fill="#ffb84d" opacity="0.59"/><circle cx="320" cy="350" r="16" fill="#4cb2e0" opacity="0.565"/><circle cx="980" cy="370" r="7" fill="#ffb84d" opacity="0.54"/><circle cx="700" cy="390" r="10" fill="#4cb2e0" opacity="0.515"/><circle cx="420" cy="410" r="13" fill="#ffb84d" opacity="0.49"/><circle cx="140" cy="430" r="16" fill="#4cb2e0" opacity="0.46499999999999997"/><circle cx="800" cy="450" r="7" fill="#ffb84d" opacity="0.44"/></g>
  <g transform="translate(-300 0)"><circle cx="890" cy="316" r="282" fill="#fff" opacity=".28"/><path d="M618 316h544M890 58v516" stroke="#10203d" stroke-opacity=".08" stroke-width="4"/></g>
  <g transform="translate(-300 0)" filter="url(#shadow)"><g transform="translate(700 96)"><circle cx="208" cy="208" r="178" fill="#12213a" opacity=".92"/><circle cx="208" cy="208" r="130" fill="#4cb2e0" opacity=".55"/><path d="M50 208h316M208 32c-76 68-76 284 0 352M208 32c76 68 76 284 0 352" fill="none" stroke="#ffb84d" stroke-width="14" stroke-linecap="round" opacity=".82"/><circle cx="300" cy="146" r="20" fill="#fff" opacity=".86"/><circle cx="142" cy="270" r="17" fill="#ffb84d"/></g></g>
  <g filter="url(#shadow)" opacity=".82"><circle cx="142" cy="474" r="42" fill="#4cb2e0" opacity=".44"/><circle cx="224" cy="506" r="26" fill="#ffb84d" opacity=".5"/><circle cx="304" cy="458" r="18" fill="#12213a" opacity=".16"/></g>
</svg>